<svg width="28" height="32" viewBox="0 0 28 32" fill="none" xmlns="http://www.w3.org/2000/svg">
<path d="M0.736842 31.6866H5.15789C5.56463 31.6866 5.89474 31.355 5.89474 30.9497V25.055C5.89474 24.6497 5.56463 24.3181 5.15789 24.3181H0.736842C0.330105 24.3181 0 24.6497 0 25.055V30.9497C0 31.355 0.330105 31.6866 0.736842 31.6866ZM1.47368 25.7918H4.42105V30.2129H1.47368V25.7918Z" fill="white"/>
<path d="M8.10525 19.8971C7.69851 19.8971 7.36841 20.2287 7.36841 20.6339V30.9497C7.36841 31.355 7.69851 31.6866 8.10525 31.6866H12.5263C12.933 31.6866 13.2631 31.355 13.2631 30.9497V20.6339C13.2631 20.2287 12.933 19.8971 12.5263 19.8971H8.10525ZM11.7895 30.2129H8.84209V21.3708H11.7895V30.2129Z" fill="white"/>
<path d="M15.4737 15.476C15.0669 15.476 14.7368 15.8061 14.7368 16.2129V30.9497C14.7368 31.355 15.0669 31.6866 15.4737 31.6866H19.8947C20.3 31.6866 20.6316 31.355 20.6316 30.9497V16.2129C20.6316 15.8061 20.3 15.476 19.8947 15.476H15.4737ZM19.1579 30.2129H16.2105V16.9497H19.1579V30.2129Z" fill="white"/>
<path d="M22.1052 8.84445V30.9497C22.1052 31.355 22.4368 31.6866 22.8421 31.6866H27.2631C27.6684 31.6866 28 31.355 28 30.9497V8.84445C28 8.43771 27.6684 8.1076 27.2631 8.1076H22.8421C22.4368 8.1076 22.1052 8.43771 22.1052 8.84445ZM23.5789 9.58129H26.5263V30.2129H23.5789V9.58129Z" fill="white"/>
<path d="M0.736837 21.3708C0.831153 21.3708 0.926943 21.3531 1.01831 21.3148C7.06778 18.8051 12.4968 15.1739 17.1522 10.5215C19.5646 8.11054 21.7029 5.44465 23.5701 2.60044C23.7027 3.21201 23.828 3.83686 23.9429 4.47201C24.0078 4.82717 24.3187 5.07622 24.6665 5.07622C24.7093 5.07622 24.7564 5.07328 24.8006 5.06444C25.2 4.99222 25.4638 4.60759 25.3916 4.20675C25.1632 2.94528 24.8994 1.71917 24.6164 0.56233C24.5206 0.167383 24.1272 -0.0787228 23.7263 0.0229614C22.5857 0.302961 21.389 0.557909 20.1688 0.780435C19.7695 0.852646 19.5042 1.23728 19.5779 1.63812C19.6427 1.99328 19.9537 2.24233 20.3015 2.24233C20.3442 2.24233 20.3914 2.23938 20.4356 2.23054C21.0796 2.11265 21.6897 1.9638 22.316 1.8297C20.5093 4.57517 18.4387 7.1497 16.1133 9.47812C11.5949 13.9935 6.32505 17.5185 0.455364 19.9516C0.0795742 20.1063 -0.0987415 20.5381 0.0559954 20.9124C0.17389 21.1998 0.447995 21.3708 0.736837 21.3708Z" fill="white"/>
</svg>
