<svg width="32" height="27" viewBox="0 0 32 27" fill="none" xmlns="http://www.w3.org/2000/svg">
<path d="M31.6401 5.33587C31.4941 5.15744 31.3102 5.01373 31.1017 4.91513C30.8933 4.81653 30.6655 4.76552 30.4349 4.76578H8.71642L8.21634 2.22536C8.14328 1.84619 7.94073 1.50419 7.64334 1.25789C7.34595 1.01159 6.97221 0.876286 6.58607 0.875142H5.34087V0.500081C5.34087 0.367452 5.28818 0.240254 5.1944 0.14647C5.10061 0.0526869 4.97342 0 4.84079 0H1.44524C1.06193 0 0.694334 0.152265 0.4233 0.4233C0.152265 0.694334 0 1.06193 0 1.44524C0 1.82854 0.152265 2.19614 0.4233 2.46717C0.694334 2.7382 1.06193 2.89047 1.44524 2.89047H4.85579C4.98842 2.89047 5.11562 2.83778 5.2094 2.744C5.30318 2.65022 5.35587 2.52302 5.35587 2.39039V2.05033H6.60107C6.71877 2.04819 6.83345 2.08764 6.92493 2.16174C7.0164 2.23583 7.07881 2.33982 7.10115 2.4554L7.67125 5.37587L10.4867 19.7932C10.5598 20.1724 10.7623 20.5144 11.0597 20.7607C11.3571 21.007 11.7308 21.1423 12.117 21.1434H28.3246C28.4698 21.13 28.6047 21.0628 28.703 20.955C28.8012 20.8472 28.8557 20.7067 28.8557 20.5608C28.8557 20.415 28.8012 20.2745 28.703 20.1667C28.6047 20.0589 28.4698 19.9917 28.3246 19.9782H12.092C11.9743 19.9804 11.8596 19.9409 11.7681 19.8668C11.6766 19.7928 11.6142 19.6888 11.5919 19.5732L11.2518 17.8229H28.4996C28.8638 17.8227 29.2166 17.6958 29.4976 17.4641C29.7786 17.2324 29.9703 16.9102 30.0399 16.5527L31.9702 6.63608C32.0153 6.40845 32.0091 6.17362 31.952 5.94869C31.8949 5.72377 31.7884 5.51441 31.6401 5.33587ZM24.9441 13.6072H14.7874C14.6548 13.6072 14.5276 13.5545 14.4338 13.4607C14.34 13.367 14.2873 13.2398 14.2873 13.1071C14.2873 12.9745 14.34 12.8473 14.4338 12.7535C14.5276 12.6597 14.6548 12.6071 14.7874 12.6071H24.9441C25.0767 12.6071 25.2039 12.6597 25.2977 12.7535C25.3915 12.8473 25.4441 12.9745 25.4441 13.1071C25.4441 13.2398 25.3915 13.367 25.2977 13.4607C25.2039 13.5545 25.0767 13.6072 24.9441 13.6072ZM25.9442 9.94662H13.7822C13.6741 9.91952 13.5781 9.85707 13.5096 9.76918C13.441 9.68129 13.4037 9.57302 13.4037 9.46154C13.4037 9.35006 13.441 9.24178 13.5096 9.1539C13.5781 9.06601 13.6741 9.00356 13.7822 8.97646H25.9592C26.0674 9.00356 26.1633 9.06601 26.2319 9.1539C26.3005 9.24178 26.3377 9.35006 26.3377 9.46154C26.3377 9.57302 26.3005 9.68129 26.2319 9.76918C26.1633 9.85707 26.0674 9.91952 25.9592 9.94662H25.9442Z" fill="white"/>
<path d="M14.6674 21.8736C14.25 21.8736 13.842 21.9973 13.4949 22.2292C13.1479 22.4611 12.8774 22.7907 12.7176 23.1763C12.5579 23.5619 12.5161 23.9862 12.5976 24.3956C12.679 24.805 12.88 25.181 13.1751 25.4761C13.4702 25.7713 13.8463 25.9723 14.2556 26.0537C14.665 26.1351 15.0893 26.0933 15.4749 25.9336C15.8606 25.7739 16.1901 25.5034 16.422 25.1563C16.6539 24.8093 16.7777 24.4013 16.7777 23.9839C16.7777 23.4242 16.5554 22.8874 16.1596 22.4917C15.7638 22.0959 15.227 21.8736 14.6674 21.8736Z" fill="white"/>
<path d="M24.6891 21.8736C24.2715 21.8726 23.863 21.9955 23.5153 22.2268C23.1676 22.4581 22.8963 22.7873 22.7358 23.1728C22.5753 23.5584 22.5328 23.9828 22.6137 24.3925C22.6945 24.8022 22.8951 25.1787 23.1901 25.4744C23.485 25.77 23.861 25.9715 24.2705 26.0533C24.68 26.1352 25.1046 26.0937 25.4905 25.9341C25.8764 25.7745 26.2063 25.504 26.4384 25.1569C26.6705 24.8097 26.7944 24.4015 26.7944 23.9839C26.7944 23.4251 26.5728 22.889 26.1781 22.4934C25.7834 22.0978 25.2479 21.8749 24.6891 21.8736Z" fill="white"/>
</svg>
