<svg width="33" height="35" viewBox="0 0 33 35" fill="none" xmlns="http://www.w3.org/2000/svg">
<path d="M27.5043 0C26.387 0.714567 25.4776 1.55905 24.6591 2.39055C24.75 1.93583 24.75 1.46811 24.5681 1.10433L22.7362 0.36378C23.061 1.02638 23.2949 2.11772 23.4248 2.98819C21.3201 2.01378 18.9815 1.46811 16.5 1.46811C7.40551 1.46811 0 8.86063 0 17.9681C0 27.0756 7.40551 34.4681 16.5 34.4681C25.6075 34.4681 33 27.0756 33 17.9681C33 12.0047 29.8169 6.75591 25.0618 3.85866C25.8933 2.79331 27.9591 2.07874 29.7 1.53307L27.5043 0ZM16.5 2.92323C23.2039 2.92323 28.8685 7.31457 30.8173 13.3689C29.778 13.7457 28.4268 14.1094 27.0106 13.9925C25.1917 13.8626 23.2559 13.0181 21.528 10.2508C21.385 10.0169 21.0992 9.88701 20.8394 9.9C20.6315 9.92598 20.4236 10.0429 20.3067 10.2118C17.8902 13.6157 14.2134 14.863 10.5626 15.0189C7.32756 15.1488 4.14449 14.3563 2.18268 13.4339C4.09252 7.34055 9.78307 2.92323 16.5 2.92323ZM20.8913 11.8098C22.7232 14.2654 24.8929 15.3047 26.8937 15.4606C28.5567 15.5906 30.0638 15.2008 31.1941 14.785C31.415 15.8114 31.5189 16.8768 31.5189 17.9681C31.5189 26.2831 24.815 33.013 16.5 33.013C8.19803 33.013 1.4811 26.2831 1.4811 17.9681C1.4811 16.9157 1.58504 15.8764 1.79291 14.876C4.02756 15.8764 7.23661 16.6169 10.6146 16.487C14.2913 16.3311 18.176 15.0579 20.8913 11.8098ZM10.8224 16.8768C9.9 16.9677 9.17244 17.7602 9.17244 18.7087C9.17244 19.722 9.99094 20.5406 11.0043 20.5406C12.0177 20.5406 12.8362 19.722 12.8362 18.7087C12.8362 17.4744 11.9268 16.8768 10.8224 16.8768ZM20.1768 18.7087C20.1768 19.722 20.9953 20.5406 22.0087 20.5406C23.022 20.5406 23.8406 19.722 23.8406 18.7087C23.8406 17.6953 23.022 16.8768 22.0087 16.8768C20.7224 16.8768 20.1898 17.9291 20.1768 18.7087ZM11.6669 23.4768C11.3161 23.5157 11.0043 23.8535 11.0043 24.2043C11.0043 25.2177 11.589 26.2311 12.5374 27.0886C13.4728 27.9461 14.85 28.6087 16.5 28.6087C18.163 28.6087 19.5402 27.9461 20.4756 27.0886C21.424 26.2311 22.0087 25.2177 22.0087 24.2043C22.0087 23.8276 21.6579 23.4768 21.2681 23.4768H11.6669ZM12.7193 24.9449H20.2937C20.1248 25.2827 19.865 25.6594 19.5012 25.9972C18.7866 26.6339 17.7732 27.1405 16.5 27.1405C15.2398 27.1405 14.2264 26.6339 13.5118 25.9972C13.148 25.6594 12.8882 25.2827 12.7193 24.9449Z" fill="white"/>
</svg>
