<svg width="25" height="26" viewBox="0 0 25 26" fill="none" xmlns="http://www.w3.org/2000/svg">
<path d="M18.0556 1.37209e-07C18.7564 -0.000218372 19.4313 0.260556 19.9452 0.730048C20.4591 1.19954 20.7738 1.84305 20.8264 2.53158L20.8333 2.73684V9.57895H22.9167C23.4346 9.57897 23.9339 9.76905 24.3172 10.1121C24.7006 10.4552 24.9406 10.9266 24.9903 11.4345L25 11.6316V21.8947C25.0001 22.9419 24.594 23.9494 23.8649 24.7113C23.1358 25.4732 22.1387 25.9317 21.0778 25.9932L20.8333 26H2.77778C2.07698 26.0002 1.40199 25.7394 0.888128 25.27C0.374265 24.8005 0.0595047 24.1569 0.00694474 23.4684L1.39261e-07 23.2632V2.73684C-0.000221638 2.04637 0.264453 1.38133 0.740968 0.87504C1.21748 0.368749 1.87062 0.0586278 2.56944 0.0068424L2.77778 1.37209e-07H18.0556ZM22.2222 12.3158H20.8333V23.2632C21.2017 23.2632 21.555 23.119 21.8154 22.8624C22.0759 22.6057 22.2222 22.2577 22.2222 21.8947V12.3158ZM11.1111 13.6842H6.94444C6.59044 13.6846 6.24995 13.8182 5.99254 14.0576C5.73513 14.297 5.58023 14.6243 5.55948 14.9724C5.53874 15.3206 5.65371 15.6635 5.88092 15.9309C6.10813 16.1984 6.43042 16.3703 6.78194 16.4115L6.94444 16.4211H11.1111C11.4651 16.4207 11.8056 16.2871 12.063 16.0477C12.3204 15.8083 12.4753 15.481 12.4961 15.1328C12.5168 14.7846 12.4018 14.4418 12.1746 14.1743C11.9474 13.9069 11.6251 13.735 11.2736 13.6938L11.1111 13.6842ZM13.8889 6.84211H6.94444C6.57609 6.84211 6.22282 6.98628 5.96235 7.24291C5.70188 7.49954 5.55556 7.8476 5.55556 8.21053C5.55556 8.57345 5.70188 8.92152 5.96235 9.17815C6.22282 9.43477 6.57609 9.57895 6.94444 9.57895H13.8889C14.2572 9.57895 14.6105 9.43477 14.871 9.17815C15.1314 8.92152 15.2778 8.57345 15.2778 8.21053C15.2778 7.8476 15.1314 7.49954 14.871 7.24291C14.6105 6.98628 14.2572 6.84211 13.8889 6.84211Z" fill="black"/>
</svg>
