<svg width="25" height="36" viewBox="0 0 25 36" fill="none" xmlns="http://www.w3.org/2000/svg">
<path d="M24.208 26.9983C24.4924 26.9983 24.723 26.7681 24.723 26.4833V0.515101C24.723 0.230712 24.4924 0 24.208 0H3.00435C1.34774 0 0 1.65491 0 3.68895V28.972C0 30.629 1.34774 31.9771 3.00435 31.9771H4.93574V36L7.38242 33.8251L9.82892 36V31.9771H24.208C24.4924 31.9771 24.723 31.7466 24.723 31.4618C24.723 31.1775 24.4924 30.9469 24.208 30.9469H23.6929V26.9983H24.208ZM5.83712 4.93612C5.83712 4.65173 6.06783 4.42102 6.35222 4.42102H21.461C21.7454 4.42102 21.9759 4.65173 21.9759 4.93612V9.74341C21.9759 10.028 21.7454 10.2585 21.461 10.2585H6.35222C6.06783 10.2585 5.83712 10.028 5.83712 9.74341V4.93612ZM22.6627 30.9469H9.82892V29.1543H4.93574V30.9469H3.00435C1.91557 30.9469 1.03001 30.0606 1.03001 28.972C1.03001 27.8838 1.91557 26.9983 3.00435 26.9983H22.6627V30.9469Z" fill="white"/>
</svg>
