<svg width="26" height="29" viewBox="0 0 26 29" fill="none" xmlns="http://www.w3.org/2000/svg">
<path d="M5.10714 0C2.2425 0 0 2.98609 0 6.79688C0 10.1862 1.77357 12.9141 4.17857 13.4805V28.0938C4.17857 28.3341 4.2764 28.5646 4.45054 28.7346C4.62468 28.9045 4.86087 29 5.10714 29C5.35342 29 5.5896 28.9045 5.76374 28.7346C5.93788 28.5646 6.03571 28.3341 6.03571 28.0938V13.4805C8.44071 12.9141 10.2143 10.1862 10.2143 6.79688C10.2143 2.98609 7.97179 0 5.10714 0ZM5.10714 11.7812C3.3475 11.7812 1.85714 9.51562 1.85714 6.79688C1.85714 4.07812 3.3475 1.8125 5.10714 1.8125C6.86679 1.8125 8.35714 4.07812 8.35714 6.79688C8.35714 9.51562 6.86679 11.7812 5.10714 11.7812ZM26 0.90625V8.15625C26 11.2148 24.4539 13.1406 21.8214 13.5258V28.0938C21.8214 28.3341 21.7236 28.5646 21.5495 28.7346C21.3753 28.9045 21.1391 29 20.8929 29C20.6466 29 20.4104 28.9045 20.2363 28.7346C20.0621 28.5646 19.9643 28.3341 19.9643 28.0938V13.5258C17.3318 13.1633 15.7857 11.2148 15.7857 8.15625V0.90625C15.7857 0.665898 15.8835 0.435389 16.0577 0.265435C16.2318 0.0954798 16.468 0 16.7143 0C16.9606 0 17.1967 0.0954798 17.3709 0.265435C17.545 0.435389 17.6429 0.665898 17.6429 0.90625V8.15625C17.6429 10.5623 18.7386 11.7812 20.8929 11.7812C23.0471 11.7812 24.1429 10.5623 24.1429 8.15625V0.90625C24.1429 0.665898 24.2407 0.435389 24.4148 0.265435C24.589 0.0954798 24.8252 0 25.0714 0C25.3177 0 25.5539 0.0954798 25.728 0.265435C25.9022 0.435389 26 0.665898 26 0.90625ZM19.9643 8.15625V0.90625C19.9643 0.665898 20.0621 0.435389 20.2363 0.265435C20.4104 0.0954798 20.6466 0 20.8929 0C21.1391 0 21.3753 0.0954798 21.5495 0.265435C21.7236 0.435389 21.8214 0.665898 21.8214 0.90625V8.15625C21.8214 8.3966 21.7236 8.62711 21.5495 8.79707C21.3753 8.96702 21.1391 9.0625 20.8929 9.0625C20.6466 9.0625 20.4104 8.96702 20.2363 8.79707C20.0621 8.62711 19.9643 8.3966 19.9643 8.15625Z" fill="white"/>
</svg>
