<svg width="33" height="33" viewBox="0 0 33 33" fill="none" xmlns="http://www.w3.org/2000/svg">
<path d="M16.5 0C7.39895 0 0 7.39895 0 16.5C0 25.6011 7.39895 33 16.5 33C25.6011 33 33 25.6011 33 16.5C33 7.39895 25.6011 0 16.5 0ZM16.5 30.2905C8.89263 30.2905 2.70947 24.1074 2.70947 16.5C2.70947 8.89263 8.89263 2.70947 16.5 2.70947C24.1074 2.70947 30.2905 8.89263 30.2905 16.5C30.2905 24.1074 24.1074 30.2905 16.5 30.2905Z" fill="white"/>
<path d="M24.5028 16.2381H8.49728C8.01015 16.2381 7.52302 16.4412 7.20987 16.8136C6.89672 17.1859 6.75754 17.6599 6.82713 18.1676C7.59261 22.8053 11.6636 26.1905 16.5 26.1905C21.3365 26.1905 25.4075 22.8053 26.173 18.1676C26.2425 17.6937 26.1034 17.1859 25.7902 16.8136C25.4771 16.4412 24.9899 16.2381 24.5028 16.2381Z" fill="white"/>
<path d="M9.54585 12.3551C9.75671 12.4878 10.0027 12.5541 10.2487 12.5541C10.7056 12.5541 11.1624 12.3219 11.4084 11.957C11.6896 11.5589 12.1113 11.4925 12.287 11.4925C12.4627 11.4925 12.8845 11.5257 13.1656 11.957C13.5522 12.5541 14.3956 12.7532 15.0634 12.3883C15.6959 12.0233 15.9068 11.2271 15.5202 10.5967C14.8174 9.5351 13.6225 8.90475 12.3222 8.90475C11.0219 8.90475 9.827 9.5351 9.12413 10.5967C8.70241 11.1607 8.91327 11.957 9.54585 12.3551Z" fill="white"/>
<path d="M17.9347 12.3826C18.5665 12.7435 19.4089 12.5794 19.83 11.956C20.1108 11.5623 20.532 11.4967 20.7075 11.4967C20.883 11.4967 21.3042 11.5295 21.585 11.956C21.8306 12.3498 22.2869 12.5466 22.7432 12.5466C22.9889 12.5466 23.2346 12.481 23.4452 12.3498C24.0769 11.9889 24.2875 11.2014 23.9015 10.578C23.1995 9.52814 22.0061 8.90475 20.7075 8.90475C19.4089 8.90475 18.2155 9.52814 17.5135 10.578C17.0924 11.2014 17.2679 11.9889 17.9347 12.3826Z" fill="white"/>
</svg>
