<svg width="27" height="34" viewBox="0 0 27 34" fill="none" xmlns="http://www.w3.org/2000/svg">
<path fill-rule="evenodd" clip-rule="evenodd" d="M11.7983 6.97731L10.2393 9.91119C10.0621 10.2444 10.1955 10.6553 10.537 10.8282C10.8788 11.001 11.3 10.8709 11.4771 10.5377L13.369 6.97731H13.6308L15.5231 10.5377C15.7003 10.8709 16.1214 11.001 16.4629 10.8282C16.8044 10.6553 16.9381 10.2444 16.7606 9.91119L15.2012 6.97731L15.5861 6.97766C19.3291 7.06755 22.598 9.50788 23.6551 13.0297C24.5202 15.9126 25.6299 19.61 26.6451 22.9913C27.4244 25.5888 26.9044 28.3926 25.2412 30.5587C23.5786 32.7248 20.9667 34 18.193 34H8.80687C6.03349 34 3.42161 32.7248 1.75872 30.5587C0.0954786 28.3926 -0.424551 25.5885 0.355138 22.9913C1.36994 19.61 2.47972 15.9126 3.34513 13.0297C4.40226 9.50788 7.67077 7.06755 11.4138 6.97766L11.7983 6.97731ZM12.8028 16.4384V15.6491C12.8028 15.2739 13.1151 14.9689 13.4999 14.9689C13.8848 14.9689 14.1971 15.2739 14.1971 15.6491V16.4384H15.8536C16.2385 16.4384 16.5508 16.7431 16.5508 17.1187C16.5508 17.4939 16.2385 17.799 15.8536 17.799H14.1971V20.1122H14.5133C15.8984 20.1122 17.021 21.2076 17.021 22.5592V22.7001C17.021 24.0513 15.8984 25.1467 14.5133 25.1467H14.1971V25.7922C14.1971 26.1678 13.8848 26.4725 13.4999 26.4725C13.1151 26.4725 12.8028 26.1678 12.8028 25.7922V25.1467H11.1466C10.7618 25.1467 10.4495 24.8419 10.4495 24.4664C10.4495 24.0908 10.7618 23.7861 11.1466 23.7861H12.8028V21.4728H12.4866C11.1015 21.4728 9.97889 20.3774 9.97889 19.0259V18.885C9.97889 17.5338 11.1015 16.4384 12.4866 16.4384H12.8028ZM14.1971 21.4728V23.7861H14.5133C15.1283 23.7861 15.6267 23.2998 15.6267 22.6997V22.5592C15.6267 21.9591 15.1283 21.4728 14.5133 21.4728H14.1971ZM12.8028 17.799H12.4866C11.8716 17.799 11.3732 18.2852 11.3732 18.885V19.0259C11.3732 19.626 11.8716 20.1122 12.4866 20.1122H12.8028V17.799ZM9.17608 6.06136L7.33392 3.40793C6.81638 2.6624 6.82101 1.68259 7.34566 0.942613C7.86996 0.201595 8.80758 -0.149304 9.705 0.0596384L13.58 0.960661L17.2807 0.0776866C18.1788 -0.136115 19.1193 0.210966 19.6482 0.952331C20.176 1.69335 20.1828 2.67524 19.6635 3.4232L17.8309 6.0631C17.1174 5.88401 16.3754 5.78162 15.6167 5.76322L15.552 5.76253H11.4479C11.4262 5.76253 11.4049 5.76287 11.3832 5.76322C10.627 5.78127 9.88748 5.88331 9.17608 6.06136Z" fill="white"/>
</svg>
