<svg width="27" height="25" viewBox="0 0 27 25" fill="none" xmlns="http://www.w3.org/2000/svg">
<path d="M20 5.93945C20 5.69081 19.9012 5.45236 19.7254 5.27654C19.5496 5.10073 19.3111 5.00195 19.0625 5.00195C18.8139 5.00195 18.5754 5.10073 18.3996 5.27654C18.2238 5.45236 18.125 5.69081 18.125 5.93945V7.50195H16.5625C16.3139 7.50195 16.0754 7.60073 15.8996 7.77654C15.7238 7.95236 15.625 8.19081 15.625 8.43945C15.625 8.68809 15.7238 8.92655 15.8996 9.10237C16.0754 9.27818 16.3139 9.37695 16.5625 9.37695H18.125V10.9395C18.125 11.1881 18.2238 11.4265 18.3996 11.6024C18.5754 11.7782 18.8139 11.877 19.0625 11.877C19.3111 11.877 19.5496 11.7782 19.7254 11.6024C19.9012 11.4265 20 11.1881 20 10.9395V9.37695H21.5625C21.8111 9.37695 22.0496 9.27818 22.2254 9.10237C22.4012 8.92655 22.5 8.68809 22.5 8.43945C22.5 8.19081 22.4012 7.95236 22.2254 7.77654C22.0496 7.60073 21.8111 7.50195 21.5625 7.50195H20V5.93945Z" fill="white"/>
<path fill-rule="evenodd" clip-rule="evenodd" d="M26.875 8.83686C26.875 4.67936 25.0225 1.57686 22.1375 0.448113C19.4687 -0.598137 16.265 0.184363 13.4375 2.83061C10.61 0.184363 7.40625 -0.598137 4.7375 0.448113C1.8525 1.57686 0 4.67936 0 8.83561C0 11.4844 1.4125 14.0894 3.17125 16.3319C4.94875 18.5981 7.18375 20.6269 9.04875 22.1406L9.21625 22.2781C10.7163 23.4969 11.8012 24.3781 13.4375 24.3781C15.075 24.3781 16.1575 23.4969 17.6587 22.2781L17.8262 22.1406C19.6912 20.6281 21.9262 18.5981 23.7037 16.3319C25.4625 14.0894 26.875 11.4844 26.875 8.83686ZM14.1225 4.79811C16.7625 1.97436 19.4987 1.42811 21.455 2.19311C23.415 2.96061 25 5.20561 25 8.83686C25 10.8506 23.9 13.0419 22.2275 15.1744C20.5725 17.2869 18.4575 19.2144 16.645 20.6856C14.9037 22.0981 14.3412 22.5019 13.4375 22.5019C12.5338 22.5019 11.9713 22.0981 10.23 20.6844C8.4175 19.2144 6.3025 17.2856 4.6475 15.1756C2.97375 13.0419 1.875 10.8506 1.875 8.83686C1.875 5.20561 3.46 2.96186 5.42 2.19311C7.37625 1.42811 10.1125 1.97436 12.7525 4.79811C12.8402 4.89198 12.9463 4.96682 13.0641 5.01798C13.1819 5.06915 13.309 5.09555 13.4375 5.09555C13.566 5.09555 13.6931 5.06915 13.8109 5.01798C13.9287 4.96682 14.0348 4.89198 14.1225 4.79811Z" fill="white"/>
</svg>
