<svg width="24" height="24" viewBox="0 0 24 24" fill="none" xmlns="http://www.w3.org/2000/svg">
<path d="M13.086 0.464008C12.9459 0.317283 12.7776 0.20049 12.5911 0.120694C12.4046 0.0408978 12.2038 -0.000244141 12.001 -0.000244141C11.7982 -0.000244141 11.5974 0.0408978 11.4109 0.120694C11.2244 0.20049 11.0561 0.317283 10.916 0.464008L0.416004 11.464C0.213175 11.6764 0.0771483 11.9436 0.0247934 12.2326C-0.0275616 12.5216 0.00605831 12.8195 0.121484 13.0896C0.23691 13.3596 0.429063 13.5898 0.674114 13.7517C0.919165 13.9135 1.20633 13.9999 1.5 14H4V22C4 22.5304 4.21072 23.0391 4.58579 23.4142C4.96086 23.7893 5.46957 24 6 24H8C8.53044 24 9.03914 23.7893 9.41422 23.4142C9.78929 23.0391 10 22.5304 10 22V20C10 19.4696 10.2107 18.9609 10.5858 18.5858C10.9609 18.2107 11.4696 18 12 18C12.5304 18 13.0391 18.2107 13.4142 18.5858C13.7893 18.9609 14 19.4696 14 20V22C14 22.5304 14.2107 23.0391 14.5858 23.4142C14.9609 23.7893 15.4696 24 16 24H18C18.5304 24 19.0391 23.7893 19.4142 23.4142C19.7893 23.0391 20 22.5304 20 22V14H22.5C22.7938 14.0003 23.0813 13.9142 23.3266 13.7525C23.572 13.5908 23.7645 13.3606 23.8801 13.0905C23.9958 12.8204 24.0296 12.5222 23.9773 12.2331C23.925 11.9439 23.789 11.6765 23.586 11.464L13.086 0.464008Z" fill="#137CF8"/>
</svg>
