<svg width="32" height="35" viewBox="0 0 32 35" fill="none" xmlns="http://www.w3.org/2000/svg">
<path d="M9.97522 32.1968C3.95258 29.7665 0 23.9476 0 17.5009C0 10.4038 4.76046 4.17044 11.622 2.23932L11.6211 0.724035C11.6211 0.169109 12.2247 -0.171983 12.7033 0.0896316L19.3711 3.05065C19.9519 3.30706 19.9366 4.1184 19.3711 4.36771L12.648 7.35286C12.1631 7.56717 11.6234 7.20952 11.6234 6.69386L11.623 5.27792C6.41775 7.11017 2.92041 12.0009 2.92041 17.5009C2.92041 22.7843 6.13287 27.5237 11.0704 29.5158L9.97522 32.1968ZM10.5073 19.8947L13.1686 19.6327C13.4721 21.2974 14.3611 22.1958 16.11 22.1958C17.2596 22.1958 18.7551 21.7341 18.7551 20.3527C18.7551 18.9159 16.4197 18.6505 15.3241 18.379C13.1672 17.8435 11.0169 16.9049 11.0169 14.3441C11.0169 12.0577 12.8379 10.9521 14.8497 10.6696V9.16808H17.1498V10.6753C19.3282 10.9743 21.0055 12.1509 21.0957 14.6932L18.359 14.7864C18.1161 13.3402 17.3378 12.8406 15.8996 12.8406C15.0664 12.8406 13.6219 13.0876 13.6219 14.1629C13.6219 15.321 15.6834 15.6791 16.528 15.8783C19.1526 16.4895 21.4918 17.2616 21.4918 20.3371C21.4918 22.9915 19.4308 24.1544 17.1498 24.4188V25.8319H14.8497V24.4009C12.3965 24.0702 10.8418 22.6741 10.5073 19.8947ZM19.3516 27.6471C19.8364 27.4328 20.3766 27.7905 20.3766 28.3061V29.7273C25.5865 27.8931 29.0791 23.0057 29.0791 17.5009C29.0791 12.3022 25.9793 7.63576 21.1611 5.58212L22.313 2.92434C28.1791 5.42363 32 11.1706 32 17.5009C32 24.5939 27.2348 30.8263 20.3775 32.755L20.379 34.276C20.379 34.8309 19.7753 35.172 19.2957 34.9104L12.6284 31.9494C12.0486 31.6929 12.0634 30.8816 12.6284 30.6323L19.3516 27.6471Z" fill="white"/>
</svg>
