<svg width="343" height="231" viewBox="0 0 343 231" fill="none" xmlns="http://www.w3.org/2000/svg">
<rect x="0.5" y="0.5" width="342" height="54" rx="9.5" fill="white"/>
<rect x="0.5" y="0.5" width="342" height="54" rx="9.5" stroke="#137CF8"/>
<rect x="12" y="11" width="33" height="33" rx="8" fill="#137CF8"/>
<path d="M34.3695 16H21.6601C20.9546 16 20.278 16.2803 19.7791 16.7791C19.2803 17.278 19 17.9546 19 18.6601V38.5813C19.002 38.7515 19.0531 38.9176 19.147 39.0597C19.2409 39.2017 19.3737 39.3137 19.5295 39.3823C19.6854 39.4509 19.8577 39.4731 20.0259 39.4464C20.194 39.4196 20.3509 39.3451 20.4778 39.2315L22.5468 37.3103L24.6749 39.2315C24.8374 39.3769 25.0479 39.4573 25.266 39.4573C25.4841 39.4573 25.6946 39.3769 25.8571 39.2315L28.0148 37.3103L30.1429 39.2315C30.3054 39.3769 30.5159 39.4573 30.734 39.4573C30.9521 39.4573 31.1626 39.3769 31.3251 39.2315L33.4532 37.3103L35.5222 39.2315C35.6831 39.3808 35.8938 39.4651 36.1133 39.468L36.468 39.3793C36.6238 39.3113 36.7569 39.1999 36.8512 39.0584C36.9455 38.9169 36.9972 38.7513 37 38.5813V18.6601C37 17.9597 36.7238 17.2875 36.2314 16.7895C35.7389 16.2915 35.0698 16.0078 34.3695 16ZM35.2562 36.5419L34.0739 35.4483C33.9113 35.3029 33.7009 35.2225 33.4828 35.2225C33.2647 35.2225 33.0542 35.3029 32.8916 35.4483L30.7635 37.3695L28.6059 35.4483C28.4433 35.3029 28.2329 35.2225 28.0148 35.2225C27.7967 35.2225 27.5862 35.3029 27.4236 35.4483L25.2956 37.3695L23.1675 35.4483C23.0049 35.3029 22.7945 35.2225 22.5764 35.2225C22.3582 35.2225 22.1478 35.3029 21.9852 35.4483L20.803 36.5419V18.6601C20.803 18.4249 20.8964 18.1994 21.0627 18.0331C21.229 17.8668 21.4545 17.7734 21.6897 17.7734H34.399C34.6342 17.7734 34.8597 17.8668 35.026 18.0331C35.1923 18.1994 35.2857 18.4249 35.2857 18.6601L35.2562 36.5419Z" fill="white"/>
<path d="M31.6798 24.9556H24.3497C24.1145 24.9556 23.889 25.049 23.7227 25.2153C23.5564 25.3816 23.463 25.6071 23.463 25.8423C23.463 26.0774 23.5564 26.303 23.7227 26.4693C23.889 26.6355 24.1145 26.729 24.3497 26.729H31.6798C31.9149 26.729 32.1405 26.6355 32.3068 26.4693C32.473 26.303 32.5665 26.0774 32.5665 25.8423C32.5665 25.6071 32.473 25.3816 32.3068 25.2153C32.1405 25.049 31.9149 24.9556 31.6798 24.9556Z" fill="white"/>
<path d="M24.468 23.1529C24.7032 23.1529 24.9287 23.0595 25.095 22.8932C25.2613 22.7269 25.3547 22.5013 25.3547 22.2662V20.2563C25.3547 20.0212 25.2613 19.7956 25.095 19.6293C24.9287 19.463 24.7032 19.3696 24.468 19.3696C24.2328 19.3696 24.0073 19.463 23.841 19.6293C23.6747 19.7956 23.5813 20.0212 23.5813 20.2563V22.2662C23.5813 22.5013 23.6747 22.7269 23.841 22.8932C24.0073 23.0595 24.2328 23.1529 24.468 23.1529Z" fill="white"/>
<path d="M28.0148 23.1529C28.2499 23.1529 28.4755 23.0595 28.6417 22.8932C28.808 22.7269 28.9015 22.5013 28.9015 22.2662V20.2563C28.9015 20.1399 28.8785 20.0246 28.834 19.917C28.7894 19.8094 28.7241 19.7117 28.6417 19.6293C28.5594 19.547 28.4617 19.4817 28.3541 19.4371C28.2465 19.3926 28.1312 19.3696 28.0148 19.3696C27.8983 19.3696 27.783 19.3926 27.6754 19.4371C27.5678 19.4817 27.4701 19.547 27.3878 19.6293C27.3054 19.7117 27.2401 19.8094 27.1955 19.917C27.151 20.0246 27.1281 20.1399 27.1281 20.2563V22.2662C27.1281 22.5013 27.2215 22.7269 27.3878 22.8932C27.554 23.0595 27.7796 23.1529 28.0148 23.1529Z" fill="white"/>
<path d="M31.5616 23.1529C31.7968 23.1529 32.0223 23.0595 32.1886 22.8932C32.3549 22.7269 32.4483 22.5013 32.4483 22.2662V20.2563C32.4483 20.0212 32.3549 19.7956 32.1886 19.6293C32.0223 19.463 31.7968 19.3696 31.5616 19.3696C31.3265 19.3696 31.1009 19.463 30.9346 19.6293C30.7683 19.7956 30.6749 20.0212 30.6749 20.2563V22.2662C30.6749 22.5013 30.7683 22.7269 30.9346 22.8932C31.1009 23.0595 31.3265 23.1529 31.5616 23.1529Z" fill="white"/>
<path d="M31.6798 28.207H24.3497C24.1145 28.207 23.889 28.3005 23.7227 28.4667C23.5564 28.633 23.463 28.8586 23.463 29.0937C23.463 29.3289 23.5564 29.5544 23.7227 29.7207C23.889 29.887 24.1145 29.9804 24.3497 29.9804H31.6798C31.9149 29.9804 32.1405 29.887 32.3068 29.7207C32.473 29.5544 32.5665 29.3289 32.5665 29.0937C32.5665 28.8586 32.473 28.633 32.3068 28.4667C32.1405 28.3005 31.9149 28.207 31.6798 28.207Z" fill="white"/>
<path d="M31.6798 31.458H24.3497C24.1145 31.458 23.889 31.5514 23.7227 31.7177C23.5564 31.884 23.463 32.1095 23.463 32.3447C23.463 32.5799 23.5564 32.8054 23.7227 32.9717C23.889 33.138 24.1145 33.2314 24.3497 33.2314H31.6798C31.9149 33.2314 32.1405 33.138 32.3068 32.9717C32.473 32.8054 32.5665 32.5799 32.5665 32.3447C32.5665 32.1095 32.473 31.884 32.3068 31.7177C32.1405 31.5514 31.9149 31.458 31.6798 31.458Z" fill="white"/>
<path d="M58.42 35V21H64.48C65.4 21 66.2 21.1533 66.88 21.46C67.56 21.7667 68.0867 22.2 68.46 22.76C68.8333 23.3067 69.02 23.9533 69.02 24.7C69.02 25.38 68.8467 25.98 68.5 26.5C68.1533 27.02 67.6667 27.4333 67.04 27.74C67.8267 28.02 68.44 28.4467 68.88 29.02C69.3333 29.58 69.56 30.24 69.56 31C69.56 31.8133 69.36 32.52 68.96 33.12C68.56 33.72 68 34.1867 67.28 34.52C66.56 34.84 65.7133 35 64.74 35H58.42ZM60.52 26.94H64.36C65.1467 26.94 65.7733 26.7533 66.24 26.38C66.7067 26.0067 66.94 25.5 66.94 24.86C66.94 24.22 66.7067 23.7133 66.24 23.34C65.7733 22.9667 65.1467 22.78 64.36 22.78H60.52V26.94ZM60.52 33.22H64.58C65.46 33.22 66.1533 33.0133 66.66 32.6C67.18 32.1867 67.44 31.6267 67.44 30.92C67.44 30.2267 67.18 29.6733 66.66 29.26C66.1533 28.8333 65.46 28.62 64.58 28.62H60.52V33.22ZM74.818 35.18C74.0846 35.18 73.438 35.0533 72.878 34.8C72.318 34.5333 71.878 34.1667 71.558 33.7C71.238 33.2333 71.078 32.6933 71.078 32.08C71.078 31.12 71.4446 30.3667 72.178 29.82C72.9113 29.26 73.918 28.98 75.198 28.98C76.198 28.98 77.1246 29.1733 77.978 29.56V28.48C77.978 27.7467 77.7646 27.2 77.338 26.84C76.9246 26.48 76.3113 26.3 75.498 26.3C75.0313 26.3 74.5446 26.3733 74.038 26.52C73.5313 26.6533 72.9646 26.8667 72.338 27.16L71.598 25.66C72.3713 25.3 73.0913 25.04 73.758 24.88C74.4246 24.7067 75.098 24.62 75.778 24.62C77.098 24.62 78.118 24.9333 78.838 25.56C79.5713 26.1867 79.938 27.08 79.938 28.24V35H77.978V34.12C77.5246 34.48 77.038 34.7467 76.518 34.92C75.998 35.0933 75.4313 35.18 74.818 35.18ZM72.998 32.04C72.998 32.5333 73.2046 32.9333 73.618 33.24C74.0446 33.5467 74.598 33.7 75.278 33.7C75.8113 33.7 76.298 33.62 76.738 33.46C77.1913 33.3 77.6046 33.0533 77.978 32.72V31C77.5913 30.7733 77.1846 30.6133 76.758 30.52C76.3446 30.4133 75.878 30.36 75.358 30.36C74.6246 30.36 74.0446 30.5133 73.618 30.82C73.2046 31.1133 72.998 31.52 72.998 32.04ZM82.2425 35V21L84.2425 20.62V35H82.2425ZM89.818 35.18C89.0846 35.18 88.438 35.0533 87.878 34.8C87.318 34.5333 86.878 34.1667 86.558 33.7C86.238 33.2333 86.078 32.6933 86.078 32.08C86.078 31.12 86.4446 30.3667 87.178 29.82C87.9113 29.26 88.918 28.98 90.198 28.98C91.198 28.98 92.1246 29.1733 92.978 29.56V28.48C92.978 27.7467 92.7646 27.2 92.338 26.84C91.9246 26.48 91.3113 26.3 90.498 26.3C90.0313 26.3 89.5446 26.3733 89.038 26.52C88.5313 26.6533 87.9646 26.8667 87.338 27.16L86.598 25.66C87.3713 25.3 88.0913 25.04 88.758 24.88C89.4246 24.7067 90.098 24.62 90.778 24.62C92.098 24.62 93.118 24.9333 93.838 25.56C94.5713 26.1867 94.938 27.08 94.938 28.24V35H92.978V34.12C92.5246 34.48 92.038 34.7467 91.518 34.92C90.998 35.0933 90.4313 35.18 89.818 35.18ZM87.998 32.04C87.998 32.5333 88.2046 32.9333 88.618 33.24C89.0446 33.5467 89.598 33.7 90.278 33.7C90.8113 33.7 91.298 33.62 91.738 33.46C92.1913 33.3 92.6046 33.0533 92.978 32.72V31C92.5913 30.7733 92.1846 30.6133 91.758 30.52C91.3446 30.4133 90.878 30.36 90.358 30.36C89.6246 30.36 89.0446 30.5133 88.618 30.82C88.2046 31.1133 87.998 31.52 87.998 32.04ZM97.2425 35V24.82H99.2425V25.86C100.029 25.0333 101.049 24.62 102.303 24.62C103.089 24.62 103.776 24.7867 104.363 25.12C104.963 25.4533 105.429 25.92 105.763 26.52C106.109 27.12 106.283 27.8133 106.283 28.6V35H104.283V28.94C104.283 28.14 104.056 27.5133 103.603 27.06C103.163 26.5933 102.543 26.36 101.743 26.36C101.209 26.36 100.729 26.4733 100.303 26.7C99.8758 26.9267 99.5225 27.2533 99.2425 27.68V35H97.2425ZM113.37 35.18C112.397 35.18 111.51 34.9467 110.71 34.48C109.91 34.0133 109.277 33.38 108.81 32.58C108.357 31.78 108.13 30.8867 108.13 29.9C108.13 28.9133 108.363 28.0267 108.83 27.24C109.297 26.44 109.923 25.8067 110.71 25.34C111.51 24.86 112.397 24.62 113.37 24.62C114.143 24.62 114.883 24.7667 115.59 25.06C116.31 25.3533 116.93 25.7667 117.45 26.3L116.21 27.68C115.823 27.2533 115.39 26.9333 114.91 26.72C114.43 26.5067 113.93 26.4 113.41 26.4C112.797 26.4 112.237 26.5533 111.73 26.86C111.237 27.1667 110.843 27.5867 110.55 28.12C110.257 28.6533 110.11 29.2467 110.11 29.9C110.11 30.5533 110.257 31.1467 110.55 31.68C110.843 32.2133 111.243 32.64 111.75 32.96C112.257 33.2667 112.823 33.42 113.45 33.42C113.97 33.42 114.457 33.32 114.91 33.12C115.363 32.9067 115.79 32.6 116.19 32.2L117.41 33.48C116.877 34.0267 116.257 34.4467 115.55 34.74C114.857 35.0333 114.13 35.18 113.37 35.18ZM123.607 35.18C122.607 35.18 121.7 34.9467 120.887 34.48C120.087 34.0133 119.447 33.38 118.967 32.58C118.5 31.78 118.267 30.8867 118.267 29.9C118.267 28.9267 118.494 28.0467 118.947 27.26C119.4 26.46 120.014 25.8267 120.787 25.36C121.56 24.88 122.42 24.64 123.367 24.64C124.314 24.64 125.154 24.88 125.887 25.36C126.62 25.8267 127.2 26.4667 127.627 27.28C128.067 28.08 128.287 28.9867 128.287 30V30.56H120.267C120.374 31.12 120.58 31.62 120.887 32.06C121.207 32.5 121.607 32.8467 122.087 33.1C122.58 33.3533 123.114 33.48 123.687 33.48C124.18 33.48 124.654 33.4067 125.107 33.26C125.574 33.1 125.96 32.8733 126.267 32.58L127.547 33.84C126.947 34.2933 126.327 34.6333 125.687 34.86C125.06 35.0733 124.367 35.18 123.607 35.18ZM120.287 29.06H126.307C126.227 28.5267 126.04 28.06 125.747 27.66C125.467 27.2467 125.114 26.9267 124.687 26.7C124.274 26.46 123.82 26.34 123.327 26.34C122.82 26.34 122.354 26.4533 121.927 26.68C121.5 26.9067 121.14 27.2267 120.847 27.64C120.567 28.04 120.38 28.5133 120.287 29.06Z" fill="black"/>
<path d="M231.104 30.764V28.676H239.744V30.764H231.104ZM243.749 36.5V22.172L240.725 23.444V21.332L244.613 19.7H246.125V36.5H243.749ZM248.848 36.5V34.82L255.664 27.572C256.128 27.092 256.488 26.66 256.744 26.276C257 25.892 257.176 25.532 257.272 25.196C257.384 24.844 257.44 24.476 257.44 24.092C257.44 23.34 257.136 22.716 256.528 22.22C255.92 21.724 255.152 21.476 254.224 21.476C253.456 21.476 252.736 21.628 252.064 21.932C251.392 22.236 250.648 22.764 249.832 23.516L248.536 21.932C249.432 21.1 250.352 20.476 251.296 20.06C252.256 19.644 253.248 19.436 254.272 19.436C255.344 19.436 256.288 19.628 257.104 20.012C257.92 20.396 258.552 20.932 259 21.62C259.464 22.292 259.696 23.068 259.696 23.948C259.696 24.508 259.624 25.028 259.48 25.508C259.336 25.972 259.088 26.468 258.736 26.996C258.384 27.508 257.888 28.1 257.248 28.772L251.776 34.532L260.032 34.508V36.5H248.848ZM269.048 36.764C267.64 36.764 266.408 36.404 265.352 35.684C264.296 34.948 263.464 33.932 262.856 32.636C262.264 31.324 261.968 29.812 261.968 28.1C261.968 26.388 262.264 24.884 262.856 23.588C263.464 22.276 264.296 21.26 265.352 20.54C266.408 19.804 267.64 19.436 269.048 19.436C270.44 19.436 271.664 19.804 272.72 20.54C273.776 21.26 274.6 22.276 275.192 23.588C275.8 24.884 276.104 26.388 276.104 28.1C276.104 29.812 275.8 31.324 275.192 32.636C274.6 33.932 273.776 34.948 272.72 35.684C271.664 36.404 270.44 36.764 269.048 36.764ZM269.048 34.676C270.008 34.676 270.84 34.412 271.544 33.884C272.248 33.34 272.792 32.572 273.176 31.58C273.56 30.588 273.752 29.428 273.752 28.1C273.752 26.756 273.56 25.596 273.176 24.62C272.792 23.628 272.248 22.868 271.544 22.34C270.84 21.796 270.008 21.524 269.048 21.524C268.088 21.524 267.256 21.796 266.552 22.34C265.848 22.868 265.296 23.628 264.896 24.62C264.512 25.596 264.32 26.756 264.32 28.1C264.32 29.428 264.512 30.588 264.896 31.58C265.296 32.572 265.848 33.34 266.552 33.884C267.256 34.412 268.088 34.676 269.048 34.676ZM290.646 36.764C289.19 36.764 287.926 36.46 286.854 35.852C285.782 35.244 284.958 34.388 284.382 33.284C283.806 32.164 283.518 30.844 283.518 29.324V19.7H286.038V29.324C286.038 30.364 286.222 31.268 286.59 32.036C286.974 32.804 287.51 33.396 288.198 33.812C288.902 34.228 289.718 34.436 290.646 34.436C291.606 34.436 292.43 34.228 293.118 33.812C293.806 33.396 294.334 32.804 294.702 32.036C295.086 31.268 295.278 30.364 295.278 29.324V19.7H297.798V29.324C297.798 30.844 297.502 32.164 296.91 33.284C296.334 34.388 295.51 35.244 294.438 35.852C293.366 36.46 292.102 36.764 290.646 36.764ZM306.603 36.74C305.259 36.74 303.963 36.476 302.715 35.948C301.467 35.42 300.363 34.676 299.403 33.716L300.939 31.94C301.851 32.836 302.779 33.5 303.723 33.932C304.683 34.364 305.683 34.58 306.723 34.58C307.539 34.58 308.251 34.468 308.859 34.244C309.483 34.004 309.963 33.668 310.299 33.236C310.635 32.804 310.803 32.316 310.803 31.772C310.803 31.02 310.539 30.444 310.011 30.044C309.483 29.644 308.611 29.34 307.395 29.132L304.587 28.676C303.051 28.404 301.899 27.908 301.131 27.188C300.379 26.468 300.003 25.508 300.003 24.308C300.003 23.348 300.259 22.508 300.771 21.788C301.283 21.052 302.003 20.484 302.931 20.084C303.875 19.684 304.963 19.484 306.195 19.484C307.411 19.484 308.603 19.684 309.771 20.084C310.955 20.468 312.019 21.028 312.963 21.764L311.571 23.684C309.763 22.308 307.931 21.62 306.075 21.62C305.339 21.62 304.699 21.724 304.155 21.932C303.611 22.14 303.187 22.436 302.883 22.82C302.579 23.188 302.427 23.62 302.427 24.116C302.427 24.804 302.659 25.332 303.123 25.7C303.587 26.052 304.355 26.308 305.427 26.468L308.139 26.924C309.915 27.212 311.219 27.732 312.051 28.484C312.883 29.236 313.299 30.268 313.299 31.58C313.299 32.604 313.019 33.508 312.459 34.292C311.899 35.06 311.115 35.66 310.107 36.092C309.099 36.524 307.931 36.74 306.603 36.74ZM318.154 34.244H321.61C322.49 34.244 323.306 34.092 324.058 33.788C324.81 33.468 325.466 33.036 326.026 32.492C326.602 31.932 327.042 31.284 327.346 30.548C327.666 29.796 327.826 28.98 327.826 28.1C327.826 27.236 327.666 26.428 327.346 25.676C327.042 24.924 326.602 24.276 326.026 23.732C325.466 23.172 324.81 22.74 324.058 22.436C323.306 22.116 322.49 21.956 321.61 21.956H318.154V34.244ZM315.634 36.5V19.7H321.562C322.826 19.7 323.994 19.916 325.066 20.348C326.138 20.764 327.074 21.348 327.874 22.1C328.674 22.852 329.298 23.74 329.746 24.764C330.194 25.788 330.418 26.9 330.418 28.1C330.418 29.316 330.194 30.436 329.746 31.46C329.314 32.468 328.698 33.348 327.898 34.1C327.098 34.852 326.154 35.444 325.066 35.876C323.994 36.292 322.826 36.5 321.562 36.5H315.634Z" fill="black"/>
<rect x="114" y="145" width="229" height="86" rx="10" fill="#137CF8"/>
<path d="M150.881 182V169.86H145.961V168H157.901V169.86H152.981V182H150.881ZM158.481 182V171.82H160.481V173.12C160.801 172.64 161.194 172.267 161.661 172C162.141 171.72 162.681 171.58 163.281 171.58C163.694 171.593 164.034 171.653 164.301 171.76V173.56C164.114 173.48 163.921 173.427 163.721 173.4C163.521 173.36 163.321 173.34 163.121 173.34C162.534 173.34 162.014 173.5 161.561 173.82C161.107 174.127 160.747 174.58 160.481 175.18V182H158.481ZM168.713 182.18C167.979 182.18 167.333 182.053 166.773 181.8C166.213 181.533 165.773 181.167 165.453 180.7C165.133 180.233 164.972 179.693 164.972 179.08C164.972 178.12 165.339 177.367 166.073 176.82C166.806 176.26 167.813 175.98 169.093 175.98C170.093 175.98 171.019 176.173 171.873 176.56V175.48C171.873 174.747 171.659 174.2 171.233 173.84C170.819 173.48 170.206 173.3 169.393 173.3C168.926 173.3 168.439 173.373 167.933 173.52C167.426 173.653 166.859 173.867 166.233 174.16L165.493 172.66C166.266 172.3 166.986 172.04 167.653 171.88C168.319 171.707 168.993 171.62 169.673 171.62C170.993 171.62 172.013 171.933 172.733 172.56C173.466 173.187 173.833 174.08 173.833 175.24V182H171.873V181.12C171.419 181.48 170.933 181.747 170.413 181.92C169.893 182.093 169.326 182.18 168.713 182.18ZM166.893 179.04C166.893 179.533 167.099 179.933 167.513 180.24C167.939 180.547 168.493 180.7 169.173 180.7C169.706 180.7 170.193 180.62 170.633 180.46C171.086 180.3 171.499 180.053 171.873 179.72V178C171.486 177.773 171.079 177.613 170.653 177.52C170.239 177.413 169.773 177.36 169.253 177.36C168.519 177.36 167.939 177.513 167.513 177.82C167.099 178.113 166.893 178.52 166.893 179.04ZM180.917 182.18C179.944 182.18 179.057 181.947 178.257 181.48C177.457 181.013 176.824 180.38 176.357 179.58C175.904 178.78 175.677 177.887 175.677 176.9C175.677 175.913 175.91 175.027 176.377 174.24C176.844 173.44 177.47 172.807 178.257 172.34C179.057 171.86 179.944 171.62 180.917 171.62C181.69 171.62 182.43 171.767 183.137 172.06C183.857 172.353 184.477 172.767 184.997 173.3L183.757 174.68C183.37 174.253 182.937 173.933 182.457 173.72C181.977 173.507 181.477 173.4 180.957 173.4C180.344 173.4 179.784 173.553 179.277 173.86C178.784 174.167 178.39 174.587 178.097 175.12C177.804 175.653 177.657 176.247 177.657 176.9C177.657 177.553 177.804 178.147 178.097 178.68C178.39 179.213 178.79 179.64 179.297 179.96C179.804 180.267 180.37 180.42 180.997 180.42C181.517 180.42 182.004 180.32 182.457 180.12C182.91 179.907 183.337 179.6 183.737 179.2L184.957 180.48C184.424 181.027 183.804 181.447 183.097 181.74C182.404 182.033 181.677 182.18 180.917 182.18ZM186.567 182V168L188.567 167.62V176.28L193.507 171.82H195.847L190.587 176.58L196.127 182H193.487L188.567 177.22V182H186.567ZM201.915 186.3C201.701 186.3 201.501 186.287 201.315 186.26C201.128 186.247 200.975 186.22 200.855 186.18V184.42C201.095 184.473 201.388 184.5 201.735 184.5C202.668 184.5 203.341 184 203.755 183L204.195 182.02L200.115 171.82H202.335L205.295 179.58L208.575 171.82H210.735L205.815 183.26C205.495 183.98 205.155 184.56 204.795 185C204.435 185.453 204.021 185.78 203.555 185.98C203.088 186.193 202.541 186.3 201.915 186.3ZM216.524 182.2C215.537 182.2 214.637 181.967 213.824 181.5C213.024 181.033 212.391 180.4 211.924 179.6C211.457 178.8 211.224 177.907 211.224 176.92C211.224 175.933 211.457 175.04 211.924 174.24C212.391 173.44 213.024 172.807 213.824 172.34C214.637 171.86 215.537 171.62 216.524 171.62C217.524 171.62 218.424 171.86 219.224 172.34C220.024 172.807 220.657 173.44 221.124 174.24C221.591 175.04 221.824 175.933 221.824 176.92C221.824 177.907 221.591 178.8 221.124 179.6C220.657 180.4 220.024 181.033 219.224 181.5C218.424 181.967 217.524 182.2 216.524 182.2ZM216.524 180.44C217.151 180.44 217.717 180.287 218.224 179.98C218.731 179.66 219.131 179.233 219.424 178.7C219.717 178.167 219.864 177.567 219.864 176.9C219.864 176.247 219.711 175.66 219.404 175.14C219.111 174.607 218.711 174.18 218.204 173.86C217.711 173.54 217.151 173.38 216.524 173.38C215.897 173.38 215.331 173.54 214.824 173.86C214.331 174.18 213.931 174.607 213.624 175.14C213.331 175.66 213.184 176.247 213.184 176.9C213.184 177.567 213.331 178.167 213.624 178.7C213.917 179.233 214.317 179.66 214.824 179.98C215.331 180.287 215.897 180.44 216.524 180.44ZM227.655 182.2C226.868 182.2 226.175 182.033 225.575 181.7C224.975 181.367 224.508 180.9 224.175 180.3C223.842 179.687 223.675 178.987 223.675 178.2V171.82H225.655V177.86C225.655 178.66 225.882 179.293 226.335 179.76C226.802 180.227 227.422 180.46 228.195 180.46C228.742 180.46 229.228 180.347 229.655 180.12C230.082 179.88 230.428 179.547 230.695 179.12V171.82H232.695V182H230.695V180.96C229.908 181.787 228.895 182.2 227.655 182.2ZM235.063 182V171.82H237.063V173.12C237.383 172.64 237.776 172.267 238.243 172C238.723 171.72 239.263 171.58 239.863 171.58C240.276 171.593 240.616 171.653 240.883 171.76V173.56C240.696 173.48 240.503 173.427 240.303 173.4C240.103 173.36 239.903 173.34 239.703 173.34C239.116 173.34 238.596 173.5 238.143 173.82C237.689 174.127 237.329 174.58 237.063 175.18V182H235.063ZM246.664 182V171.82H248.664V182H246.664ZM247.664 170.18C247.331 170.18 247.044 170.06 246.804 169.82C246.564 169.567 246.444 169.273 246.444 168.94C246.444 168.593 246.564 168.307 246.804 168.08C247.044 167.84 247.331 167.72 247.664 167.72C248.011 167.72 248.304 167.84 248.544 168.08C248.784 168.307 248.904 168.593 248.904 168.94C248.904 169.273 248.784 169.567 248.544 169.82C248.304 170.06 248.011 170.18 247.664 170.18ZM251.02 182V171.82H253.02V172.86C253.807 172.033 254.827 171.62 256.08 171.62C256.867 171.62 257.553 171.787 258.14 172.12C258.74 172.453 259.207 172.92 259.54 173.52C259.887 174.12 260.06 174.813 260.06 175.6V182H258.06V175.94C258.06 175.14 257.833 174.513 257.38 174.06C256.94 173.593 256.32 173.36 255.52 173.36C254.987 173.36 254.507 173.473 254.08 173.7C253.653 173.927 253.3 174.253 253.02 174.68V182H251.02ZM267.148 182.18C266.174 182.18 265.288 181.947 264.488 181.48C263.688 181.013 263.054 180.38 262.588 179.58C262.134 178.78 261.908 177.887 261.908 176.9C261.908 175.913 262.141 175.027 262.608 174.24C263.074 173.44 263.701 172.807 264.488 172.34C265.288 171.86 266.174 171.62 267.148 171.62C267.921 171.62 268.661 171.767 269.368 172.06C270.088 172.353 270.708 172.767 271.228 173.3L269.988 174.68C269.601 174.253 269.168 173.933 268.688 173.72C268.208 173.507 267.708 173.4 267.188 173.4C266.574 173.4 266.014 173.553 265.508 173.86C265.014 174.167 264.621 174.587 264.328 175.12C264.034 175.653 263.888 176.247 263.888 176.9C263.888 177.553 264.034 178.147 264.328 178.68C264.621 179.213 265.021 179.64 265.528 179.96C266.034 180.267 266.601 180.42 267.228 180.42C267.748 180.42 268.234 180.32 268.688 180.12C269.141 179.907 269.568 179.6 269.968 179.2L271.188 180.48C270.654 181.027 270.034 181.447 269.328 181.74C268.634 182.033 267.908 182.18 267.148 182.18ZM277.344 182.2C276.358 182.2 275.458 181.967 274.644 181.5C273.844 181.033 273.211 180.4 272.744 179.6C272.278 178.8 272.044 177.907 272.044 176.92C272.044 175.933 272.278 175.04 272.744 174.24C273.211 173.44 273.844 172.807 274.644 172.34C275.458 171.86 276.358 171.62 277.344 171.62C278.344 171.62 279.244 171.86 280.044 172.34C280.844 172.807 281.478 173.44 281.944 174.24C282.411 175.04 282.644 175.933 282.644 176.92C282.644 177.907 282.411 178.8 281.944 179.6C281.478 180.4 280.844 181.033 280.044 181.5C279.244 181.967 278.344 182.2 277.344 182.2ZM277.344 180.44C277.971 180.44 278.538 180.287 279.044 179.98C279.551 179.66 279.951 179.233 280.244 178.7C280.538 178.167 280.684 177.567 280.684 176.9C280.684 176.247 280.531 175.66 280.224 175.14C279.931 174.607 279.531 174.18 279.024 173.86C278.531 173.54 277.971 173.38 277.344 173.38C276.718 173.38 276.151 173.54 275.644 173.86C275.151 174.18 274.751 174.607 274.444 175.14C274.151 175.66 274.004 176.247 274.004 176.9C274.004 177.567 274.151 178.167 274.444 178.7C274.738 179.233 275.138 179.66 275.644 179.98C276.151 180.287 276.718 180.44 277.344 180.44ZM284.535 182V171.82H286.535V172.8C287.295 172.013 288.249 171.62 289.395 171.62C290.089 171.62 290.702 171.773 291.235 172.08C291.782 172.387 292.215 172.8 292.535 173.32C292.962 172.76 293.462 172.34 294.035 172.06C294.609 171.767 295.255 171.62 295.975 171.62C296.735 171.62 297.395 171.787 297.955 172.12C298.529 172.453 298.975 172.92 299.295 173.52C299.629 174.12 299.795 174.813 299.795 175.6V182H297.795V175.94C297.795 175.14 297.582 174.513 297.155 174.06C296.742 173.593 296.175 173.36 295.455 173.36C294.962 173.36 294.515 173.473 294.115 173.7C293.715 173.927 293.369 174.273 293.075 174.74C293.102 174.873 293.122 175.013 293.135 175.16C293.149 175.307 293.155 175.453 293.155 175.6V182H291.175V175.94C291.175 175.14 290.962 174.513 290.535 174.06C290.122 173.593 289.555 173.36 288.835 173.36C288.355 173.36 287.922 173.467 287.535 173.68C287.149 173.88 286.815 174.187 286.535 174.6V182H284.535ZM306.974 182.18C305.974 182.18 305.067 181.947 304.254 181.48C303.454 181.013 302.814 180.38 302.334 179.58C301.867 178.78 301.634 177.887 301.634 176.9C301.634 175.927 301.861 175.047 302.314 174.26C302.767 173.46 303.381 172.827 304.154 172.36C304.927 171.88 305.787 171.64 306.734 171.64C307.681 171.64 308.521 171.88 309.254 172.36C309.987 172.827 310.567 173.467 310.994 174.28C311.434 175.08 311.654 175.987 311.654 177V177.56H303.634C303.741 178.12 303.947 178.62 304.254 179.06C304.574 179.5 304.974 179.847 305.454 180.1C305.947 180.353 306.481 180.48 307.054 180.48C307.547 180.48 308.021 180.407 308.474 180.26C308.941 180.1 309.327 179.873 309.634 179.58L310.914 180.84C310.314 181.293 309.694 181.633 309.054 181.86C308.427 182.073 307.734 182.18 306.974 182.18ZM303.654 176.06H309.674C309.594 175.527 309.407 175.06 309.114 174.66C308.834 174.247 308.481 173.927 308.054 173.7C307.641 173.46 307.187 173.34 306.694 173.34C306.187 173.34 305.721 173.453 305.294 173.68C304.867 173.907 304.507 174.227 304.214 174.64C303.934 175.04 303.747 175.513 303.654 176.06ZM171.095 208.18C170.362 208.18 169.715 208.053 169.155 207.8C168.595 207.533 168.155 207.167 167.835 206.7C167.515 206.233 167.355 205.693 167.355 205.08C167.355 204.12 167.722 203.367 168.455 202.82C169.189 202.26 170.195 201.98 171.475 201.98C172.475 201.98 173.402 202.173 174.255 202.56V201.48C174.255 200.747 174.042 200.2 173.615 199.84C173.202 199.48 172.589 199.3 171.775 199.3C171.309 199.3 170.822 199.373 170.315 199.52C169.809 199.653 169.242 199.867 168.615 200.16L167.875 198.66C168.649 198.3 169.369 198.04 170.035 197.88C170.702 197.707 171.375 197.62 172.055 197.62C173.375 197.62 174.395 197.933 175.115 198.56C175.849 199.187 176.215 200.08 176.215 201.24V208H174.255V207.12C173.802 207.48 173.315 207.747 172.795 207.92C172.275 208.093 171.709 208.18 171.095 208.18ZM169.275 205.04C169.275 205.533 169.482 205.933 169.895 206.24C170.322 206.547 170.875 206.7 171.555 206.7C172.089 206.7 172.575 206.62 173.015 206.46C173.469 206.3 173.882 206.053 174.255 205.72V204C173.869 203.773 173.462 203.613 173.035 203.52C172.622 203.413 172.155 203.36 171.635 203.36C170.902 203.36 170.322 203.513 169.895 203.82C169.482 204.113 169.275 204.52 169.275 205.04ZM178.52 208V197.82H180.52V198.86C181.307 198.033 182.327 197.62 183.58 197.62C184.367 197.62 185.053 197.787 185.64 198.12C186.24 198.453 186.707 198.92 187.04 199.52C187.387 200.12 187.56 200.813 187.56 201.6V208H185.56V201.94C185.56 201.14 185.333 200.513 184.88 200.06C184.44 199.593 183.82 199.36 183.02 199.36C182.487 199.36 182.007 199.473 181.58 199.7C181.153 199.927 180.8 200.253 180.52 200.68V208H178.52ZM194.548 208.16C193.601 208.16 192.734 207.927 191.948 207.46C191.161 206.993 190.541 206.367 190.088 205.58C189.634 204.78 189.408 203.887 189.408 202.9C189.408 201.913 189.634 201.027 190.088 200.24C190.554 199.453 191.181 198.827 191.968 198.36C192.754 197.893 193.628 197.66 194.588 197.66C195.148 197.66 195.688 197.747 196.208 197.92C196.728 198.093 197.208 198.347 197.648 198.68V194L199.648 193.62V208H197.668V207.02C196.801 207.78 195.761 208.16 194.548 208.16ZM194.808 206.42C195.394 206.42 195.928 206.313 196.408 206.1C196.901 205.887 197.314 205.58 197.648 205.18V200.6C197.314 200.227 196.901 199.933 196.408 199.72C195.928 199.493 195.394 199.38 194.808 199.38C194.168 199.38 193.588 199.533 193.068 199.84C192.548 200.147 192.134 200.567 191.828 201.1C191.521 201.62 191.368 202.213 191.368 202.88C191.368 203.547 191.521 204.147 191.828 204.68C192.134 205.213 192.548 205.64 193.068 205.96C193.588 206.267 194.168 206.42 194.808 206.42ZM211.076 208.18C210.076 208.18 209.169 207.947 208.356 207.48C207.556 207.013 206.916 206.38 206.436 205.58C205.969 204.78 205.736 203.887 205.736 202.9C205.736 201.927 205.962 201.047 206.416 200.26C206.869 199.46 207.482 198.827 208.256 198.36C209.029 197.88 209.889 197.64 210.836 197.64C211.782 197.64 212.622 197.88 213.356 198.36C214.089 198.827 214.669 199.467 215.096 200.28C215.536 201.08 215.756 201.987 215.756 203V203.56H207.736C207.842 204.12 208.049 204.62 208.356 205.06C208.676 205.5 209.076 205.847 209.556 206.1C210.049 206.353 210.582 206.48 211.156 206.48C211.649 206.48 212.122 206.407 212.576 206.26C213.042 206.1 213.429 205.873 213.736 205.58L215.016 206.84C214.416 207.293 213.796 207.633 213.156 207.86C212.529 208.073 211.836 208.18 211.076 208.18ZM207.756 202.06H213.776C213.696 201.527 213.509 201.06 213.216 200.66C212.936 200.247 212.582 199.927 212.156 199.7C211.742 199.46 211.289 199.34 210.796 199.34C210.289 199.34 209.822 199.453 209.396 199.68C208.969 199.907 208.609 200.227 208.316 200.64C208.036 201.04 207.849 201.513 207.756 202.06ZM215.798 208L219.758 202.78L215.958 197.82H218.298L220.918 201.3L223.538 197.82H225.798L222.038 202.76L226.038 208H223.698L220.878 204.24L218.058 208H215.798ZM227.27 212.08V197.82H229.25V198.8C230.103 198.04 231.143 197.66 232.37 197.66C233.33 197.66 234.197 197.893 234.97 198.36C235.757 198.827 236.377 199.453 236.83 200.24C237.283 201.027 237.51 201.913 237.51 202.9C237.51 203.887 237.277 204.78 236.81 205.58C236.357 206.367 235.737 206.993 234.95 207.46C234.177 207.927 233.303 208.16 232.33 208.16C231.77 208.16 231.23 208.073 230.71 207.9C230.19 207.713 229.71 207.453 229.27 207.12V212.08H227.27ZM232.11 206.42C232.763 206.42 233.343 206.267 233.85 205.96C234.37 205.653 234.783 205.24 235.09 204.72C235.397 204.187 235.55 203.587 235.55 202.92C235.55 202.253 235.397 201.653 235.09 201.12C234.783 200.587 234.37 200.167 233.85 199.86C233.343 199.553 232.763 199.4 232.11 199.4C231.537 199.4 231.003 199.507 230.51 199.72C230.017 199.933 229.603 200.233 229.27 200.62V205.22C229.603 205.593 230.017 205.887 230.51 206.1C231.017 206.313 231.55 206.42 232.11 206.42ZM244.298 208.18C243.298 208.18 242.392 207.947 241.578 207.48C240.778 207.013 240.138 206.38 239.658 205.58C239.192 204.78 238.958 203.887 238.958 202.9C238.958 201.927 239.185 201.047 239.638 200.26C240.092 199.46 240.705 198.827 241.478 198.36C242.252 197.88 243.112 197.64 244.058 197.64C245.005 197.64 245.845 197.88 246.578 198.36C247.312 198.827 247.892 199.467 248.318 200.28C248.758 201.08 248.978 201.987 248.978 203V203.56H240.958C241.065 204.12 241.272 204.62 241.578 205.06C241.898 205.5 242.298 205.847 242.778 206.1C243.272 206.353 243.805 206.48 244.378 206.48C244.872 206.48 245.345 206.407 245.798 206.26C246.265 206.1 246.652 205.873 246.958 205.58L248.238 206.84C247.638 207.293 247.018 207.633 246.378 207.86C245.752 208.073 245.058 208.18 244.298 208.18ZM240.978 202.06H246.998C246.918 201.527 246.732 201.06 246.438 200.66C246.158 200.247 245.805 199.927 245.378 199.7C244.965 199.46 244.512 199.34 244.018 199.34C243.512 199.34 243.045 199.453 242.618 199.68C242.192 199.907 241.832 200.227 241.538 200.64C241.258 201.04 241.072 201.513 240.978 202.06ZM250.883 208V197.82H252.883V198.86C253.67 198.033 254.69 197.62 255.943 197.62C256.73 197.62 257.416 197.787 258.003 198.12C258.603 198.453 259.07 198.92 259.403 199.52C259.75 200.12 259.923 200.813 259.923 201.6V208H257.923V201.94C257.923 201.14 257.696 200.513 257.243 200.06C256.803 199.593 256.183 199.36 255.383 199.36C254.85 199.36 254.37 199.473 253.943 199.7C253.516 199.927 253.163 200.253 252.883 200.68V208H250.883ZM265.731 208.2C264.851 208.2 264.024 208.073 263.251 207.82C262.491 207.553 261.831 207.18 261.271 206.7L262.371 205.38C262.891 205.793 263.424 206.113 263.971 206.34C264.531 206.553 265.097 206.66 265.671 206.66C266.391 206.66 266.977 206.52 267.431 206.24C267.884 205.96 268.111 205.593 268.111 205.14C268.111 204.767 267.977 204.473 267.711 204.26C267.444 204.047 267.031 203.9 266.471 203.82L264.631 203.56C263.617 203.413 262.857 203.1 262.351 202.62C261.844 202.14 261.591 201.5 261.591 200.7C261.591 200.087 261.757 199.553 262.091 199.1C262.424 198.633 262.891 198.273 263.491 198.02C264.091 197.753 264.791 197.62 265.591 197.62C266.324 197.62 267.031 197.727 267.711 197.94C268.391 198.153 269.044 198.487 269.671 198.94L268.651 200.26C268.091 199.887 267.544 199.613 267.011 199.44C266.491 199.267 265.964 199.18 265.431 199.18C264.817 199.18 264.324 199.313 263.951 199.58C263.577 199.833 263.391 200.167 263.391 200.58C263.391 200.953 263.517 201.247 263.771 201.46C264.037 201.66 264.471 201.8 265.071 201.88L266.911 202.14C267.924 202.287 268.691 202.6 269.211 203.08C269.731 203.547 269.991 204.18 269.991 204.98C269.991 205.593 269.804 206.147 269.431 206.64C269.057 207.12 268.551 207.5 267.911 207.78C267.271 208.06 266.544 208.2 265.731 208.2ZM276.505 208.18C275.505 208.18 274.599 207.947 273.785 207.48C272.985 207.013 272.345 206.38 271.865 205.58C271.399 204.78 271.165 203.887 271.165 202.9C271.165 201.927 271.392 201.047 271.845 200.26C272.299 199.46 272.912 198.827 273.685 198.36C274.459 197.88 275.319 197.64 276.265 197.64C277.212 197.64 278.052 197.88 278.785 198.36C279.519 198.827 280.099 199.467 280.525 200.28C280.965 201.08 281.185 201.987 281.185 203V203.56H273.165C273.272 204.12 273.479 204.62 273.785 205.06C274.105 205.5 274.505 205.847 274.985 206.1C275.479 206.353 276.012 206.48 276.585 206.48C277.079 206.48 277.552 206.407 278.005 206.26C278.472 206.1 278.859 205.873 279.165 205.58L280.445 206.84C279.845 207.293 279.225 207.633 278.585 207.86C277.959 208.073 277.265 208.18 276.505 208.18ZM273.185 202.06H279.205C279.125 201.527 278.939 201.06 278.645 200.66C278.365 200.247 278.012 199.927 277.585 199.7C277.172 199.46 276.719 199.34 276.225 199.34C275.719 199.34 275.252 199.453 274.825 199.68C274.399 199.907 274.039 200.227 273.745 200.64C273.465 201.04 273.279 201.513 273.185 202.06ZM286.688 208.2C285.808 208.2 284.981 208.073 284.208 207.82C283.448 207.553 282.788 207.18 282.228 206.7L283.328 205.38C283.848 205.793 284.381 206.113 284.928 206.34C285.488 206.553 286.054 206.66 286.628 206.66C287.348 206.66 287.934 206.52 288.388 206.24C288.841 205.96 289.068 205.593 289.068 205.14C289.068 204.767 288.934 204.473 288.668 204.26C288.401 204.047 287.988 203.9 287.428 203.82L285.588 203.56C284.574 203.413 283.814 203.1 283.308 202.62C282.801 202.14 282.548 201.5 282.548 200.7C282.548 200.087 282.714 199.553 283.048 199.1C283.381 198.633 283.848 198.273 284.448 198.02C285.048 197.753 285.748 197.62 286.548 197.62C287.281 197.62 287.988 197.727 288.668 197.94C289.348 198.153 290.001 198.487 290.628 198.94L289.608 200.26C289.048 199.887 288.501 199.613 287.968 199.44C287.448 199.267 286.921 199.18 286.388 199.18C285.774 199.18 285.281 199.313 284.908 199.58C284.534 199.833 284.348 200.167 284.348 200.58C284.348 200.953 284.474 201.247 284.728 201.46C284.994 201.66 285.428 201.8 286.028 201.88L287.868 202.14C288.881 202.287 289.648 202.6 290.168 203.08C290.688 203.547 290.948 204.18 290.948 204.98C290.948 205.593 290.761 206.147 290.388 206.64C290.014 207.12 289.508 207.5 288.868 207.78C288.228 208.06 287.501 208.2 286.688 208.2Z" fill="white"/>
<path d="M98.9469 59.5419C98.6939 58.4667 97.6172 57.8002 96.542 58.0532L79.0204 62.1759C77.9452 62.4289 77.2787 63.5056 77.5317 64.5808C77.7847 65.656 78.8614 66.3225 79.9366 66.0695L95.5113 62.4049L99.1759 77.9796C99.4289 79.0548 100.506 79.7213 101.581 79.4683C102.656 79.2154 103.323 78.1386 103.07 77.0634L98.9469 59.5419ZM113.581 185.835C114.661 186.066 115.724 185.378 115.956 184.298C116.187 183.218 115.499 182.155 114.419 181.924L113.581 185.835ZM95.2995 58.9473C82.3228 79.9097 67.1794 107.164 65.0701 131.374C64.0082 143.562 66.2324 155.152 73.8465 164.762C81.442 174.347 94.1807 181.681 113.581 185.835L114.419 181.924C95.5693 177.888 83.808 170.892 76.9816 162.277C70.1739 153.686 68.0544 143.205 69.055 131.721C71.0706 108.586 85.6773 82.0903 98.7006 61.0527L95.2995 58.9473Z" fill="white"/>
</svg>
