<svg width="337" height="213" viewBox="0 0 337 213" fill="none" xmlns="http://www.w3.org/2000/svg">
<rect x="190" y="162" width="147" height="51" rx="10" fill="white"/>
<path d="M250.12 195.22C248.907 195.22 247.853 194.967 246.96 194.46C246.067 193.953 245.38 193.24 244.9 192.32C244.42 191.387 244.18 190.287 244.18 189.02V181H246.28V189.02C246.28 189.887 246.433 190.64 246.74 191.28C247.06 191.92 247.507 192.413 248.08 192.76C248.667 193.107 249.347 193.28 250.12 193.28C250.92 193.28 251.607 193.107 252.18 192.76C252.753 192.413 253.193 191.92 253.5 191.28C253.82 190.64 253.98 189.887 253.98 189.02V181H256.08V189.02C256.08 190.287 255.833 191.387 255.34 192.32C254.86 193.24 254.173 193.953 253.28 194.46C252.387 194.967 251.333 195.22 250.12 195.22ZM263.418 195.2C262.298 195.2 261.218 194.98 260.178 194.54C259.138 194.1 258.218 193.48 257.418 192.68L258.698 191.2C259.458 191.947 260.231 192.5 261.018 192.86C261.818 193.22 262.651 193.4 263.518 193.4C264.198 193.4 264.791 193.307 265.298 193.12C265.818 192.92 266.218 192.64 266.498 192.28C266.778 191.92 266.918 191.513 266.918 191.06C266.918 190.433 266.698 189.953 266.258 189.62C265.818 189.287 265.091 189.033 264.078 188.86L261.738 188.48C260.458 188.253 259.498 187.84 258.858 187.24C258.231 186.64 257.918 185.84 257.918 184.84C257.918 184.04 258.131 183.34 258.558 182.74C258.984 182.127 259.584 181.653 260.358 181.32C261.144 180.987 262.051 180.82 263.078 180.82C264.091 180.82 265.084 180.987 266.058 181.32C267.044 181.64 267.931 182.107 268.718 182.72L267.558 184.32C266.051 183.173 264.524 182.6 262.978 182.6C262.364 182.6 261.831 182.687 261.378 182.86C260.924 183.033 260.571 183.28 260.318 183.6C260.064 183.907 259.938 184.267 259.938 184.68C259.938 185.253 260.131 185.693 260.518 186C260.904 186.293 261.544 186.507 262.438 186.64L264.698 187.02C266.178 187.26 267.264 187.693 267.958 188.32C268.651 188.947 268.998 189.807 268.998 190.9C268.998 191.753 268.764 192.507 268.298 193.16C267.831 193.8 267.178 194.3 266.338 194.66C265.498 195.02 264.524 195.2 263.418 195.2ZM273.043 193.12H275.923C276.657 193.12 277.337 192.993 277.963 192.74C278.59 192.473 279.137 192.113 279.603 191.66C280.083 191.193 280.45 190.653 280.703 190.04C280.97 189.413 281.103 188.733 281.103 188C281.103 187.28 280.97 186.607 280.703 185.98C280.45 185.353 280.083 184.813 279.603 184.36C279.137 183.893 278.59 183.533 277.963 183.28C277.337 183.013 276.657 182.88 275.923 182.88H273.043V193.12ZM270.943 195V181H275.883C276.937 181 277.91 181.18 278.803 181.54C279.697 181.887 280.477 182.373 281.143 183C281.81 183.627 282.33 184.367 282.703 185.22C283.077 186.073 283.263 187 283.263 188C283.263 189.013 283.077 189.947 282.703 190.8C282.343 191.64 281.83 192.373 281.163 193C280.497 193.627 279.71 194.12 278.803 194.48C277.91 194.827 276.937 195 275.883 195H270.943Z" fill="black"/>
<rect width="306" height="86" rx="10" fill="#137CF8"/>
<path d="M41.3006 37.2C40.1806 37.2 39.1006 36.98 38.0606 36.54C37.0206 36.1 36.1006 35.48 35.3006 34.68L36.5806 33.2C37.3406 33.9467 38.114 34.5 38.9006 34.86C39.7006 35.22 40.534 35.4 41.4006 35.4C42.0806 35.4 42.674 35.3067 43.1806 35.12C43.7006 34.92 44.1006 34.64 44.3806 34.28C44.6606 33.92 44.8006 33.5133 44.8006 33.06C44.8006 32.4333 44.5806 31.9533 44.1406 31.62C43.7006 31.2867 42.974 31.0333 41.9606 30.86L39.6206 30.48C38.3406 30.2533 37.3806 29.84 36.7406 29.24C36.114 28.64 35.8006 27.84 35.8006 26.84C35.8006 26.04 36.014 25.34 36.4406 24.74C36.8673 24.1267 37.4673 23.6533 38.2406 23.32C39.0273 22.9867 39.934 22.82 40.9606 22.82C41.974 22.82 42.9673 22.9867 43.9406 23.32C44.9273 23.64 45.814 24.1067 46.6006 24.72L45.4406 26.32C43.934 25.1733 42.4073 24.6 40.8606 24.6C40.2473 24.6 39.714 24.6867 39.2606 24.86C38.8073 25.0333 38.454 25.28 38.2006 25.6C37.9473 25.9067 37.8206 26.2667 37.8206 26.68C37.8206 27.2533 38.014 27.6933 38.4006 28C38.7873 28.2933 39.4273 28.5067 40.3206 28.64L42.5806 29.02C44.0606 29.26 45.1473 29.6933 45.8406 30.32C46.534 30.9467 46.8806 31.8067 46.8806 32.9C46.8806 33.7533 46.6473 34.5067 46.1806 35.16C45.714 35.8 45.0606 36.3 44.2206 36.66C43.3806 37.02 42.4073 37.2 41.3006 37.2ZM53.6616 37.18C52.6616 37.18 51.7549 36.9467 50.9416 36.48C50.1416 36.0133 49.5016 35.38 49.0216 34.58C48.5549 33.78 48.3216 32.8867 48.3216 31.9C48.3216 30.9267 48.5482 30.0467 49.0016 29.26C49.4549 28.46 50.0682 27.8267 50.8416 27.36C51.6149 26.88 52.4749 26.64 53.4216 26.64C54.3682 26.64 55.2082 26.88 55.9416 27.36C56.6749 27.8267 57.2549 28.4667 57.6816 29.28C58.1216 30.08 58.3416 30.9867 58.3416 32V32.56H50.3216C50.4282 33.12 50.6349 33.62 50.9416 34.06C51.2616 34.5 51.6616 34.8467 52.1416 35.1C52.6349 35.3533 53.1682 35.48 53.7416 35.48C54.2349 35.48 54.7082 35.4067 55.1616 35.26C55.6282 35.1 56.0149 34.8733 56.3216 34.58L57.6016 35.84C57.0016 36.2933 56.3816 36.6333 55.7416 36.86C55.1149 37.0733 54.4216 37.18 53.6616 37.18ZM50.3416 31.06H56.3616C56.2816 30.5267 56.0949 30.06 55.8016 29.66C55.5216 29.2467 55.1682 28.9267 54.7416 28.7C54.3282 28.46 53.8749 28.34 53.3816 28.34C52.8749 28.34 52.4082 28.4533 51.9816 28.68C51.5549 28.9067 51.1949 29.2267 50.9016 29.64C50.6216 30.04 50.4349 30.5133 50.3416 31.06ZM60.2464 37V23L62.2464 22.62V37H60.2464ZM69.4819 37.18C68.4819 37.18 67.5752 36.9467 66.7619 36.48C65.9619 36.0133 65.3219 35.38 64.8419 34.58C64.3752 33.78 64.1419 32.8867 64.1419 31.9C64.1419 30.9267 64.3685 30.0467 64.8219 29.26C65.2752 28.46 65.8885 27.8267 66.6619 27.36C67.4352 26.88 68.2952 26.64 69.2419 26.64C70.1885 26.64 71.0285 26.88 71.7619 27.36C72.4952 27.8267 73.0752 28.4667 73.5019 29.28C73.9419 30.08 74.1619 30.9867 74.1619 32V32.56H66.1419C66.2485 33.12 66.4552 33.62 66.7619 34.06C67.0819 34.5 67.4819 34.8467 67.9619 35.1C68.4552 35.3533 68.9885 35.48 69.5619 35.48C70.0552 35.48 70.5285 35.4067 70.9819 35.26C71.4485 35.1 71.8352 34.8733 72.1419 34.58L73.4219 35.84C72.8219 36.2933 72.2019 36.6333 71.5619 36.86C70.9352 37.0733 70.2419 37.18 69.4819 37.18ZM66.1619 31.06H72.1819C72.1019 30.5267 71.9152 30.06 71.6219 29.66C71.3419 29.2467 70.9885 28.9267 70.5619 28.7C70.1485 28.46 69.6952 28.34 69.2019 28.34C68.6952 28.34 68.2285 28.4533 67.8019 28.68C67.3752 28.9067 67.0152 29.2267 66.7219 29.64C66.4419 30.04 66.2552 30.5133 66.1619 31.06ZM80.8858 37.18C79.9124 37.18 79.0258 36.9467 78.2258 36.48C77.4258 36.0133 76.7924 35.38 76.3258 34.58C75.8724 33.78 75.6458 32.8867 75.6458 31.9C75.6458 30.9133 75.8791 30.0267 76.3458 29.24C76.8124 28.44 77.4391 27.8067 78.2258 27.34C79.0258 26.86 79.9124 26.62 80.8858 26.62C81.6591 26.62 82.3991 26.7667 83.1058 27.06C83.8258 27.3533 84.4458 27.7667 84.9658 28.3L83.7258 29.68C83.3391 29.2533 82.9058 28.9333 82.4258 28.72C81.9458 28.5067 81.4458 28.4 80.9258 28.4C80.3124 28.4 79.7524 28.5533 79.2458 28.86C78.7524 29.1667 78.3591 29.5867 78.0658 30.12C77.7724 30.6533 77.6258 31.2467 77.6258 31.9C77.6258 32.5533 77.7724 33.1467 78.0658 33.68C78.3591 34.2133 78.7591 34.64 79.2658 34.96C79.7724 35.2667 80.3391 35.42 80.9658 35.42C81.4858 35.42 81.9724 35.32 82.4258 35.12C82.8791 34.9067 83.3058 34.6 83.7058 34.2L84.9258 35.48C84.3924 36.0267 83.7724 36.4467 83.0658 36.74C82.3724 37.0333 81.6458 37.18 80.8858 37.18ZM91.0908 37.18C90.1041 37.18 89.3508 36.9533 88.8308 36.5C88.3108 36.0333 88.0508 35.36 88.0508 34.48V28.5H85.8908V26.82H88.0508V24.22L90.0308 23.74V26.82H93.0308V28.5H90.0308V34.02C90.0308 34.54 90.1441 34.9133 90.3708 35.14C90.6108 35.3533 90.9974 35.46 91.5308 35.46C91.8108 35.46 92.0574 35.44 92.2708 35.4C92.4974 35.36 92.7374 35.3 92.9908 35.22V36.9C92.7241 36.9933 92.4108 37.06 92.0508 37.1C91.7041 37.1533 91.3841 37.18 91.0908 37.18ZM103.044 37.18C102.057 37.18 101.304 36.9533 100.784 36.5C100.264 36.0333 100.004 35.36 100.004 34.48V28.5H97.8439V26.82H100.004V24.22L101.984 23.74V26.82H104.984V28.5H101.984V34.02C101.984 34.54 102.097 34.9133 102.324 35.14C102.564 35.3533 102.951 35.46 103.484 35.46C103.764 35.46 104.011 35.44 104.224 35.4C104.451 35.36 104.691 35.3 104.944 35.22V36.9C104.677 36.9933 104.364 37.06 104.004 37.1C103.657 37.1533 103.337 37.18 103.044 37.18ZM106.457 37V23L108.457 22.56V27.86C109.244 27.0333 110.264 26.62 111.517 26.62C112.304 26.62 112.991 26.7867 113.577 27.12C114.177 27.4533 114.644 27.92 114.977 28.52C115.324 29.12 115.497 29.8133 115.497 30.6V37H113.497V30.94C113.497 30.14 113.271 29.5133 112.817 29.06C112.364 28.5933 111.744 28.36 110.957 28.36C110.424 28.36 109.944 28.4733 109.517 28.7C109.091 28.9267 108.737 29.2533 108.457 29.68V37H106.457ZM122.685 37.18C121.685 37.18 120.778 36.9467 119.965 36.48C119.165 36.0133 118.525 35.38 118.045 34.58C117.578 33.78 117.345 32.8867 117.345 31.9C117.345 30.9267 117.572 30.0467 118.025 29.26C118.478 28.46 119.092 27.8267 119.865 27.36C120.638 26.88 121.498 26.64 122.445 26.64C123.392 26.64 124.232 26.88 124.965 27.36C125.698 27.8267 126.278 28.4667 126.705 29.28C127.145 30.08 127.365 30.9867 127.365 32V32.56H119.345C119.452 33.12 119.658 33.62 119.965 34.06C120.285 34.5 120.685 34.8467 121.165 35.1C121.658 35.3533 122.192 35.48 122.765 35.48C123.258 35.48 123.732 35.4067 124.185 35.26C124.652 35.1 125.038 34.8733 125.345 34.58L126.625 35.84C126.025 36.2933 125.405 36.6333 124.765 36.86C124.138 37.0733 123.445 37.18 122.685 37.18ZM119.365 31.06H125.385C125.305 30.5267 125.118 30.06 124.825 29.66C124.545 29.2467 124.192 28.9267 123.765 28.7C123.352 28.46 122.898 28.34 122.405 28.34C121.898 28.34 121.432 28.4533 121.005 28.68C120.578 28.9067 120.218 29.2267 119.925 29.64C119.645 30.04 119.458 30.5133 119.365 31.06ZM136.67 37.18C135.936 37.18 135.29 37.0533 134.73 36.8C134.17 36.5333 133.73 36.1667 133.41 35.7C133.09 35.2333 132.93 34.6933 132.93 34.08C132.93 33.12 133.296 32.3667 134.03 31.82C134.763 31.26 135.77 30.98 137.05 30.98C138.05 30.98 138.976 31.1733 139.83 31.56V30.48C139.83 29.7467 139.616 29.2 139.19 28.84C138.776 28.48 138.163 28.3 137.35 28.3C136.883 28.3 136.396 28.3733 135.89 28.52C135.383 28.6533 134.816 28.8667 134.19 29.16L133.45 27.66C134.223 27.3 134.943 27.04 135.61 26.88C136.276 26.7067 136.95 26.62 137.63 26.62C138.95 26.62 139.97 26.9333 140.69 27.56C141.423 28.1867 141.79 29.08 141.79 30.24V37H139.83V36.12C139.376 36.48 138.89 36.7467 138.37 36.92C137.85 37.0933 137.283 37.18 136.67 37.18ZM134.85 34.04C134.85 34.5333 135.056 34.9333 135.47 35.24C135.896 35.5467 136.45 35.7 137.13 35.7C137.663 35.7 138.15 35.62 138.59 35.46C139.043 35.3 139.456 35.0533 139.83 34.72V33C139.443 32.7733 139.036 32.6133 138.61 32.52C138.196 32.4133 137.73 32.36 137.21 32.36C136.476 32.36 135.896 32.5133 135.47 32.82C135.056 33.1133 134.85 33.52 134.85 34.04ZM148.874 37.18C147.901 37.18 147.014 36.9467 146.214 36.48C145.414 36.0133 144.781 35.38 144.314 34.58C143.861 33.78 143.634 32.8867 143.634 31.9C143.634 30.9133 143.867 30.0267 144.334 29.24C144.801 28.44 145.427 27.8067 146.214 27.34C147.014 26.86 147.901 26.62 148.874 26.62C149.647 26.62 150.387 26.7667 151.094 27.06C151.814 27.3533 152.434 27.7667 152.954 28.3L151.714 29.68C151.327 29.2533 150.894 28.9333 150.414 28.72C149.934 28.5067 149.434 28.4 148.914 28.4C148.301 28.4 147.741 28.5533 147.234 28.86C146.741 29.1667 146.347 29.5867 146.054 30.12C145.761 30.6533 145.614 31.2467 145.614 31.9C145.614 32.5533 145.761 33.1467 146.054 33.68C146.347 34.2133 146.747 34.64 147.254 34.96C147.761 35.2667 148.327 35.42 148.954 35.42C149.474 35.42 149.961 35.32 150.414 35.12C150.867 34.9067 151.294 34.6 151.694 34.2L152.914 35.48C152.381 36.0267 151.761 36.4467 151.054 36.74C150.361 37.0333 149.634 37.18 148.874 37.18ZM159.079 37.18C158.092 37.18 157.339 36.9533 156.819 36.5C156.299 36.0333 156.039 35.36 156.039 34.48V28.5H153.879V26.82H156.039V24.22L158.019 23.74V26.82H161.019V28.5H158.019V34.02C158.019 34.54 158.132 34.9133 158.359 35.14C158.599 35.3533 158.986 35.46 159.519 35.46C159.799 35.46 160.046 35.44 160.259 35.4C160.486 35.36 160.726 35.3 160.979 35.22V36.9C160.712 36.9933 160.399 37.06 160.039 37.1C159.692 37.1533 159.372 37.18 159.079 37.18ZM166.433 37.2C165.646 37.2 164.953 37.0333 164.353 36.7C163.753 36.3667 163.286 35.9 162.953 35.3C162.619 34.6867 162.453 33.9867 162.453 33.2V26.82H164.433V32.86C164.433 33.66 164.659 34.2933 165.113 34.76C165.579 35.2267 166.199 35.46 166.973 35.46C167.519 35.46 168.006 35.3467 168.433 35.12C168.859 34.88 169.206 34.5467 169.473 34.12V26.82H171.473V37H169.473V35.96C168.686 36.7867 167.673 37.2 166.433 37.2ZM177.06 37.18C176.327 37.18 175.68 37.0533 175.12 36.8C174.56 36.5333 174.12 36.1667 173.8 35.7C173.48 35.2333 173.32 34.6933 173.32 34.08C173.32 33.12 173.687 32.3667 174.42 31.82C175.153 31.26 176.16 30.98 177.44 30.98C178.44 30.98 179.367 31.1733 180.22 31.56V30.48C180.22 29.7467 180.007 29.2 179.58 28.84C179.167 28.48 178.553 28.3 177.74 28.3C177.273 28.3 176.787 28.3733 176.28 28.52C175.773 28.6533 175.207 28.8667 174.58 29.16L173.84 27.66C174.613 27.3 175.333 27.04 176 26.88C176.667 26.7067 177.34 26.62 178.02 26.62C179.34 26.62 180.36 26.9333 181.08 27.56C181.813 28.1867 182.18 29.08 182.18 30.24V37H180.22V36.12C179.767 36.48 179.28 36.7467 178.76 36.92C178.24 37.0933 177.673 37.18 177.06 37.18ZM175.24 34.04C175.24 34.5333 175.447 34.9333 175.86 35.24C176.287 35.5467 176.84 35.7 177.52 35.7C178.053 35.7 178.54 35.62 178.98 35.46C179.433 35.3 179.847 35.0533 180.22 34.72V33C179.833 32.7733 179.427 32.6133 179 32.52C178.587 32.4133 178.12 32.36 177.6 32.36C176.867 32.36 176.287 32.5133 175.86 32.82C175.447 33.1133 175.24 33.52 175.24 34.04ZM184.485 37V23L186.485 22.62V37H184.485ZM197.8 37.18C196.827 37.18 195.94 36.9467 195.14 36.48C194.34 36.0133 193.707 35.38 193.24 34.58C192.787 33.78 192.56 32.8867 192.56 31.9C192.56 30.9133 192.793 30.0267 193.26 29.24C193.727 28.44 194.353 27.8067 195.14 27.34C195.94 26.86 196.827 26.62 197.8 26.62C198.573 26.62 199.313 26.7667 200.02 27.06C200.74 27.3533 201.36 27.7667 201.88 28.3L200.64 29.68C200.253 29.2533 199.82 28.9333 199.34 28.72C198.86 28.5067 198.36 28.4 197.84 28.4C197.227 28.4 196.667 28.5533 196.16 28.86C195.667 29.1667 195.273 29.5867 194.98 30.12C194.687 30.6533 194.54 31.2467 194.54 31.9C194.54 32.5533 194.687 33.1467 194.98 33.68C195.273 34.2133 195.673 34.64 196.18 34.96C196.687 35.2667 197.253 35.42 197.88 35.42C198.4 35.42 198.887 35.32 199.34 35.12C199.793 34.9067 200.22 34.6 200.62 34.2L201.84 35.48C201.307 36.0267 200.687 36.4467 199.98 36.74C199.287 37.0333 198.56 37.18 197.8 37.18ZM207.39 37.2C206.603 37.2 205.91 37.0333 205.31 36.7C204.71 36.3667 204.243 35.9 203.91 35.3C203.576 34.6867 203.41 33.9867 203.41 33.2V26.82H205.39V32.86C205.39 33.66 205.616 34.2933 206.07 34.76C206.536 35.2267 207.156 35.46 207.93 35.46C208.476 35.46 208.963 35.3467 209.39 35.12C209.816 34.88 210.163 34.5467 210.43 34.12V26.82H212.43V37H210.43V35.96C209.643 36.7867 208.63 37.2 207.39 37.2ZM214.797 37V26.82H216.797V28.12C217.117 27.64 217.511 27.2667 217.977 27C218.457 26.72 218.997 26.58 219.597 26.58C220.011 26.5933 220.351 26.6533 220.617 26.76V28.56C220.431 28.48 220.237 28.4267 220.037 28.4C219.837 28.36 219.637 28.34 219.437 28.34C218.851 28.34 218.331 28.5 217.877 28.82C217.424 29.1267 217.064 29.58 216.797 30.18V37H214.797ZM222.219 37V26.82H224.219V28.12C224.539 27.64 224.932 27.2667 225.399 27C225.879 26.72 226.419 26.58 227.019 26.58C227.432 26.5933 227.772 26.6533 228.039 26.76V28.56C227.852 28.48 227.659 28.4267 227.459 28.4C227.259 28.36 227.059 28.34 226.859 28.34C226.272 28.34 225.752 28.5 225.299 28.82C224.846 29.1267 224.486 29.58 224.219 30.18V37H222.219ZM233.935 37.18C232.935 37.18 232.028 36.9467 231.215 36.48C230.415 36.0133 229.775 35.38 229.295 34.58C228.828 33.78 228.595 32.8867 228.595 31.9C228.595 30.9267 228.822 30.0467 229.275 29.26C229.728 28.46 230.342 27.8267 231.115 27.36C231.888 26.88 232.748 26.64 233.695 26.64C234.642 26.64 235.482 26.88 236.215 27.36C236.948 27.8267 237.528 28.4667 237.955 29.28C238.395 30.08 238.615 30.9867 238.615 32V32.56H230.595C230.702 33.12 230.908 33.62 231.215 34.06C231.535 34.5 231.935 34.8467 232.415 35.1C232.908 35.3533 233.442 35.48 234.015 35.48C234.508 35.48 234.982 35.4067 235.435 35.26C235.902 35.1 236.288 34.8733 236.595 34.58L237.875 35.84C237.275 36.2933 236.655 36.6333 236.015 36.86C235.388 37.0733 234.695 37.18 233.935 37.18ZM230.615 31.06H236.635C236.555 30.5267 236.368 30.06 236.075 29.66C235.795 29.2467 235.442 28.9267 235.015 28.7C234.602 28.46 234.148 28.34 233.655 28.34C233.148 28.34 232.682 28.4533 232.255 28.68C231.828 28.9067 231.468 29.2267 231.175 29.64C230.895 30.04 230.708 30.5133 230.615 31.06ZM240.52 37V26.82H242.52V27.86C243.307 27.0333 244.327 26.62 245.58 26.62C246.367 26.62 247.053 26.7867 247.64 27.12C248.24 27.4533 248.707 27.92 249.04 28.52C249.387 29.12 249.56 29.8133 249.56 30.6V37H247.56V30.94C247.56 30.14 247.333 29.5133 246.88 29.06C246.44 28.5933 245.82 28.36 245.02 28.36C244.487 28.36 244.007 28.4733 243.58 28.7C243.153 28.9267 242.8 29.2533 242.52 29.68V37H240.52ZM256.648 37.18C255.674 37.18 254.788 36.9467 253.988 36.48C253.188 36.0133 252.554 35.38 252.088 34.58C251.634 33.78 251.408 32.8867 251.408 31.9C251.408 30.9133 251.641 30.0267 252.108 29.24C252.574 28.44 253.201 27.8067 253.988 27.34C254.788 26.86 255.674 26.62 256.648 26.62C257.421 26.62 258.161 26.7667 258.868 27.06C259.588 27.3533 260.208 27.7667 260.728 28.3L259.488 29.68C259.101 29.2533 258.668 28.9333 258.188 28.72C257.708 28.5067 257.208 28.4 256.688 28.4C256.074 28.4 255.514 28.5533 255.008 28.86C254.514 29.1667 254.121 29.5867 253.828 30.12C253.534 30.6533 253.388 31.2467 253.388 31.9C253.388 32.5533 253.534 33.1467 253.828 33.68C254.121 34.2133 254.521 34.64 255.028 34.96C255.534 35.2667 256.101 35.42 256.728 35.42C257.248 35.42 257.734 35.32 258.188 35.12C258.641 34.9067 259.068 34.6 259.468 34.2L260.688 35.48C260.154 36.0267 259.534 36.4467 258.828 36.74C258.134 37.0333 257.408 37.18 256.648 37.18ZM262.977 41.3C262.764 41.3 262.564 41.2867 262.377 41.26C262.191 41.2467 262.037 41.22 261.917 41.18V39.42C262.157 39.4733 262.451 39.5 262.797 39.5C263.731 39.5 264.404 39 264.817 38L265.257 37.02L261.177 26.82H263.397L266.357 34.58L269.637 26.82H271.797L266.877 38.26C266.557 38.98 266.217 39.56 265.857 40C265.497 40.4533 265.084 40.78 264.617 40.98C264.151 41.1933 263.604 41.3 262.977 41.3ZM75.3696 63.2C74.3829 63.2 73.4829 62.9667 72.6696 62.5C71.8696 62.0333 71.2363 61.4 70.7696 60.6C70.3029 59.8 70.0696 58.9067 70.0696 57.92C70.0696 56.9333 70.3029 56.04 70.7696 55.24C71.2363 54.44 71.8696 53.8067 72.6696 53.34C73.4829 52.86 74.3829 52.62 75.3696 52.62C76.3696 52.62 77.2696 52.86 78.0696 53.34C78.8696 53.8067 79.5029 54.44 79.9696 55.24C80.4363 56.04 80.6696 56.9333 80.6696 57.92C80.6696 58.9067 80.4363 59.8 79.9696 60.6C79.5029 61.4 78.8696 62.0333 78.0696 62.5C77.2696 62.9667 76.3696 63.2 75.3696 63.2ZM75.3696 61.44C75.9963 61.44 76.5629 61.2867 77.0696 60.98C77.5763 60.66 77.9763 60.2333 78.2696 59.7C78.5629 59.1667 78.7096 58.5667 78.7096 57.9C78.7096 57.2467 78.5563 56.66 78.2496 56.14C77.9563 55.6067 77.5563 55.18 77.0496 54.86C76.5563 54.54 75.9963 54.38 75.3696 54.38C74.7429 54.38 74.1763 54.54 73.6696 54.86C73.1763 55.18 72.7763 55.6067 72.4696 56.14C72.1763 56.66 72.0296 57.2467 72.0296 57.9C72.0296 58.5667 72.1763 59.1667 72.4696 59.7C72.7629 60.2333 73.1629 60.66 73.6696 60.98C74.1763 61.2867 74.7429 61.44 75.3696 61.44ZM83.4949 63V54.5H81.1349V52.82H83.4949V51.28C83.4949 50.2133 83.7883 49.4 84.3749 48.84C84.9749 48.28 85.8283 48 86.9349 48C87.2149 48 87.4749 48.02 87.7149 48.06C87.9683 48.0867 88.1949 48.1333 88.3949 48.2V49.92C88.1549 49.8533 87.9416 49.8067 87.7549 49.78C87.5683 49.74 87.3616 49.72 87.1349 49.72C86.5749 49.72 86.1549 49.8533 85.8749 50.12C85.6083 50.3733 85.4749 50.78 85.4749 51.34V52.82H88.3949V54.5H85.4749V63H83.4949ZM98.4638 63.18C97.4772 63.18 96.7238 62.9533 96.2038 62.5C95.6838 62.0333 95.4238 61.36 95.4238 60.48V54.5H93.2638V52.82H95.4238V50.22L97.4038 49.74V52.82H100.404V54.5H97.4038V60.02C97.4038 60.54 97.5172 60.9133 97.7438 61.14C97.9838 61.3533 98.3705 61.46 98.9038 61.46C99.1838 61.46 99.4305 61.44 99.6438 61.4C99.8705 61.36 100.11 61.3 100.364 61.22V62.9C100.097 62.9933 99.7838 63.06 99.4238 63.1C99.0772 63.1533 98.7572 63.18 98.4638 63.18ZM101.877 63V49L103.877 48.56V53.86C104.664 53.0333 105.684 52.62 106.937 52.62C107.724 52.62 108.411 52.7867 108.997 53.12C109.597 53.4533 110.064 53.92 110.397 54.52C110.744 55.12 110.917 55.8133 110.917 56.6V63H108.917V56.94C108.917 56.14 108.691 55.5133 108.237 55.06C107.784 54.5933 107.164 54.36 106.377 54.36C105.844 54.36 105.364 54.4733 104.937 54.7C104.511 54.9267 104.157 55.2533 103.877 55.68V63H101.877ZM118.105 63.18C117.105 63.18 116.198 62.9467 115.385 62.48C114.585 62.0133 113.945 61.38 113.465 60.58C112.998 59.78 112.765 58.8867 112.765 57.9C112.765 56.9267 112.992 56.0467 113.445 55.26C113.898 54.46 114.512 53.8267 115.285 53.36C116.058 52.88 116.918 52.64 117.865 52.64C118.812 52.64 119.652 52.88 120.385 53.36C121.118 53.8267 121.698 54.4667 122.125 55.28C122.565 56.08 122.785 56.9867 122.785 58V58.56H114.765C114.872 59.12 115.078 59.62 115.385 60.06C115.705 60.5 116.105 60.8467 116.585 61.1C117.078 61.3533 117.612 61.48 118.185 61.48C118.678 61.48 119.152 61.4067 119.605 61.26C120.072 61.1 120.458 60.8733 120.765 60.58L122.045 61.84C121.445 62.2933 120.825 62.6333 120.185 62.86C119.558 63.0733 118.865 63.18 118.105 63.18ZM114.785 57.06H120.805C120.725 56.5267 120.538 56.06 120.245 55.66C119.965 55.2467 119.612 54.9267 119.185 54.7C118.772 54.46 118.318 54.34 117.825 54.34C117.318 54.34 116.852 54.4533 116.425 54.68C115.998 54.9067 115.638 55.2267 115.345 55.64C115.065 56.04 114.878 56.5133 114.785 57.06ZM133.749 63.18C132.749 63.18 131.843 62.9467 131.029 62.48C130.229 62.0133 129.589 61.38 129.109 60.58C128.643 59.78 128.409 58.8867 128.409 57.9C128.409 56.9267 128.636 56.0467 129.089 55.26C129.543 54.46 130.156 53.8267 130.929 53.36C131.703 52.88 132.563 52.64 133.509 52.64C134.456 52.64 135.296 52.88 136.029 53.36C136.763 53.8267 137.343 54.4667 137.769 55.28C138.209 56.08 138.429 56.9867 138.429 58V58.56H130.409C130.516 59.12 130.723 59.62 131.029 60.06C131.349 60.5 131.749 60.8467 132.229 61.1C132.723 61.3533 133.256 61.48 133.829 61.48C134.323 61.48 134.796 61.4067 135.249 61.26C135.716 61.1 136.103 60.8733 136.409 60.58L137.689 61.84C137.089 62.2933 136.469 62.6333 135.829 62.86C135.203 63.0733 134.509 63.18 133.749 63.18ZM130.429 57.06H136.449C136.369 56.5267 136.183 56.06 135.889 55.66C135.609 55.2467 135.256 54.9267 134.829 54.7C134.416 54.46 133.963 54.34 133.469 54.34C132.963 54.34 132.496 54.4533 132.069 54.68C131.643 54.9067 131.283 55.2267 130.989 55.64C130.709 56.04 130.523 56.5133 130.429 57.06ZM138.472 63L142.432 57.78L138.632 52.82H140.972L143.592 56.3L146.212 52.82H148.472L144.712 57.76L148.712 63H146.372L143.552 59.24L140.732 63H138.472ZM149.944 67.08V52.82H151.924V53.8C152.777 53.04 153.817 52.66 155.044 52.66C156.004 52.66 156.87 52.8933 157.644 53.36C158.43 53.8267 159.05 54.4533 159.504 55.24C159.957 56.0267 160.184 56.9133 160.184 57.9C160.184 58.8867 159.95 59.78 159.484 60.58C159.03 61.3667 158.41 61.9933 157.624 62.46C156.85 62.9267 155.977 63.16 155.004 63.16C154.444 63.16 153.904 63.0733 153.384 62.9C152.864 62.7133 152.384 62.4533 151.944 62.12V67.08H149.944ZM154.784 61.42C155.437 61.42 156.017 61.2667 156.524 60.96C157.044 60.6533 157.457 60.24 157.764 59.72C158.07 59.1867 158.224 58.5867 158.224 57.92C158.224 57.2533 158.07 56.6533 157.764 56.12C157.457 55.5867 157.044 55.1667 156.524 54.86C156.017 54.5533 155.437 54.4 154.784 54.4C154.21 54.4 153.677 54.5067 153.184 54.72C152.69 54.9333 152.277 55.2333 151.944 55.62V60.22C152.277 60.5933 152.69 60.8867 153.184 61.1C153.69 61.3133 154.224 61.42 154.784 61.42ZM166.972 63.18C165.972 63.18 165.065 62.9467 164.252 62.48C163.452 62.0133 162.812 61.38 162.332 60.58C161.865 59.78 161.632 58.8867 161.632 57.9C161.632 56.9267 161.859 56.0467 162.312 55.26C162.765 54.46 163.379 53.8267 164.152 53.36C164.925 52.88 165.785 52.64 166.732 52.64C167.679 52.64 168.519 52.88 169.252 53.36C169.985 53.8267 170.565 54.4667 170.992 55.28C171.432 56.08 171.652 56.9867 171.652 58V58.56H163.632C163.739 59.12 163.945 59.62 164.252 60.06C164.572 60.5 164.972 60.8467 165.452 61.1C165.945 61.3533 166.479 61.48 167.052 61.48C167.545 61.48 168.019 61.4067 168.472 61.26C168.939 61.1 169.325 60.8733 169.632 60.58L170.912 61.84C170.312 62.2933 169.692 62.6333 169.052 62.86C168.425 63.0733 167.732 63.18 166.972 63.18ZM163.652 57.06H169.672C169.592 56.5267 169.405 56.06 169.112 55.66C168.832 55.2467 168.479 54.9267 168.052 54.7C167.639 54.46 167.185 54.34 166.692 54.34C166.185 54.34 165.719 54.4533 165.292 54.68C164.865 54.9067 164.505 55.2267 164.212 55.64C163.932 56.04 163.745 56.5133 163.652 57.06ZM173.557 63V52.82H175.557V53.86C176.344 53.0333 177.364 52.62 178.617 52.62C179.404 52.62 180.09 52.7867 180.677 53.12C181.277 53.4533 181.744 53.92 182.077 54.52C182.424 55.12 182.597 55.8133 182.597 56.6V63H180.597V56.94C180.597 56.14 180.37 55.5133 179.917 55.06C179.477 54.5933 178.857 54.36 178.057 54.36C177.524 54.36 177.044 54.4733 176.617 54.7C176.19 54.9267 175.837 55.2533 175.557 55.68V63H173.557ZM189.585 63.16C188.638 63.16 187.771 62.9267 186.985 62.46C186.198 61.9933 185.578 61.3667 185.125 60.58C184.671 59.78 184.445 58.8867 184.445 57.9C184.445 56.9133 184.671 56.0267 185.125 55.24C185.591 54.4533 186.218 53.8267 187.005 53.36C187.791 52.8933 188.665 52.66 189.625 52.66C190.185 52.66 190.725 52.7467 191.245 52.92C191.765 53.0933 192.245 53.3467 192.685 53.68V49L194.685 48.62V63H192.705V62.02C191.838 62.78 190.798 63.16 189.585 63.16ZM189.845 61.42C190.431 61.42 190.965 61.3133 191.445 61.1C191.938 60.8867 192.351 60.58 192.685 60.18V55.6C192.351 55.2267 191.938 54.9333 191.445 54.72C190.965 54.4933 190.431 54.38 189.845 54.38C189.205 54.38 188.625 54.5333 188.105 54.84C187.585 55.1467 187.171 55.5667 186.865 56.1C186.558 56.62 186.405 57.2133 186.405 57.88C186.405 58.5467 186.558 59.1467 186.865 59.68C187.171 60.2133 187.585 60.64 188.105 60.96C188.625 61.2667 189.205 61.42 189.845 61.42ZM197.053 63V52.82H199.053V63H197.053ZM198.053 51.18C197.72 51.18 197.433 51.06 197.193 50.82C196.953 50.5667 196.833 50.2733 196.833 49.94C196.833 49.5933 196.953 49.3067 197.193 49.08C197.433 48.84 197.72 48.72 198.053 48.72C198.4 48.72 198.693 48.84 198.933 49.08C199.173 49.3067 199.293 49.5933 199.293 49.94C199.293 50.2733 199.173 50.5667 198.933 50.82C198.693 51.06 198.4 51.18 198.053 51.18ZM205.769 63.18C204.782 63.18 204.029 62.9533 203.509 62.5C202.989 62.0333 202.729 61.36 202.729 60.48V54.5H200.569V52.82H202.729V50.22L204.709 49.74V52.82H207.709V54.5H204.709V60.02C204.709 60.54 204.822 60.9133 205.049 61.14C205.289 61.3533 205.675 61.46 206.209 61.46C206.489 61.46 206.735 61.44 206.949 61.4C207.175 61.36 207.415 61.3 207.669 61.22V62.9C207.402 62.9933 207.089 63.06 206.729 63.1C206.382 63.1533 206.062 63.18 205.769 63.18ZM213.122 63.2C212.335 63.2 211.642 63.0333 211.042 62.7C210.442 62.3667 209.975 61.9 209.642 61.3C209.309 60.6867 209.142 59.9867 209.142 59.2V52.82H211.122V58.86C211.122 59.66 211.349 60.2933 211.802 60.76C212.269 61.2267 212.889 61.46 213.662 61.46C214.209 61.46 214.695 61.3467 215.122 61.12C215.549 60.88 215.895 60.5467 216.162 60.12V52.82H218.162V63H216.162V61.96C215.375 62.7867 214.362 63.2 213.122 63.2ZM220.53 63V52.82H222.53V54.12C222.85 53.64 223.243 53.2667 223.71 53C224.19 52.72 224.73 52.58 225.33 52.58C225.743 52.5933 226.083 52.6533 226.35 52.76V54.56C226.163 54.48 225.97 54.4267 225.77 54.4C225.57 54.36 225.37 54.34 225.17 54.34C224.583 54.34 224.063 54.5 223.61 54.82C223.156 55.1267 222.796 55.58 222.53 56.18V63H220.53ZM232.246 63.18C231.246 63.18 230.339 62.9467 229.526 62.48C228.726 62.0133 228.086 61.38 227.606 60.58C227.139 59.78 226.906 58.8867 226.906 57.9C226.906 56.9267 227.132 56.0467 227.586 55.26C228.039 54.46 228.652 53.8267 229.426 53.36C230.199 52.88 231.059 52.64 232.006 52.64C232.952 52.64 233.792 52.88 234.526 53.36C235.259 53.8267 235.839 54.4667 236.266 55.28C236.706 56.08 236.926 56.9867 236.926 58V58.56H228.906C229.012 59.12 229.219 59.62 229.526 60.06C229.846 60.5 230.246 60.8467 230.726 61.1C231.219 61.3533 231.752 61.48 232.326 61.48C232.819 61.48 233.292 61.4067 233.746 61.26C234.212 61.1 234.599 60.8733 234.906 60.58L236.186 61.84C235.586 62.2933 234.966 62.6333 234.326 62.86C233.699 63.0733 233.006 63.18 232.246 63.18ZM228.926 57.06H234.946C234.866 56.5267 234.679 56.06 234.386 55.66C234.106 55.2467 233.752 54.9267 233.326 54.7C232.912 54.46 232.459 54.34 231.966 54.34C231.459 54.34 230.992 54.4533 230.566 54.68C230.139 54.9067 229.779 55.2267 229.486 55.64C229.206 56.04 229.019 56.5133 228.926 57.06Z" fill="white"/>
<path d="M185.412 186.583C186.194 187.363 186.196 188.629 185.417 189.412L172.71 202.161C171.931 202.944 170.664 202.946 169.882 202.166C169.099 201.386 169.097 200.12 169.877 199.338L181.172 188.005L169.839 176.71C169.056 175.931 169.054 174.664 169.834 173.882C170.614 173.099 171.88 173.097 172.662 173.877L185.412 186.583ZM74.5319 88.6448C74.728 87.5578 75.7682 86.8356 76.8553 87.0318C77.9423 87.2279 78.6645 88.2682 78.4683 89.3552L74.5319 88.6448ZM184.003 190C152.484 190.053 122.116 181.859 101.085 165.039C79.9392 148.128 68.4021 122.614 74.5319 88.6448L78.4683 89.3552C72.5981 121.886 83.5899 145.925 103.583 161.915C123.692 177.997 153.074 186.052 183.997 186L184.003 190Z" fill="white"/>
</svg>
