<svg width="332" height="162" viewBox="0 0 332 162" fill="none" xmlns="http://www.w3.org/2000/svg">
<rect x="103" y="76" width="229" height="86" rx="10" fill="#137CF8"/>
<path d="M189.939 113.2C188.819 113.2 187.739 112.98 186.699 112.54C185.659 112.1 184.739 111.48 183.939 110.68L185.219 109.2C185.979 109.947 186.753 110.5 187.539 110.86C188.339 111.22 189.173 111.4 190.039 111.4C190.719 111.4 191.313 111.307 191.819 111.12C192.339 110.92 192.739 110.64 193.019 110.28C193.299 109.92 193.439 109.513 193.439 109.06C193.439 108.433 193.219 107.953 192.779 107.62C192.339 107.287 191.613 107.033 190.599 106.86L188.259 106.48C186.979 106.253 186.019 105.84 185.379 105.24C184.753 104.64 184.439 103.84 184.439 102.84C184.439 102.04 184.653 101.34 185.079 100.74C185.506 100.127 186.106 99.6533 186.879 99.32C187.666 98.9867 188.573 98.82 189.599 98.82C190.613 98.82 191.606 98.9867 192.579 99.32C193.566 99.64 194.453 100.107 195.239 100.72L194.079 102.32C192.573 101.173 191.046 100.6 189.499 100.6C188.886 100.6 188.353 100.687 187.899 100.86C187.446 101.033 187.093 101.28 186.839 101.6C186.586 101.907 186.459 102.267 186.459 102.68C186.459 103.253 186.653 103.693 187.039 104C187.426 104.293 188.066 104.507 188.959 104.64L191.219 105.02C192.699 105.26 193.786 105.693 194.479 106.32C195.173 106.947 195.519 107.807 195.519 108.9C195.519 109.753 195.286 110.507 194.819 111.16C194.353 111.8 193.699 112.3 192.859 112.66C192.019 113.02 191.046 113.2 189.939 113.2ZM202.26 113.2C201.274 113.2 200.374 112.967 199.56 112.5C198.76 112.033 198.127 111.4 197.66 110.6C197.194 109.8 196.96 108.907 196.96 107.92C196.96 106.933 197.194 106.04 197.66 105.24C198.127 104.44 198.76 103.807 199.56 103.34C200.374 102.86 201.274 102.62 202.26 102.62C203.26 102.62 204.16 102.86 204.96 103.34C205.76 103.807 206.394 104.44 206.86 105.24C207.327 106.04 207.56 106.933 207.56 107.92C207.56 108.907 207.327 109.8 206.86 110.6C206.394 111.4 205.76 112.033 204.96 112.5C204.16 112.967 203.26 113.2 202.26 113.2ZM202.26 111.44C202.887 111.44 203.454 111.287 203.96 110.98C204.467 110.66 204.867 110.233 205.16 109.7C205.454 109.167 205.6 108.567 205.6 107.9C205.6 107.247 205.447 106.66 205.14 106.14C204.847 105.607 204.447 105.18 203.94 104.86C203.447 104.54 202.887 104.38 202.26 104.38C201.634 104.38 201.067 104.54 200.56 104.86C200.067 105.18 199.667 105.607 199.36 106.14C199.067 106.66 198.92 107.247 198.92 107.9C198.92 108.567 199.067 109.167 199.36 109.7C199.654 110.233 200.054 110.66 200.56 110.98C201.067 111.287 201.634 111.44 202.26 111.44ZM209.451 113V102.82H211.451V104.12C211.771 103.64 212.165 103.267 212.631 103C213.111 102.72 213.651 102.58 214.251 102.58C214.665 102.593 215.005 102.653 215.271 102.76V104.56C215.085 104.48 214.891 104.427 214.691 104.4C214.491 104.36 214.291 104.34 214.091 104.34C213.505 104.34 212.985 104.5 212.531 104.82C212.078 105.127 211.718 105.58 211.451 106.18V113H209.451ZM221.233 113.18C220.247 113.18 219.493 112.953 218.973 112.5C218.453 112.033 218.193 111.36 218.193 110.48V104.5H216.033V102.82H218.193V100.22L220.173 99.74V102.82H223.173V104.5H220.173V110.02C220.173 110.54 220.287 110.913 220.513 111.14C220.753 111.353 221.14 111.46 221.673 111.46C221.953 111.46 222.2 111.44 222.413 111.4C222.64 111.36 222.88 111.3 223.133 111.22V112.9C222.867 112.993 222.553 113.06 222.193 113.1C221.847 113.153 221.527 113.18 221.233 113.18ZM224.647 113V102.82H226.647V113H224.647ZM225.647 101.18C225.313 101.18 225.027 101.06 224.787 100.82C224.547 100.567 224.427 100.273 224.427 99.94C224.427 99.5933 224.547 99.3067 224.787 99.08C225.027 98.84 225.313 98.72 225.647 98.72C225.993 98.72 226.287 98.84 226.527 99.08C226.767 99.3067 226.887 99.5933 226.887 99.94C226.887 100.273 226.767 100.567 226.527 100.82C226.287 101.06 225.993 101.18 225.647 101.18ZM229.002 113V102.82H231.002V103.86C231.789 103.033 232.809 102.62 234.062 102.62C234.849 102.62 235.536 102.787 236.122 103.12C236.722 103.453 237.189 103.92 237.522 104.52C237.869 105.12 238.042 105.813 238.042 106.6V113H236.042V106.94C236.042 106.14 235.816 105.513 235.362 105.06C234.922 104.593 234.302 104.36 233.502 104.36C232.969 104.36 232.489 104.473 232.062 104.7C231.636 104.927 231.282 105.253 231.002 105.68V113H229.002ZM245.39 117.28C244.643 117.28 243.917 117.193 243.21 117.02C242.503 116.847 241.863 116.6 241.29 116.28L242.05 114.72C242.65 115.027 243.21 115.247 243.73 115.38C244.263 115.527 244.797 115.6 245.33 115.6C246.223 115.6 246.897 115.393 247.35 114.98C247.817 114.567 248.05 113.96 248.05 113.16V112C247.157 112.707 246.137 113.06 244.99 113.06C244.057 113.06 243.197 112.833 242.41 112.38C241.637 111.913 241.023 111.287 240.57 110.5C240.117 109.7 239.89 108.82 239.89 107.86C239.89 106.887 240.117 106.007 240.57 105.22C241.037 104.42 241.657 103.793 242.43 103.34C243.217 102.873 244.097 102.64 245.07 102.64C245.617 102.64 246.143 102.733 246.65 102.92C247.17 103.093 247.643 103.347 248.07 103.68V102.82H250.05V113.16C250.05 114.48 249.643 115.493 248.83 116.2C248.03 116.92 246.883 117.28 245.39 117.28ZM245.25 111.34C245.837 111.34 246.37 111.24 246.85 111.04C247.33 110.827 247.73 110.527 248.05 110.14V105.58C247.73 105.207 247.323 104.913 246.83 104.7C246.35 104.487 245.823 104.38 245.25 104.38C244.61 104.38 244.03 104.533 243.51 104.84C243.003 105.147 242.597 105.567 242.29 106.1C241.997 106.62 241.85 107.207 241.85 107.86C241.85 108.513 241.997 109.107 242.29 109.64C242.597 110.16 243.003 110.573 243.51 110.88C244.03 111.187 244.61 111.34 245.25 111.34ZM137.154 139.18C136.421 139.18 135.774 139.053 135.214 138.8C134.654 138.533 134.214 138.167 133.894 137.7C133.574 137.233 133.414 136.693 133.414 136.08C133.414 135.12 133.781 134.367 134.514 133.82C135.247 133.26 136.254 132.98 137.534 132.98C138.534 132.98 139.461 133.173 140.314 133.56V132.48C140.314 131.747 140.101 131.2 139.674 130.84C139.261 130.48 138.647 130.3 137.834 130.3C137.367 130.3 136.881 130.373 136.374 130.52C135.867 130.653 135.301 130.867 134.674 131.16L133.934 129.66C134.707 129.3 135.427 129.04 136.094 128.88C136.761 128.707 137.434 128.62 138.114 128.62C139.434 128.62 140.454 128.933 141.174 129.56C141.907 130.187 142.274 131.08 142.274 132.24V139H140.314V138.12C139.861 138.48 139.374 138.747 138.854 138.92C138.334 139.093 137.767 139.18 137.154 139.18ZM135.334 136.04C135.334 136.533 135.541 136.933 135.954 137.24C136.381 137.547 136.934 137.7 137.614 137.7C138.147 137.7 138.634 137.62 139.074 137.46C139.527 137.3 139.941 137.053 140.314 136.72V135C139.927 134.773 139.521 134.613 139.094 134.52C138.681 134.413 138.214 134.36 137.694 134.36C136.961 134.36 136.381 134.513 135.954 134.82C135.541 135.113 135.334 135.52 135.334 136.04ZM144.578 139V128.82H146.578V129.86C147.365 129.033 148.385 128.62 149.638 128.62C150.425 128.62 151.112 128.787 151.698 129.12C152.298 129.453 152.765 129.92 153.098 130.52C153.445 131.12 153.618 131.813 153.618 132.6V139H151.618V132.94C151.618 132.14 151.392 131.513 150.938 131.06C150.498 130.593 149.878 130.36 149.078 130.36C148.545 130.36 148.065 130.473 147.638 130.7C147.212 130.927 146.858 131.253 146.578 131.68V139H144.578ZM160.606 139.16C159.659 139.16 158.793 138.927 158.006 138.46C157.219 137.993 156.599 137.367 156.146 136.58C155.693 135.78 155.466 134.887 155.466 133.9C155.466 132.913 155.693 132.027 156.146 131.24C156.613 130.453 157.239 129.827 158.026 129.36C158.813 128.893 159.686 128.66 160.646 128.66C161.206 128.66 161.746 128.747 162.266 128.92C162.786 129.093 163.266 129.347 163.706 129.68V125L165.706 124.62V139H163.726V138.02C162.859 138.78 161.819 139.16 160.606 139.16ZM160.866 137.42C161.453 137.42 161.986 137.313 162.466 137.1C162.959 136.887 163.373 136.58 163.706 136.18V131.6C163.373 131.227 162.959 130.933 162.466 130.72C161.986 130.493 161.453 130.38 160.866 130.38C160.226 130.38 159.646 130.533 159.126 130.84C158.606 131.147 158.193 131.567 157.886 132.1C157.579 132.62 157.426 133.213 157.426 133.88C157.426 134.547 157.579 135.147 157.886 135.68C158.193 136.213 158.606 136.64 159.126 136.96C159.646 137.267 160.226 137.42 160.866 137.42ZM177.034 139.18C176.061 139.18 175.174 138.947 174.374 138.48C173.574 138.013 172.941 137.38 172.474 136.58C172.021 135.78 171.794 134.887 171.794 133.9C171.794 132.913 172.028 132.027 172.494 131.24C172.961 130.44 173.588 129.807 174.374 129.34C175.174 128.86 176.061 128.62 177.034 128.62C177.808 128.62 178.548 128.767 179.254 129.06C179.974 129.353 180.594 129.767 181.114 130.3L179.874 131.68C179.488 131.253 179.054 130.933 178.574 130.72C178.094 130.507 177.594 130.4 177.074 130.4C176.461 130.4 175.901 130.553 175.394 130.86C174.901 131.167 174.508 131.587 174.214 132.12C173.921 132.653 173.774 133.247 173.774 133.9C173.774 134.553 173.921 135.147 174.214 135.68C174.508 136.213 174.908 136.64 175.414 136.96C175.921 137.267 176.488 137.42 177.114 137.42C177.634 137.42 178.121 137.32 178.574 137.12C179.028 136.907 179.454 136.6 179.854 136.2L181.074 137.48C180.541 138.027 179.921 138.447 179.214 138.74C178.521 139.033 177.794 139.18 177.034 139.18ZM185.904 139.18C185.171 139.18 184.524 139.053 183.964 138.8C183.404 138.533 182.964 138.167 182.644 137.7C182.324 137.233 182.164 136.693 182.164 136.08C182.164 135.12 182.531 134.367 183.264 133.82C183.997 133.26 185.004 132.98 186.284 132.98C187.284 132.98 188.211 133.173 189.064 133.56V132.48C189.064 131.747 188.851 131.2 188.424 130.84C188.011 130.48 187.397 130.3 186.584 130.3C186.117 130.3 185.631 130.373 185.124 130.52C184.617 130.653 184.051 130.867 183.424 131.16L182.684 129.66C183.457 129.3 184.177 129.04 184.844 128.88C185.511 128.707 186.184 128.62 186.864 128.62C188.184 128.62 189.204 128.933 189.924 129.56C190.657 130.187 191.024 131.08 191.024 132.24V139H189.064V138.12C188.611 138.48 188.124 138.747 187.604 138.92C187.084 139.093 186.517 139.18 185.904 139.18ZM184.084 136.04C184.084 136.533 184.291 136.933 184.704 137.24C185.131 137.547 185.684 137.7 186.364 137.7C186.897 137.7 187.384 137.62 187.824 137.46C188.277 137.3 188.691 137.053 189.064 136.72V135C188.677 134.773 188.271 134.613 187.844 134.52C187.431 134.413 186.964 134.36 186.444 134.36C185.711 134.36 185.131 134.513 184.704 134.82C184.291 135.113 184.084 135.52 184.084 136.04ZM197.395 139.18C196.409 139.18 195.655 138.953 195.135 138.5C194.615 138.033 194.355 137.36 194.355 136.48V130.5H192.195V128.82H194.355V126.22L196.335 125.74V128.82H199.335V130.5H196.335V136.02C196.335 136.54 196.449 136.913 196.675 137.14C196.915 137.353 197.302 137.46 197.835 137.46C198.115 137.46 198.362 137.44 198.575 137.4C198.802 137.36 199.042 137.3 199.295 137.22V138.9C199.029 138.993 198.715 139.06 198.355 139.1C198.009 139.153 197.689 139.18 197.395 139.18ZM205.533 139.18C204.533 139.18 203.626 138.947 202.813 138.48C202.013 138.013 201.373 137.38 200.893 136.58C200.426 135.78 200.193 134.887 200.193 133.9C200.193 132.927 200.419 132.047 200.873 131.26C201.326 130.46 201.939 129.827 202.713 129.36C203.486 128.88 204.346 128.64 205.293 128.64C206.239 128.64 207.079 128.88 207.813 129.36C208.546 129.827 209.126 130.467 209.553 131.28C209.993 132.08 210.213 132.987 210.213 134V134.56H202.193C202.299 135.12 202.506 135.62 202.813 136.06C203.133 136.5 203.533 136.847 204.013 137.1C204.506 137.353 205.039 137.48 205.613 137.48C206.106 137.48 206.579 137.407 207.033 137.26C207.499 137.1 207.886 136.873 208.193 136.58L209.473 137.84C208.873 138.293 208.253 138.633 207.613 138.86C206.986 139.073 206.293 139.18 205.533 139.18ZM202.213 133.06H208.233C208.153 132.527 207.966 132.06 207.673 131.66C207.393 131.247 207.039 130.927 206.613 130.7C206.199 130.46 205.746 130.34 205.253 130.34C204.746 130.34 204.279 130.453 203.853 130.68C203.426 130.907 203.066 131.227 202.773 131.64C202.493 132.04 202.306 132.513 202.213 133.06ZM217.197 143.28C216.45 143.28 215.723 143.193 215.017 143.02C214.31 142.847 213.67 142.6 213.097 142.28L213.857 140.72C214.457 141.027 215.017 141.247 215.537 141.38C216.07 141.527 216.603 141.6 217.137 141.6C218.03 141.6 218.703 141.393 219.157 140.98C219.623 140.567 219.857 139.96 219.857 139.16V138C218.963 138.707 217.943 139.06 216.797 139.06C215.863 139.06 215.003 138.833 214.217 138.38C213.443 137.913 212.83 137.287 212.377 136.5C211.923 135.7 211.697 134.82 211.697 133.86C211.697 132.887 211.923 132.007 212.377 131.22C212.843 130.42 213.463 129.793 214.237 129.34C215.023 128.873 215.903 128.64 216.877 128.64C217.423 128.64 217.95 128.733 218.457 128.92C218.977 129.093 219.45 129.347 219.877 129.68V128.82H221.857V139.16C221.857 140.48 221.45 141.493 220.637 142.2C219.837 142.92 218.69 143.28 217.197 143.28ZM217.057 137.34C217.643 137.34 218.177 137.24 218.657 137.04C219.137 136.827 219.537 136.527 219.857 136.14V131.58C219.537 131.207 219.13 130.913 218.637 130.7C218.157 130.487 217.63 130.38 217.057 130.38C216.417 130.38 215.837 130.533 215.317 130.84C214.81 131.147 214.403 131.567 214.097 132.1C213.803 132.62 213.657 133.207 213.657 133.86C213.657 134.513 213.803 135.107 214.097 135.64C214.403 136.16 214.81 136.573 215.317 136.88C215.837 137.187 216.417 137.34 217.057 137.34ZM229.047 139.2C228.061 139.2 227.161 138.967 226.347 138.5C225.547 138.033 224.914 137.4 224.447 136.6C223.981 135.8 223.747 134.907 223.747 133.92C223.747 132.933 223.981 132.04 224.447 131.24C224.914 130.44 225.547 129.807 226.347 129.34C227.161 128.86 228.061 128.62 229.047 128.62C230.047 128.62 230.947 128.86 231.747 129.34C232.547 129.807 233.181 130.44 233.647 131.24C234.114 132.04 234.347 132.933 234.347 133.92C234.347 134.907 234.114 135.8 233.647 136.6C233.181 137.4 232.547 138.033 231.747 138.5C230.947 138.967 230.047 139.2 229.047 139.2ZM229.047 137.44C229.674 137.44 230.241 137.287 230.747 136.98C231.254 136.66 231.654 136.233 231.947 135.7C232.241 135.167 232.387 134.567 232.387 133.9C232.387 133.247 232.234 132.66 231.927 132.14C231.634 131.607 231.234 131.18 230.727 130.86C230.234 130.54 229.674 130.38 229.047 130.38C228.421 130.38 227.854 130.54 227.347 130.86C226.854 131.18 226.454 131.607 226.147 132.14C225.854 132.66 225.707 133.247 225.707 133.9C225.707 134.567 225.854 135.167 226.147 135.7C226.441 136.233 226.841 136.66 227.347 136.98C227.854 137.287 228.421 137.44 229.047 137.44ZM236.239 139V128.82H238.239V130.12C238.559 129.64 238.952 129.267 239.419 129C239.899 128.72 240.439 128.58 241.039 128.58C241.452 128.593 241.792 128.653 242.059 128.76V130.56C241.872 130.48 241.679 130.427 241.479 130.4C241.279 130.36 241.079 130.34 240.879 130.34C240.292 130.34 239.772 130.5 239.319 130.82C238.865 131.127 238.505 131.58 238.239 132.18V139H236.239ZM243.66 139V128.82H245.66V139H243.66ZM244.66 127.18C244.327 127.18 244.04 127.06 243.8 126.82C243.56 126.567 243.44 126.273 243.44 125.94C243.44 125.593 243.56 125.307 243.8 125.08C244.04 124.84 244.327 124.72 244.66 124.72C245.007 124.72 245.3 124.84 245.54 125.08C245.78 125.307 245.9 125.593 245.9 125.94C245.9 126.273 245.78 126.567 245.54 126.82C245.3 127.06 245.007 127.18 244.66 127.18ZM247.416 139V137.52L253.136 130.54H247.476V128.82H255.636V130.28L249.916 137.28H255.736V139H247.416ZM260.787 139.18C260.053 139.18 259.407 139.053 258.847 138.8C258.287 138.533 257.847 138.167 257.527 137.7C257.207 137.233 257.047 136.693 257.047 136.08C257.047 135.12 257.413 134.367 258.147 133.82C258.88 133.26 259.887 132.98 261.167 132.98C262.167 132.98 263.093 133.173 263.947 133.56V132.48C263.947 131.747 263.733 131.2 263.307 130.84C262.893 130.48 262.28 130.3 261.467 130.3C261 130.3 260.513 130.373 260.007 130.52C259.5 130.653 258.933 130.867 258.307 131.16L257.567 129.66C258.34 129.3 259.06 129.04 259.727 128.88C260.393 128.707 261.067 128.62 261.747 128.62C263.067 128.62 264.087 128.933 264.807 129.56C265.54 130.187 265.907 131.08 265.907 132.24V139H263.947V138.12C263.493 138.48 263.007 138.747 262.487 138.92C261.967 139.093 261.4 139.18 260.787 139.18ZM258.967 136.04C258.967 136.533 259.173 136.933 259.587 137.24C260.013 137.547 260.567 137.7 261.247 137.7C261.78 137.7 262.267 137.62 262.707 137.46C263.16 137.3 263.573 137.053 263.947 136.72V135C263.56 134.773 263.153 134.613 262.727 134.52C262.313 134.413 261.847 134.36 261.327 134.36C260.593 134.36 260.013 134.513 259.587 134.82C259.173 135.113 258.967 135.52 258.967 136.04ZM272.278 139.18C271.292 139.18 270.538 138.953 270.018 138.5C269.498 138.033 269.238 137.36 269.238 136.48V130.5H267.078V128.82H269.238V126.22L271.218 125.74V128.82H274.218V130.5H271.218V136.02C271.218 136.54 271.332 136.913 271.558 137.14C271.798 137.353 272.185 137.46 272.718 137.46C272.998 137.46 273.245 137.44 273.458 137.4C273.685 137.36 273.925 137.3 274.178 137.22V138.9C273.912 138.993 273.598 139.06 273.238 139.1C272.892 139.153 272.572 139.18 272.278 139.18ZM275.692 139V128.82H277.692V139H275.692ZM276.692 127.18C276.358 127.18 276.072 127.06 275.832 126.82C275.592 126.567 275.472 126.273 275.472 125.94C275.472 125.593 275.592 125.307 275.832 125.08C276.072 124.84 276.358 124.72 276.692 124.72C277.038 124.72 277.332 124.84 277.572 125.08C277.812 125.307 277.932 125.593 277.932 125.94C277.932 126.273 277.812 126.567 277.572 126.82C277.332 127.06 277.038 127.18 276.692 127.18ZM284.887 139.2C283.901 139.2 283.001 138.967 282.187 138.5C281.387 138.033 280.754 137.4 280.287 136.6C279.821 135.8 279.587 134.907 279.587 133.92C279.587 132.933 279.821 132.04 280.287 131.24C280.754 130.44 281.387 129.807 282.187 129.34C283.001 128.86 283.901 128.62 284.887 128.62C285.887 128.62 286.787 128.86 287.587 129.34C288.387 129.807 289.021 130.44 289.487 131.24C289.954 132.04 290.187 132.933 290.187 133.92C290.187 134.907 289.954 135.8 289.487 136.6C289.021 137.4 288.387 138.033 287.587 138.5C286.787 138.967 285.887 139.2 284.887 139.2ZM284.887 137.44C285.514 137.44 286.081 137.287 286.587 136.98C287.094 136.66 287.494 136.233 287.787 135.7C288.081 135.167 288.227 134.567 288.227 133.9C288.227 133.247 288.074 132.66 287.767 132.14C287.474 131.607 287.074 131.18 286.567 130.86C286.074 130.54 285.514 130.38 284.887 130.38C284.261 130.38 283.694 130.54 283.187 130.86C282.694 131.18 282.294 131.607 281.987 132.14C281.694 132.66 281.547 133.247 281.547 133.9C281.547 134.567 281.694 135.167 281.987 135.7C282.281 136.233 282.681 136.66 283.187 136.98C283.694 137.287 284.261 137.44 284.887 137.44ZM292.078 139V128.82H294.078V129.86C294.865 129.033 295.885 128.62 297.138 128.62C297.925 128.62 298.612 128.787 299.198 129.12C299.798 129.453 300.265 129.92 300.598 130.52C300.945 131.12 301.118 131.813 301.118 132.6V139H299.118V132.94C299.118 132.14 298.892 131.513 298.438 131.06C297.998 130.593 297.378 130.36 296.578 130.36C296.045 130.36 295.565 130.473 295.138 130.7C294.712 130.927 294.358 131.253 294.078 131.68V139H292.078Z" fill="white"/>
<path d="M20.2946 46.814C19.6396 45.9246 18.3876 45.7346 17.4982 46.3896L3.00439 57.0634C2.11498 57.7184 1.92495 58.9704 2.57994 59.8598C3.23494 60.7492 4.48693 60.9392 5.37634 60.2842L18.2597 50.7964L27.7475 63.6798C28.4025 64.5692 29.6545 64.7592 30.5439 64.1042C31.4333 63.4492 31.6234 62.1972 30.9684 61.3078L20.2946 46.814ZM102.343 120.97C103.431 120.781 104.16 119.745 103.97 118.657C103.781 117.569 102.745 116.84 101.657 117.03L102.343 120.97ZM16.7068 47.6999C14.9485 59.2841 14.0491 70.5711 15.0465 80.7568C16.0446 90.9491 18.955 100.167 24.929 107.474C36.9499 122.176 60.5439 128.245 102.343 120.97L101.657 117.03C60.1402 124.255 38.5813 117.851 28.0257 104.942C22.7115 98.4424 19.9777 90.0703 19.0275 80.3669C18.0766 70.657 18.9247 59.7429 20.6615 48.3001L16.7068 47.6999Z" fill="white"/>
<rect width="45" height="45" rx="10" fill="#8247FF"/>
<path d="M23.4345 23.5193L23.6226 23.7334L23.8104 23.519L34.7728 11.0003L34.7729 11.0004L34.7768 10.9957C35.0118 10.7136 35.0578 10.3366 34.9183 10.0109C34.7687 9.66183 34.4251 9.479 34.066 9.479H13.144C12.7848 9.479 12.4413 9.66183 12.2917 10.0109C12.1521 10.3366 12.1981 10.7136 12.4332 10.9957L12.4331 10.9957L12.4374 11.0006L23.4345 23.5193ZM33.1373 10.7744L23.6213 21.7292L14.0072 10.7744H33.1373Z" fill="white" stroke="white" stroke-width="0.5"/>
<path d="M22.9226 37.4635C22.9226 37.8436 23.2074 38.1285 23.5876 38.1285C23.9195 38.1285 24.2526 37.8569 24.2526 37.4635V22.6279C24.2526 22.2477 23.9677 21.9629 23.5876 21.9629C23.2074 21.9629 22.9226 22.2477 22.9226 22.6279V37.4635Z" fill="white" stroke="white" stroke-width="0.5"/>
<path d="M16.9824 38.4398H30.1581C30.5382 38.4398 30.823 38.155 30.823 37.7748C30.823 37.3947 30.5382 37.1099 30.1581 37.1099H16.9824C16.6022 37.1099 16.3174 37.3947 16.3174 37.7748C16.3174 38.155 16.6022 38.4398 16.9824 38.4398Z" fill="white" stroke="white" stroke-width="0.5"/>
<path d="M22.3772 17.7252C22.7254 17.7252 23.0076 17.4429 23.0076 17.0948C23.0076 16.7466 22.7254 16.4644 22.3772 16.4644C22.0291 16.4644 21.7468 16.7466 21.7468 17.0948C21.7468 17.4429 22.0291 17.7252 22.3772 17.7252Z" fill="white" stroke="white" stroke-width="0.5"/>
<path d="M26.3196 17.7252C26.6678 17.7252 26.95 17.4429 26.95 17.0948C26.95 16.7466 26.6678 16.4644 26.3196 16.4644C25.9715 16.4644 25.6892 16.7466 25.6892 17.0948C25.6892 17.4429 25.9715 17.7252 26.3196 17.7252Z" fill="white" stroke="white" stroke-width="0.5"/>
<path d="M24.5906 19.3506C24.9388 19.3506 25.221 19.0684 25.221 18.7202C25.221 18.3721 24.9388 18.0898 24.5906 18.0898C24.2424 18.0898 23.9602 18.3721 23.9602 18.7202C23.9602 19.0684 24.2424 19.3506 24.5906 19.3506Z" fill="white" stroke="white" stroke-width="0.5"/>
<path d="M22.7576 19.731C23.1058 19.731 23.388 19.4488 23.388 19.1006C23.388 18.7525 23.1058 18.4702 22.7576 18.4702C22.4094 18.4702 22.1272 18.7525 22.1272 19.1006C22.1272 19.4488 22.4094 19.731 22.7576 19.731Z" fill="white" stroke="white" stroke-width="0.5"/>
<path d="M15.5646 14.2323H31.2302C31.6104 14.2323 31.8952 13.9475 31.8952 13.5673C31.8952 13.1872 31.6104 12.9023 31.2302 12.9023H15.5646C15.1845 12.9023 14.8997 13.1872 14.8997 13.5673C14.8997 13.9475 15.1845 14.2323 15.5646 14.2323Z" fill="white" stroke="white" stroke-width="0.5"/>
<path d="M12.0533 12.9472L12.0533 12.9475L12.0653 12.9495L12.0744 12.9511C12.2759 12.9846 12.5006 13.0221 12.7289 13.0221C13.2384 13.0221 13.7742 12.9148 14.2091 12.6051C14.5352 12.4289 14.6309 12.0401 14.4741 11.7266C14.3032 11.3847 13.9052 11.282 13.5854 11.4419L13.5854 11.4418L13.5787 11.4454C13.182 11.659 12.7239 11.72 12.2972 11.6285L12.2972 11.6285L12.2908 11.6273C11.8051 11.5362 11.3458 11.2303 11.0718 10.8041C10.798 10.3782 10.703 9.85625 10.796 9.3256C11.0118 8.25395 12.0527 7.58169 13.092 7.7948C14.0781 8.01127 14.7506 8.90206 14.6586 9.91376L14.6576 9.92506V9.9364C14.6576 10.1053 14.7064 10.2688 14.8149 10.399C14.9244 10.5304 15.0786 10.6086 15.2526 10.6334L15.2702 10.636H15.288C15.599 10.636 15.93 10.4258 15.985 10.0409L15.9854 10.041L15.9865 10.0282C16.1363 8.38065 15.0142 6.84712 13.3674 6.51003C11.5703 6.13589 9.84966 7.29709 9.47576 9.0544L9.47559 9.05437L9.47399 9.0636C9.32568 9.91637 9.47372 10.7766 9.96024 11.5251C10.4483 12.2759 11.1983 12.7614 12.0533 12.9472Z" fill="white" stroke="white" stroke-width="0.5"/>
<path d="M13.7477 4.85007L13.7468 4.84989C11.0535 4.30395 8.39627 6.05005 7.84989 8.74551C7.30411 11.438 9.04906 14.0946 11.7432 14.642C12.0711 14.7147 12.3997 14.7512 12.7289 14.7512C13.784 14.7512 14.8001 14.4237 15.6687 13.8447C15.993 13.6284 16.059 13.1906 15.8358 12.9012C15.6168 12.5835 15.182 12.5214 14.8954 12.7453C14.0891 13.3238 13.0205 13.5511 12.0156 13.3566C10.009 12.9682 8.71436 10.993 9.1348 9.02019L9.13485 9.0202L9.13574 9.01559C9.52337 7.01283 11.4618 5.74689 13.4746 6.13533C15.1601 6.49287 16.388 7.95033 16.4212 9.66239C16.4226 10.0412 16.7069 10.3247 17.0862 10.3247C17.4663 10.3247 17.7512 10.0399 17.7512 9.65972L17.7512 9.65581C17.7147 7.32384 16.0395 5.32298 13.7477 4.85007Z" fill="white" stroke="white" stroke-width="0.5"/>
<path d="M12.1331 12.3571C12.1331 12.7372 12.4179 13.022 12.798 13.022C13.1637 13.022 13.463 12.7513 13.463 12.3916V7.1352C13.463 6.75505 13.1782 6.47021 12.798 6.47021C12.4179 6.47021 12.1331 6.75505 12.1331 7.1352V12.3571Z" fill="white" stroke="white" stroke-width="0.5"/>
<path d="M12.7737 10.5658L12.7817 10.5706L12.79 10.5748C12.7936 10.5766 12.7975 10.5786 12.8017 10.5807C12.8611 10.6108 12.9788 10.6704 13.1093 10.6704C13.3212 10.6704 13.5459 10.5667 13.6666 10.3478C13.8893 10.0425 13.7596 9.60861 13.4381 9.44078L10.9678 7.9655C10.6666 7.74008 10.2364 7.86235 10.0623 8.17575C9.83947 8.48106 9.9691 8.91511 10.2907 9.08299L12.7737 10.5658Z" fill="white" stroke="white" stroke-width="0.5"/>
<path d="M9.94613 11.3621L9.95621 11.3823L9.96973 11.4003C10.1147 11.5935 10.3236 11.7078 10.5501 11.7078C10.5931 11.7078 10.6305 11.6981 10.6451 11.6943C10.657 11.6912 10.6734 11.6864 10.6841 11.6833C10.6875 11.6823 10.6904 11.6814 10.6923 11.6809C10.716 11.6741 10.7237 11.6733 10.7237 11.6732C10.7237 11.6732 10.7237 11.6732 10.7237 11.6732H10.7857L10.841 11.6437L15.2993 9.25896C15.6385 9.08707 15.74 8.69064 15.5806 8.37195C15.4097 8.03002 15.0117 7.92737 14.6919 8.08724L14.6919 8.08716L14.6858 8.0904L10.2274 10.4751C9.88823 10.647 9.78679 11.0434 9.94613 11.3621Z" fill="white" stroke="white" stroke-width="0.5"/>
</svg>
