<svg width="286" height="187" viewBox="0 0 286 187" fill="none" xmlns="http://www.w3.org/2000/svg">
<rect x="56.7938" width="229" height="86" rx="10" fill="#137CF8"/>
<path d="M83.7552 37L89.5352 23H92.0152L97.7352 37H95.4552L93.8352 32.9H87.5752L85.9352 37H83.7552ZM88.2552 31.16H93.1552L90.7152 25L88.2552 31.16ZM103.091 37.16C102.145 37.16 101.278 36.9267 100.491 36.46C99.7047 35.9933 99.0847 35.3667 98.6313 34.58C98.178 33.78 97.9513 32.8867 97.9513 31.9C97.9513 30.9133 98.178 30.0267 98.6313 29.24C99.098 28.4533 99.7247 27.8267 100.511 27.36C101.298 26.8933 102.171 26.66 103.131 26.66C103.691 26.66 104.231 26.7467 104.751 26.92C105.271 27.0933 105.751 27.3467 106.191 27.68V23L108.191 22.62V37H106.211V36.02C105.345 36.78 104.305 37.16 103.091 37.16ZM103.351 35.42C103.938 35.42 104.471 35.3133 104.951 35.1C105.445 34.8867 105.858 34.58 106.191 34.18V29.6C105.858 29.2267 105.445 28.9333 104.951 28.72C104.471 28.4933 103.938 28.38 103.351 28.38C102.711 28.38 102.131 28.5333 101.611 28.84C101.091 29.1467 100.678 29.5667 100.371 30.1C100.065 30.62 99.9113 31.2133 99.9113 31.88C99.9113 32.5467 100.065 33.1467 100.371 33.68C100.678 34.2133 101.091 34.64 101.611 34.96C102.131 35.2667 102.711 35.42 103.351 35.42ZM115.24 37.16C114.293 37.16 113.426 36.9267 112.64 36.46C111.853 35.9933 111.233 35.3667 110.78 34.58C110.326 33.78 110.1 32.8867 110.1 31.9C110.1 30.9133 110.326 30.0267 110.78 29.24C111.246 28.4533 111.873 27.8267 112.66 27.36C113.446 26.8933 114.32 26.66 115.28 26.66C115.84 26.66 116.38 26.7467 116.9 26.92C117.42 27.0933 117.9 27.3467 118.34 27.68V23L120.34 22.62V37H118.36V36.02C117.493 36.78 116.453 37.16 115.24 37.16ZM115.5 35.42C116.086 35.42 116.62 35.3133 117.1 35.1C117.593 34.8867 118.006 34.58 118.34 34.18V29.6C118.006 29.2267 117.593 28.9333 117.1 28.72C116.62 28.4933 116.086 28.38 115.5 28.38C114.86 28.38 114.28 28.5333 113.76 28.84C113.24 29.1467 112.826 29.5667 112.52 30.1C112.213 30.62 112.06 31.2133 112.06 31.88C112.06 32.5467 112.213 33.1467 112.52 33.68C112.826 34.2133 113.24 34.64 113.76 34.96C114.28 35.2667 114.86 35.42 115.5 35.42ZM130.108 37.18C129.375 37.18 128.728 37.0533 128.168 36.8C127.608 36.5333 127.168 36.1667 126.848 35.7C126.528 35.2333 126.368 34.6933 126.368 34.08C126.368 33.12 126.735 32.3667 127.468 31.82C128.201 31.26 129.208 30.98 130.488 30.98C131.488 30.98 132.415 31.1733 133.268 31.56V30.48C133.268 29.7467 133.055 29.2 132.628 28.84C132.215 28.48 131.601 28.3 130.788 28.3C130.321 28.3 129.835 28.3733 129.328 28.52C128.821 28.6533 128.255 28.8667 127.628 29.16L126.888 27.66C127.661 27.3 128.381 27.04 129.048 26.88C129.715 26.7067 130.388 26.62 131.068 26.62C132.388 26.62 133.408 26.9333 134.128 27.56C134.861 28.1867 135.228 29.08 135.228 30.24V37H133.268V36.12C132.815 36.48 132.328 36.7467 131.808 36.92C131.288 37.0933 130.721 37.18 130.108 37.18ZM128.288 34.04C128.288 34.5333 128.495 34.9333 128.908 35.24C129.335 35.5467 129.888 35.7 130.568 35.7C131.101 35.7 131.588 35.62 132.028 35.46C132.481 35.3 132.895 35.0533 133.268 34.72V33C132.881 32.7733 132.475 32.6133 132.048 32.52C131.635 32.4133 131.168 32.36 130.648 32.36C129.915 32.36 129.335 32.5133 128.908 32.82C128.495 33.1133 128.288 33.52 128.288 34.04ZM141.712 37V26.82H143.712V27.86C144.499 27.0333 145.519 26.62 146.772 26.62C147.559 26.62 148.245 26.7867 148.832 27.12C149.432 27.4533 149.899 27.92 150.232 28.52C150.579 29.12 150.752 29.8133 150.752 30.6V37H148.752V30.94C148.752 30.14 148.525 29.5133 148.072 29.06C147.632 28.5933 147.012 28.36 146.212 28.36C145.679 28.36 145.199 28.4733 144.772 28.7C144.345 28.9267 143.992 29.2533 143.712 29.68V37H141.712ZM157.94 37.18C156.94 37.18 156.033 36.9467 155.22 36.48C154.42 36.0133 153.78 35.38 153.3 34.58C152.833 33.78 152.6 32.8867 152.6 31.9C152.6 30.9267 152.826 30.0467 153.28 29.26C153.733 28.46 154.346 27.8267 155.12 27.36C155.893 26.88 156.753 26.64 157.7 26.64C158.646 26.64 159.486 26.88 160.22 27.36C160.953 27.8267 161.533 28.4667 161.96 29.28C162.4 30.08 162.62 30.9867 162.62 32V32.56H154.6C154.706 33.12 154.913 33.62 155.22 34.06C155.54 34.5 155.94 34.8467 156.42 35.1C156.913 35.3533 157.446 35.48 158.02 35.48C158.513 35.48 158.986 35.4067 159.44 35.26C159.906 35.1 160.293 34.8733 160.6 34.58L161.88 35.84C161.28 36.2933 160.66 36.6333 160.02 36.86C159.393 37.0733 158.7 37.18 157.94 37.18ZM154.62 31.06H160.64C160.56 30.5267 160.373 30.06 160.08 29.66C159.8 29.2467 159.446 28.9267 159.02 28.7C158.606 28.46 158.153 28.34 157.66 28.34C157.153 28.34 156.686 28.4533 156.26 28.68C155.833 28.9067 155.473 29.2267 155.18 29.64C154.9 30.04 154.713 30.5133 154.62 31.06ZM166.229 37L163.389 26.82H165.329L167.309 34.3L169.629 26.82H171.349L173.669 34.3L175.649 26.82H177.529L174.669 37H172.749L170.469 29.54L168.169 37H166.229ZM188.018 37.18C187.018 37.18 186.111 36.9467 185.298 36.48C184.498 36.0133 183.858 35.38 183.378 34.58C182.911 33.78 182.678 32.8867 182.678 31.9C182.678 30.9267 182.905 30.0467 183.358 29.26C183.811 28.46 184.425 27.8267 185.198 27.36C185.971 26.88 186.831 26.64 187.778 26.64C188.725 26.64 189.565 26.88 190.298 27.36C191.031 27.8267 191.611 28.4667 192.038 29.28C192.478 30.08 192.698 30.9867 192.698 32V32.56H184.678C184.785 33.12 184.991 33.62 185.298 34.06C185.618 34.5 186.018 34.8467 186.498 35.1C186.991 35.3533 187.525 35.48 188.098 35.48C188.591 35.48 189.065 35.4067 189.518 35.26C189.985 35.1 190.371 34.8733 190.678 34.58L191.958 35.84C191.358 36.2933 190.738 36.6333 190.098 36.86C189.471 37.0733 188.778 37.18 188.018 37.18ZM184.698 31.06H190.718C190.638 30.5267 190.451 30.06 190.158 29.66C189.878 29.2467 189.525 28.9267 189.098 28.7C188.685 28.46 188.231 28.34 187.738 28.34C187.231 28.34 186.765 28.4533 186.338 28.68C185.911 28.9067 185.551 29.2267 185.258 29.64C184.978 30.04 184.791 30.5133 184.698 31.06ZM192.74 37L196.7 31.78L192.9 26.82H195.24L197.86 30.3L200.48 26.82H202.74L198.98 31.76L202.98 37H200.64L197.82 33.24L195 37H192.74ZM204.212 41.08V26.82H206.192V27.8C207.045 27.04 208.085 26.66 209.312 26.66C210.272 26.66 211.139 26.8933 211.912 27.36C212.699 27.8267 213.319 28.4533 213.772 29.24C214.225 30.0267 214.452 30.9133 214.452 31.9C214.452 32.8867 214.219 33.78 213.752 34.58C213.299 35.3667 212.679 35.9933 211.892 36.46C211.119 36.9267 210.245 37.16 209.272 37.16C208.712 37.16 208.172 37.0733 207.652 36.9C207.132 36.7133 206.652 36.4533 206.212 36.12V41.08H204.212ZM209.052 35.42C209.705 35.42 210.285 35.2667 210.792 34.96C211.312 34.6533 211.725 34.24 212.032 33.72C212.339 33.1867 212.492 32.5867 212.492 31.92C212.492 31.2533 212.339 30.6533 212.032 30.12C211.725 29.5867 211.312 29.1667 210.792 28.86C210.285 28.5533 209.705 28.4 209.052 28.4C208.479 28.4 207.945 28.5067 207.452 28.72C206.959 28.9333 206.545 29.2333 206.212 29.62V34.22C206.545 34.5933 206.959 34.8867 207.452 35.1C207.959 35.3133 208.492 35.42 209.052 35.42ZM221.241 37.18C220.241 37.18 219.334 36.9467 218.521 36.48C217.721 36.0133 217.081 35.38 216.601 34.58C216.134 33.78 215.901 32.8867 215.901 31.9C215.901 30.9267 216.127 30.0467 216.581 29.26C217.034 28.46 217.647 27.8267 218.421 27.36C219.194 26.88 220.054 26.64 221.001 26.64C221.947 26.64 222.787 26.88 223.521 27.36C224.254 27.8267 224.834 28.4667 225.261 29.28C225.701 30.08 225.921 30.9867 225.921 32V32.56H217.901C218.007 33.12 218.214 33.62 218.521 34.06C218.841 34.5 219.241 34.8467 219.721 35.1C220.214 35.3533 220.747 35.48 221.321 35.48C221.814 35.48 222.287 35.4067 222.741 35.26C223.207 35.1 223.594 34.8733 223.901 34.58L225.181 35.84C224.581 36.2933 223.961 36.6333 223.321 36.86C222.694 37.0733 222.001 37.18 221.241 37.18ZM217.921 31.06H223.941C223.861 30.5267 223.674 30.06 223.381 29.66C223.101 29.2467 222.747 28.9267 222.321 28.7C221.907 28.46 221.454 28.34 220.961 28.34C220.454 28.34 219.987 28.4533 219.561 28.68C219.134 28.9067 218.774 29.2267 218.481 29.64C218.201 30.04 218.014 30.5133 217.921 31.06ZM227.825 37V26.82H229.825V27.86C230.612 27.0333 231.632 26.62 232.885 26.62C233.672 26.62 234.359 26.7867 234.945 27.12C235.545 27.4533 236.012 27.92 236.345 28.52C236.692 29.12 236.865 29.8133 236.865 30.6V37H234.865V30.94C234.865 30.14 234.639 29.5133 234.185 29.06C233.745 28.5933 233.125 28.36 232.325 28.36C231.792 28.36 231.312 28.4733 230.885 28.7C230.459 28.9267 230.105 29.2533 229.825 29.68V37H227.825ZM242.673 37.2C241.793 37.2 240.966 37.0733 240.193 36.82C239.433 36.5533 238.773 36.18 238.213 35.7L239.313 34.38C239.833 34.7933 240.366 35.1133 240.913 35.34C241.473 35.5533 242.04 35.66 242.613 35.66C243.333 35.66 243.92 35.52 244.373 35.24C244.826 34.96 245.053 34.5933 245.053 34.14C245.053 33.7667 244.92 33.4733 244.653 33.26C244.386 33.0467 243.973 32.9 243.413 32.82L241.573 32.56C240.56 32.4133 239.8 32.1 239.293 31.62C238.786 31.14 238.533 30.5 238.533 29.7C238.533 29.0867 238.7 28.5533 239.033 28.1C239.366 27.6333 239.833 27.2733 240.433 27.02C241.033 26.7533 241.733 26.62 242.533 26.62C243.266 26.62 243.973 26.7267 244.653 26.94C245.333 27.1533 245.986 27.4867 246.613 27.94L245.593 29.26C245.033 28.8867 244.486 28.6133 243.953 28.44C243.433 28.2667 242.906 28.18 242.373 28.18C241.76 28.18 241.266 28.3133 240.893 28.58C240.52 28.8333 240.333 29.1667 240.333 29.58C240.333 29.9533 240.46 30.2467 240.713 30.46C240.98 30.66 241.413 30.8 242.013 30.88L243.853 31.14C244.866 31.2867 245.633 31.6 246.153 32.08C246.673 32.5467 246.933 33.18 246.933 33.98C246.933 34.5933 246.746 35.1467 246.373 35.64C246 36.12 245.493 36.5 244.853 36.78C244.213 37.06 243.486 37.2 242.673 37.2ZM253.448 37.18C252.448 37.18 251.541 36.9467 250.728 36.48C249.928 36.0133 249.288 35.38 248.808 34.58C248.341 33.78 248.108 32.8867 248.108 31.9C248.108 30.9267 248.334 30.0467 248.788 29.26C249.241 28.46 249.854 27.8267 250.628 27.36C251.401 26.88 252.261 26.64 253.208 26.64C254.154 26.64 254.994 26.88 255.728 27.36C256.461 27.8267 257.041 28.4667 257.468 29.28C257.908 30.08 258.128 30.9867 258.128 32V32.56H250.108C250.214 33.12 250.421 33.62 250.728 34.06C251.048 34.5 251.448 34.8467 251.928 35.1C252.421 35.3533 252.954 35.48 253.528 35.48C254.021 35.48 254.494 35.4067 254.948 35.26C255.414 35.1 255.801 34.8733 256.108 34.58L257.388 35.84C256.788 36.2933 256.168 36.6333 255.528 36.86C254.901 37.0733 254.208 37.18 253.448 37.18ZM250.128 31.06H256.148C256.068 30.5267 255.881 30.06 255.588 29.66C255.308 29.2467 254.954 28.9267 254.528 28.7C254.114 28.46 253.661 28.34 253.168 28.34C252.661 28.34 252.194 28.4533 251.768 28.68C251.341 28.9067 250.981 29.2267 250.688 29.64C250.408 30.04 250.221 30.5133 250.128 31.06ZM101.122 63.2C100.136 63.2 99.2358 62.9667 98.4224 62.5C97.6224 62.0333 96.9891 61.4 96.5224 60.6C96.0558 59.8 95.8224 58.9067 95.8224 57.92C95.8224 56.9333 96.0558 56.04 96.5224 55.24C96.9891 54.44 97.6224 53.8067 98.4224 53.34C99.2358 52.86 100.136 52.62 101.122 52.62C102.122 52.62 103.022 52.86 103.822 53.34C104.622 53.8067 105.256 54.44 105.722 55.24C106.189 56.04 106.422 56.9333 106.422 57.92C106.422 58.9067 106.189 59.8 105.722 60.6C105.256 61.4 104.622 62.0333 103.822 62.5C103.022 62.9667 102.122 63.2 101.122 63.2ZM101.122 61.44C101.749 61.44 102.316 61.2867 102.822 60.98C103.329 60.66 103.729 60.2333 104.022 59.7C104.316 59.1667 104.462 58.5667 104.462 57.9C104.462 57.2467 104.309 56.66 104.002 56.14C103.709 55.6067 103.309 55.18 102.802 54.86C102.309 54.54 101.749 54.38 101.122 54.38C100.496 54.38 99.9291 54.54 99.4224 54.86C98.9291 55.18 98.5291 55.6067 98.2224 56.14C97.9291 56.66 97.7824 57.2467 97.7824 57.9C97.7824 58.5667 97.9291 59.1667 98.2224 59.7C98.5158 60.2333 98.9158 60.66 99.4224 60.98C99.9291 61.2867 100.496 61.44 101.122 61.44ZM108.314 63V52.82H110.314V54.12C110.634 53.64 111.027 53.2667 111.494 53C111.974 52.72 112.514 52.58 113.114 52.58C113.527 52.5933 113.867 52.6533 114.134 52.76V54.56C113.947 54.48 113.754 54.4267 113.554 54.4C113.354 54.36 113.154 54.34 112.954 54.34C112.367 54.34 111.847 54.5 111.394 54.82C110.94 55.1267 110.58 55.58 110.314 56.18V63H108.314ZM119.915 63V52.82H121.915V63H119.915ZM120.915 51.18C120.582 51.18 120.295 51.06 120.055 50.82C119.815 50.5667 119.695 50.2733 119.695 49.94C119.695 49.5933 119.815 49.3067 120.055 49.08C120.295 48.84 120.582 48.72 120.915 48.72C121.262 48.72 121.555 48.84 121.795 49.08C122.035 49.3067 122.155 49.5933 122.155 49.94C122.155 50.2733 122.035 50.5667 121.795 50.82C121.555 51.06 121.262 51.18 120.915 51.18ZM124.271 63V52.82H126.271V53.86C127.057 53.0333 128.077 52.62 129.331 52.62C130.117 52.62 130.804 52.7867 131.391 53.12C131.991 53.4533 132.457 53.92 132.791 54.52C133.137 55.12 133.311 55.8133 133.311 56.6V63H131.311V56.94C131.311 56.14 131.084 55.5133 130.631 55.06C130.191 54.5933 129.571 54.36 128.771 54.36C128.237 54.36 127.757 54.4733 127.331 54.7C126.904 54.9267 126.551 55.2533 126.271 55.68V63H124.271ZM140.398 63.18C139.425 63.18 138.538 62.9467 137.738 62.48C136.938 62.0133 136.305 61.38 135.838 60.58C135.385 59.78 135.158 58.8867 135.158 57.9C135.158 56.9133 135.392 56.0267 135.858 55.24C136.325 54.44 136.952 53.8067 137.738 53.34C138.538 52.86 139.425 52.62 140.398 52.62C141.172 52.62 141.912 52.7667 142.618 53.06C143.338 53.3533 143.958 53.7667 144.478 54.3L143.238 55.68C142.852 55.2533 142.418 54.9333 141.938 54.72C141.458 54.5067 140.958 54.4 140.438 54.4C139.825 54.4 139.265 54.5533 138.758 54.86C138.265 55.1667 137.872 55.5867 137.578 56.12C137.285 56.6533 137.138 57.2467 137.138 57.9C137.138 58.5533 137.285 59.1467 137.578 59.68C137.872 60.2133 138.272 60.64 138.778 60.96C139.285 61.2667 139.852 61.42 140.478 61.42C140.998 61.42 141.485 61.32 141.938 61.12C142.392 60.9067 142.818 60.6 143.218 60.2L144.438 61.48C143.905 62.0267 143.285 62.4467 142.578 62.74C141.885 63.0333 141.158 63.18 140.398 63.18ZM150.595 63.2C149.608 63.2 148.708 62.9667 147.895 62.5C147.095 62.0333 146.462 61.4 145.995 60.6C145.528 59.8 145.295 58.9067 145.295 57.92C145.295 56.9333 145.528 56.04 145.995 55.24C146.462 54.44 147.095 53.8067 147.895 53.34C148.708 52.86 149.608 52.62 150.595 52.62C151.595 52.62 152.495 52.86 153.295 53.34C154.095 53.8067 154.728 54.44 155.195 55.24C155.662 56.04 155.895 56.9333 155.895 57.92C155.895 58.9067 155.662 59.8 155.195 60.6C154.728 61.4 154.095 62.0333 153.295 62.5C152.495 62.9667 151.595 63.2 150.595 63.2ZM150.595 61.44C151.222 61.44 151.788 61.2867 152.295 60.98C152.802 60.66 153.202 60.2333 153.495 59.7C153.788 59.1667 153.935 58.5667 153.935 57.9C153.935 57.2467 153.782 56.66 153.475 56.14C153.182 55.6067 152.782 55.18 152.275 54.86C151.782 54.54 151.222 54.38 150.595 54.38C149.968 54.38 149.402 54.54 148.895 54.86C148.402 55.18 148.002 55.6067 147.695 56.14C147.402 56.66 147.255 57.2467 147.255 57.9C147.255 58.5667 147.402 59.1667 147.695 59.7C147.988 60.2333 148.388 60.66 148.895 60.98C149.402 61.2867 149.968 61.44 150.595 61.44ZM157.786 63V52.82H159.786V53.8C160.546 53.0133 161.5 52.62 162.646 52.62C163.34 52.62 163.953 52.7733 164.486 53.08C165.033 53.3867 165.466 53.8 165.786 54.32C166.213 53.76 166.713 53.34 167.286 53.06C167.86 52.7667 168.506 52.62 169.226 52.62C169.986 52.62 170.646 52.7867 171.206 53.12C171.78 53.4533 172.226 53.92 172.546 54.52C172.88 55.12 173.046 55.8133 173.046 56.6V63H171.046V56.94C171.046 56.14 170.833 55.5133 170.406 55.06C169.993 54.5933 169.426 54.36 168.706 54.36C168.213 54.36 167.766 54.4733 167.366 54.7C166.966 54.9267 166.62 55.2733 166.326 55.74C166.353 55.8733 166.373 56.0133 166.386 56.16C166.4 56.3067 166.406 56.4533 166.406 56.6V63H164.426V56.94C164.426 56.14 164.213 55.5133 163.786 55.06C163.373 54.5933 162.806 54.36 162.086 54.36C161.606 54.36 161.173 54.4667 160.786 54.68C160.4 54.88 160.066 55.1867 159.786 55.6V63H157.786ZM180.225 63.18C179.225 63.18 178.318 62.9467 177.505 62.48C176.705 62.0133 176.065 61.38 175.585 60.58C175.118 59.78 174.885 58.8867 174.885 57.9C174.885 56.9267 175.112 56.0467 175.565 55.26C176.018 54.46 176.632 53.8267 177.405 53.36C178.178 52.88 179.038 52.64 179.985 52.64C180.932 52.64 181.772 52.88 182.505 53.36C183.238 53.8267 183.818 54.4667 184.245 55.28C184.685 56.08 184.905 56.9867 184.905 58V58.56H176.885C176.992 59.12 177.198 59.62 177.505 60.06C177.825 60.5 178.225 60.8467 178.705 61.1C179.198 61.3533 179.732 61.48 180.305 61.48C180.798 61.48 181.272 61.4067 181.725 61.26C182.192 61.1 182.578 60.8733 182.885 60.58L184.165 61.84C183.565 62.2933 182.945 62.6333 182.305 62.86C181.678 63.0733 180.985 63.18 180.225 63.18ZM176.905 57.06H182.925C182.845 56.5267 182.658 56.06 182.365 55.66C182.085 55.2467 181.732 54.9267 181.305 54.7C180.892 54.46 180.438 54.34 179.945 54.34C179.438 54.34 178.972 54.4533 178.545 54.68C178.118 54.9067 177.758 55.2267 177.465 55.64C177.185 56.04 176.998 56.5133 176.905 57.06ZM190.989 63V52.82H192.989V54.12C193.309 53.64 193.703 53.2667 194.169 53C194.649 52.72 195.189 52.58 195.789 52.58C196.203 52.5933 196.543 52.6533 196.809 52.76V54.56C196.623 54.48 196.429 54.4267 196.229 54.4C196.029 54.36 195.829 54.34 195.629 54.34C195.043 54.34 194.523 54.5 194.069 54.82C193.616 55.1267 193.256 55.58 192.989 56.18V63H190.989ZM202.705 63.18C201.705 63.18 200.799 62.9467 199.985 62.48C199.185 62.0133 198.545 61.38 198.065 60.58C197.599 59.78 197.365 58.8867 197.365 57.9C197.365 56.9267 197.592 56.0467 198.045 55.26C198.499 54.46 199.112 53.8267 199.885 53.36C200.659 52.88 201.519 52.64 202.465 52.64C203.412 52.64 204.252 52.88 204.985 53.36C205.719 53.8267 206.299 54.4667 206.725 55.28C207.165 56.08 207.385 56.9867 207.385 58V58.56H199.365C199.472 59.12 199.679 59.62 199.985 60.06C200.305 60.5 200.705 60.8467 201.185 61.1C201.679 61.3533 202.212 61.48 202.785 61.48C203.279 61.48 203.752 61.4067 204.205 61.26C204.672 61.1 205.059 60.8733 205.365 60.58L206.645 61.84C206.045 62.2933 205.425 62.6333 204.785 62.86C204.159 63.0733 203.465 63.18 202.705 63.18ZM199.385 57.06H205.405C205.325 56.5267 205.139 56.06 204.845 55.66C204.565 55.2467 204.212 54.9267 203.785 54.7C203.372 54.46 202.919 54.34 202.425 54.34C201.919 54.34 201.452 54.4533 201.025 54.68C200.599 54.9067 200.239 55.2267 199.945 55.64C199.665 56.04 199.479 56.5133 199.385 57.06ZM209.29 67.08V52.82H211.27V53.8C212.124 53.04 213.164 52.66 214.39 52.66C215.35 52.66 216.217 52.8933 216.99 53.36C217.777 53.8267 218.397 54.4533 218.85 55.24C219.304 56.0267 219.53 56.9133 219.53 57.9C219.53 58.8867 219.297 59.78 218.83 60.58C218.377 61.3667 217.757 61.9933 216.97 62.46C216.197 62.9267 215.324 63.16 214.35 63.16C213.79 63.16 213.25 63.0733 212.73 62.9C212.21 62.7133 211.73 62.4533 211.29 62.12V67.08H209.29ZM214.13 61.42C214.784 61.42 215.364 61.2667 215.87 60.96C216.39 60.6533 216.804 60.24 217.11 59.72C217.417 59.1867 217.57 58.5867 217.57 57.92C217.57 57.2533 217.417 56.6533 217.11 56.12C216.804 55.5867 216.39 55.1667 215.87 54.86C215.364 54.5533 214.784 54.4 214.13 54.4C213.557 54.4 213.024 54.5067 212.53 54.72C212.037 54.9333 211.624 55.2333 211.29 55.62V60.22C211.624 60.5933 212.037 60.8867 212.53 61.1C213.037 61.3133 213.57 61.42 214.13 61.42ZM226.279 63.2C225.292 63.2 224.392 62.9667 223.579 62.5C222.779 62.0333 222.145 61.4 221.679 60.6C221.212 59.8 220.979 58.9067 220.979 57.92C220.979 56.9333 221.212 56.04 221.679 55.24C222.145 54.44 222.779 53.8067 223.579 53.34C224.392 52.86 225.292 52.62 226.279 52.62C227.279 52.62 228.179 52.86 228.979 53.34C229.779 53.8067 230.412 54.44 230.879 55.24C231.345 56.04 231.579 56.9333 231.579 57.92C231.579 58.9067 231.345 59.8 230.879 60.6C230.412 61.4 229.779 62.0333 228.979 62.5C228.179 62.9667 227.279 63.2 226.279 63.2ZM226.279 61.44C226.905 61.44 227.472 61.2867 227.979 60.98C228.485 60.66 228.885 60.2333 229.179 59.7C229.472 59.1667 229.619 58.5667 229.619 57.9C229.619 57.2467 229.465 56.66 229.159 56.14C228.865 55.6067 228.465 55.18 227.959 54.86C227.465 54.54 226.905 54.38 226.279 54.38C225.652 54.38 225.085 54.54 224.579 54.86C224.085 55.18 223.685 55.6067 223.379 56.14C223.085 56.66 222.939 57.2467 222.939 57.9C222.939 58.5667 223.085 59.1667 223.379 59.7C223.672 60.2333 224.072 60.66 224.579 60.98C225.085 61.2867 225.652 61.44 226.279 61.44ZM233.47 63V52.82H235.47V54.12C235.79 53.64 236.183 53.2667 236.65 53C237.13 52.72 237.67 52.58 238.27 52.58C238.683 52.5933 239.023 52.6533 239.29 52.76V54.56C239.103 54.48 238.91 54.4267 238.71 54.4C238.51 54.36 238.31 54.34 238.11 54.34C237.523 54.34 237.003 54.5 236.55 54.82C236.097 55.1267 235.737 55.58 235.47 56.18V63H233.47ZM245.252 63.18C244.265 63.18 243.512 62.9533 242.992 62.5C242.472 62.0333 242.212 61.36 242.212 60.48V54.5H240.052V52.82H242.212V50.22L244.192 49.74V52.82H247.192V54.5H244.192V60.02C244.192 60.54 244.305 60.9133 244.532 61.14C244.772 61.3533 245.158 61.46 245.692 61.46C245.972 61.46 246.218 61.44 246.432 61.4C246.658 61.36 246.898 61.3 247.152 61.22V62.9C246.885 62.9933 246.572 63.06 246.212 63.1C245.865 63.1533 245.545 63.18 245.252 63.18Z" fill="white"/>
<rect x="90.7938" y="139" width="48" height="48" rx="12" fill="#137CF8"/>
<path d="M114.794 152L114.794 174" stroke="white" stroke-width="2" stroke-linecap="round"/>
<path d="M103.794 163H125.794" stroke="white" stroke-width="2" stroke-linecap="round"/>
<path d="M89.5564 155.555C90.0784 156.528 89.7124 157.741 88.7389 158.263L72.8757 166.769C71.9023 167.291 70.69 166.925 70.168 165.952C69.646 164.978 70.012 163.766 70.9854 163.244L85.0861 155.683L77.5248 141.582C77.0028 140.608 77.3688 139.396 78.3423 138.874C79.3157 138.352 80.528 138.718 81.05 139.692L89.5564 155.555ZM53.8732 30.5447C54.953 30.3124 56.0168 30.9995 56.2491 32.0794C56.4814 33.1592 55.7943 34.2229 54.7145 34.4553L53.8732 30.5447ZM87.2158 158.415C33.9648 142.339 5.60796 115.079 0.749236 89.0148C-1.69283 75.9146 1.86504 63.309 10.9703 52.97C20.0413 42.6698 34.529 34.7064 53.8732 30.5447L54.7145 34.4553C35.9541 38.4913 22.327 46.1267 13.9721 55.6136C5.65148 65.0617 2.47242 76.4314 4.6815 88.2818C9.12506 112.119 35.6228 138.661 88.3718 154.585L87.2158 158.415Z" fill="white"/>
</svg>
