<svg width="45" height="45" viewBox="0 0 45 45" fill="none" xmlns="http://www.w3.org/2000/svg">
<rect width="45" height="45" rx="10" fill="#4CD964"/>
<path d="M0 10C0 4.47715 4.47715 0 10 0H35C40.5228 0 45 4.47715 45 10V35C45 40.5228 40.5228 45 35 45H10C4.47715 45 0 40.5228 0 35V10Z" fill="#4CD964"/>
<path d="M12.3363 8.00304C12.2448 8.01148 12.1575 8.04588 12.0849 8.10215C12.0122 8.15842 11.957 8.23422 11.9259 8.32072C11.8948 8.40722 11.889 8.50083 11.9092 8.59051C11.9294 8.68019 11.9747 8.76227 12.0399 8.82709L15.2832 12.0666V13.119L14.1165 14.2857H13.0678L9.82456 11.0424C9.75686 10.9751 9.67075 10.9294 9.5771 10.911C9.48344 10.8926 9.38643 10.9023 9.29829 10.939C9.21016 10.9756 9.13485 11.0376 9.08186 11.1169C9.02887 11.1963 9.00057 11.2896 9.00053 11.3851V15.2523C9.00155 15.3796 9.05277 15.5014 9.14306 15.5912L11.5585 18.0094C11.6037 18.0541 11.6572 18.0894 11.716 18.1134C11.7747 18.1374 11.8377 18.1496 11.9012 18.1492H15.5654L19.7149 22.2986L23.2989 18.7155L19.1504 14.567V10.8999C19.1494 10.7726 19.0982 10.6509 19.0079 10.5611L16.5924 8.14184C16.5011 8.05199 16.3779 8.00202 16.2498 8.00298H12.3826C12.3672 8.00224 12.3517 8.0023 12.3363 8.00304ZM36.0106 8.00304C35.9534 8.01034 35.8977 8.02679 35.8464 8.0531L31.0164 10.4676C30.8527 10.5492 30.7486 10.717 30.7483 10.8999V12.6339L19.8338 23.5483L22.4494 26.1668L33.3639 15.2523H35.0978C35.2808 15.252 35.4475 15.1478 35.5292 14.9842L37.9475 10.1505C38.0393 9.96429 38.0022 9.7399 37.855 9.59355L36.4071 8.14178C36.3031 8.03748 36.1569 7.98678 36.0106 8.00304ZM27.2841 22.7007L23.7001 26.2848L27.8476 30.4323V34.0994C27.8478 34.1632 27.8605 34.2262 27.8852 34.285C27.9098 34.3438 27.9458 34.3972 27.9911 34.4421L30.4057 36.8575C30.4506 36.9027 30.504 36.9385 30.5628 36.9629C30.6216 36.9874 30.6846 37 30.7483 37H34.6155C34.7114 37 34.8051 36.9714 34.8848 36.9179C34.9644 36.8645 35.0263 36.7885 35.0626 36.6998C35.099 36.611 35.1081 36.5134 35.0888 36.4195C35.0695 36.3255 35.0227 36.2394 34.9544 36.1722L31.7158 32.9327V31.884L32.8815 30.7136H33.9312L37.1735 33.9569C37.2412 34.0242 37.3273 34.0699 37.421 34.0883C37.5146 34.1067 37.6116 34.097 37.6998 34.0603C37.7879 34.0237 37.8632 33.9617 37.9162 33.8824C37.9692 33.803 37.9975 33.7097 37.9975 33.6142V29.7508C37.9975 29.6871 37.9849 29.624 37.9605 29.5652C37.936 29.5064 37.9002 29.4531 37.855 29.4081L35.4395 26.9889C35.3482 26.8991 35.225 26.8491 35.0969 26.8501H31.4336L27.2841 22.7007ZM18.1763 23.4643C18.0503 23.4663 17.9301 23.5175 17.8412 23.6068L16.7321 24.7159L21.2818 29.2637L22.3899 28.1556C22.48 28.065 22.5305 27.9425 22.5305 27.8148C22.5305 27.6871 22.48 27.5646 22.3899 27.474L18.5265 23.6068C18.4807 23.5608 18.4261 23.5244 18.3659 23.4999C18.3057 23.4754 18.2413 23.4633 18.1763 23.4643ZM16.0497 25.3984L10.0284 31.4206C8.71794 32.7311 8.64086 34.8243 9.90668 36.0901C11.1725 37.3559 13.2667 37.2789 14.5772 35.9683L20.5974 29.9481L16.0497 25.3984Z" fill="white"/>
</svg>
