<svg width="32" height="32" viewBox="0 0 32 32" fill="none" xmlns="http://www.w3.org/2000/svg">
<path d="M6.88724e-08 9.99999C-0.000271469 12.3146 0.802392 14.5576 2.27111 16.3466C3.73983 18.1355 5.78364 19.3596 8.054 19.81C8.18476 18.3773 8.55242 16.9763 9.142 15.664C7.39 15.072 6.264 13.728 6 11.82H5V10.968H5.932V10.1C5.93067 10.0067 5.93333 9.91666 5.94 9.82999H5V8.97599H6.022C6.472 6.47999 8.426 4.99999 11.362 4.99999C11.994 4.99999 12.542 5.06199 13 5.16999V6.63599C12.465 6.51772 11.9179 6.46267 11.37 6.47199C9.532 6.47199 8.294 7.40399 7.902 8.97599H11.736V9.82999H7.776C7.77067 9.92333 7.76867 10.0213 7.77 10.124V10.968H11.736V11.822H7.86C8.096 13.026 8.796 13.882 9.87 14.28C10.9231 12.5359 12.3713 11.0638 14.0979 9.98229C15.8246 8.90081 17.7812 8.24028 19.81 8.05399C19.3195 5.62502 17.945 3.46453 15.9527 1.99102C13.9603 0.517513 11.4921 -0.164131 9.02592 0.0781254C6.55979 0.320382 4.27132 1.4693 2.60383 3.30232C0.936326 5.13534 0.00847401 7.522 6.88724e-08 9.99999ZM32 21C32 23.9174 30.8411 26.7153 28.7782 28.7782C26.7153 30.8411 23.9174 32 21 32C18.0826 32 15.2847 30.8411 13.2218 28.7782C11.1589 26.7153 10 23.9174 10 21C10 18.0826 11.1589 15.2847 13.2218 13.2218C15.2847 11.1589 18.0826 9.99999 21 9.99999C23.9174 9.99999 26.7153 11.1589 28.7782 13.2218C30.8411 15.2847 32 18.0826 32 21ZM16.5 23.644C16.638 25.314 17.992 26.614 20.428 26.768V28H21.508V26.76C24.026 26.588 25.5 25.28 25.5 23.38C25.5 21.65 24.374 20.76 22.36 20.3L21.508 20.1V16.748C22.588 16.868 23.276 17.442 23.44 18.238H25.336C25.196 16.63 23.778 15.372 21.508 15.234V14H20.428V15.258C18.276 15.464 16.812 16.722 16.812 18.502C16.812 20.076 17.9 21.078 19.712 21.488L20.428 21.658V25.218C19.32 25.058 18.588 24.466 18.422 23.644H16.5ZM20.42 19.854C19.356 19.614 18.78 19.126 18.78 18.39C18.78 17.57 19.402 16.952 20.428 16.772V19.852H20.418L20.42 19.854ZM21.664 21.942C22.954 22.232 23.55 22.702 23.55 23.534C23.55 24.482 22.81 25.134 21.51 25.254V21.906L21.664 21.942Z" fill="black"/>
</svg>
