<svg width="34" height="25" viewBox="0 0 34 25" fill="none" xmlns="http://www.w3.org/2000/svg">
<path d="M15.2937 19.9788C14.1033 19.1578 12.7805 18.4976 11.372 18.0121C9.41122 17.3378 7.28856 17.0059 5.13307 17.061C4.81057 17.068 4.54201 16.8135 4.53498 16.491L4.53263 2.00304L2.70316 2.80754V19.9799H15.2937V19.9788ZM2.70316 21.1515V22.3923H14.4622C14.7706 22.3923 15.0239 22.6315 15.0462 22.9341C15.106 23.3011 15.3288 23.6342 15.6537 23.8793C16.0067 24.1455 16.4793 24.3085 17 24.3085C17.5207 24.3085 17.9933 24.1455 18.3463 23.8793C18.6712 23.6342 18.894 23.3011 18.9538 22.9341C18.9761 22.6315 19.2294 22.3923 19.5378 22.3923H31.2957V21.1515H16.9918H2.70199H2.70316ZM31.2968 19.9788V2.80637L29.4662 2.0007L29.4685 16.4758C29.4685 16.7995 29.2059 17.0622 28.8822 17.0622L28.8188 17.0586C26.681 17.0094 24.5759 17.3413 22.6291 18.0109C21.2195 18.4952 19.8967 19.1567 18.7075 19.9776H31.298L31.2968 19.9788ZM1.53042 22.3923V20.5651V4.68392L0 5.38287V22.3923H1.53042ZM32.4684 4.68392L32.4696 20.5651V22.3923H34V5.38287L32.4684 4.68392ZM17.5864 2.71841V19.3431C18.9831 18.3064 20.5604 17.4843 22.2468 16.9038C24.1502 16.2483 26.2013 15.8976 28.2935 15.8859V0.120799C26.4042 -0.113749 24.4973 -0.00351228 22.6925 0.423364C20.8349 0.861968 19.0886 1.63832 17.5852 2.71724L17.5864 2.71841ZM16.4136 19.3431V2.71841C14.9102 1.63949 13.1628 0.863141 11.3052 0.423364C9.50035 -0.00351228 7.59347 -0.112576 5.70419 0.120799V15.8859C7.79753 15.8965 9.84748 16.2483 11.7508 16.9038C13.4384 17.4843 15.0169 18.3064 16.4125 19.3431H16.4136Z" fill="white"/>
</svg>
