<svg width="26" height="26" viewBox="0 0 26 26" fill="none" xmlns="http://www.w3.org/2000/svg">
<path d="M17.5998 12.3368C20.5331 12.3368 22.933 9.94909 22.933 7.03075C22.933 4.11242 20.5331 1.7247 17.5998 1.7247C17.4664 1.7247 17.3332 1.7247 17.1998 1.7247C17.9998 3.05122 18.5331 4.64303 18.5331 6.23485C18.5331 8.48992 17.5998 10.6123 16.1332 12.2042C16.5332 12.3368 17.0664 12.3368 17.5998 12.3368Z" fill="white"/>
<path d="M19.867 15.1221H18.5337C20.5336 16.8466 21.867 19.4998 21.867 22.418C21.867 23.0814 21.7336 23.6119 21.6002 24.1426C23.3336 23.8773 24.4003 23.4793 25.0669 23.0814C25.7335 22.6834 26.0003 22.0201 26.0003 21.2243C26.0003 17.908 23.2002 15.1221 19.867 15.1221Z" fill="white"/>
<path d="M9.6003 12.3365C11.2003 12.3365 12.5336 11.8061 13.7336 10.7449C15.0669 9.68355 15.7335 7.95908 15.7335 6.23462C15.7335 4.9081 15.3335 3.58158 14.5336 2.65303C13.4669 1.06122 11.7336 0 9.6003 0C6.26701 0 3.46704 2.78568 3.46704 6.10197C3.46704 9.5509 6.26701 12.3365 9.6003 12.3365Z" fill="white"/>
<path d="M13.1998 15.5207C12.7999 15.5207 12.5331 15.388 12.1331 15.388H7.06658C3.19996 15.388 0 18.5718 0 22.4185C0 23.3471 0.399992 24.0104 1.06665 24.541C2.13331 25.2043 4.6666 26 9.59987 26C14.5332 26 16.9331 25.2043 18.1331 24.541C18.1331 24.541 18.2665 24.4084 18.3997 24.4084C18.9331 24.0104 19.3331 23.3471 19.3331 22.4185C19.1997 18.9697 16.6664 16.0514 13.1998 15.5207Z" fill="white"/>
</svg>
