<svg width="31" height="33" viewBox="0 0 31 33" fill="none" xmlns="http://www.w3.org/2000/svg">
<path d="M3.41223 23.9687C4.46328 24.5594 5.65742 24.8601 6.8683 24.839L9.97118 24.7577L14.2958 24.6268C14.3799 26.5443 14.5192 28.463 14.7138 30.3829C11.3504 30.4105 7.99217 30.6468 4.65916 31.0904C4.54744 31.0904 4.46095 31.3699 4.46095 31.699C4.46095 32.028 4.54744 32.2968 4.65916 32.3075H4.68799C11.7226 33.2308 18.8511 33.2308 25.8856 32.3075C25.9974 32.2862 26.0838 32.0138 26.0838 31.6813C26.0838 31.3487 25.9974 31.0763 25.8856 31.0551H25.8568C22.7006 30.6469 19.5224 30.4248 16.3391 30.3899C16.5385 28.437 16.6791 26.4853 16.7608 24.5348C16.7968 24.5348 16.8328 24.5348 16.8725 24.556H16.995L22.6674 24.7294L24.0837 24.7683C24.6233 24.7821 25.1626 24.7346 25.691 24.6268C26.7696 24.4031 27.7735 23.9164 28.6101 23.2116C29.4623 22.5019 30.1223 21.5961 30.531 20.575C30.9398 19.554 31.0846 18.4494 30.9526 17.36C30.8325 16.4247 30.5138 15.5246 30.0172 14.7177C29.5206 13.9109 28.8571 13.2153 28.0695 12.6759C28.293 11.7339 28.3105 10.7561 28.1208 9.80701C27.9312 8.85791 27.5387 7.95908 26.9693 7.16978C26.3999 6.38047 25.6666 5.71864 24.8176 5.22793C23.9686 4.73722 23.0233 4.42879 22.044 4.32296C21.5188 3.04592 20.6169 1.95208 19.454 1.18181C18.2911 0.411543 16.9203 0 15.5175 0C14.1146 0 12.7438 0.411543 11.5809 1.18181C10.418 1.95208 9.51608 3.04592 8.99094 4.32296C8.01014 4.42828 7.06315 4.73621 6.21223 5.22649C5.36132 5.71678 4.62575 6.37832 4.05388 7.16763C3.48201 7.95693 3.08679 8.85613 2.89421 9.8061C2.70164 10.7561 2.71606 11.7353 2.93653 12.6794C2.06222 13.2812 1.34219 14.0741 0.833136 14.9956C0.324085 15.9171 0.0399205 16.9421 0.00302416 17.9897C-0.0336684 19.196 0.264118 20.3894 0.864576 21.4425C1.46503 22.4956 2.34561 23.3687 3.41223 23.9687ZM2.23379 18.0605C2.2955 17.2533 2.57598 16.477 3.04615 15.812C3.51632 15.147 4.15908 14.6176 4.90782 14.2785C5.18107 14.1552 5.39656 13.9347 5.51091 13.6617C5.62525 13.3886 5.62996 13.0831 5.52407 12.8068V12.782C5.26835 12.0973 5.1898 11.361 5.29547 10.6392C5.40114 9.91731 5.68773 9.23251 6.12951 8.64623C6.56404 8.06578 7.13856 7.60031 7.80151 7.29157C8.46447 6.98283 9.19513 6.84048 9.92794 6.8773C10.2243 6.89662 10.5182 6.81291 10.7581 6.64085C10.9979 6.46878 11.1684 6.21934 11.2397 5.93623V5.90085C11.4854 4.96821 12.0392 4.14187 12.8143 3.55116C13.5895 2.96044 14.5422 2.63869 15.5235 2.63626C16.5048 2.63384 17.4592 2.95087 18.2374 3.53775C19.0155 4.12462 19.5735 4.94821 19.824 5.87962V5.91854C19.8946 6.19823 20.0633 6.44453 20.3007 6.61408C20.538 6.78363 20.8286 6.86556 21.1214 6.84546C21.8576 6.80602 22.5923 6.94706 23.2592 7.25587C23.9261 7.56467 24.5042 8.03154 24.9414 8.61439C25.3872 9.20353 25.6766 9.8923 25.7835 10.6186C25.8905 11.3449 25.8116 12.086 25.5541 12.7749V12.8068C25.4535 13.0736 25.4597 13.368 25.5713 13.6306C25.683 13.8932 25.8919 14.1045 26.1559 14.2219C26.8586 14.5376 27.4708 15.0191 27.938 15.6234C28.4052 16.2278 28.7128 16.9361 28.8336 17.6855C28.9524 18.4493 28.8771 19.2301 28.6142 19.9585C28.3514 20.6868 27.9093 21.3401 27.3272 21.8602C26.733 22.3951 26.012 22.7758 25.2297 22.9675C24.827 23.0626 24.415 23.1148 24.0008 23.1232L22.5593 23.1621L16.8581 23.3354C16.8389 23.3334 16.8196 23.3334 16.8004 23.3354C16.8509 21.6939 16.8473 20.0558 16.8184 18.4143C19.2205 17.7946 21.3729 16.4703 22.9882 14.6181C22.945 14.4093 22.8579 14.2117 22.7323 14.0379C22.6398 13.8465 22.5086 13.6756 22.3467 13.5356C20.2854 13.9297 18.3619 14.8373 16.7608 16.1713C16.6527 13.6452 16.4617 11.1227 16.1625 8.5967C16.1409 8.47288 15.8598 8.37735 15.5247 8.37735C15.1895 8.37735 14.9048 8.47288 14.8868 8.5967V8.63208C14.5336 11.6133 14.3162 14.5969 14.2345 17.5829C12.653 16.2569 10.7482 15.3561 8.70624 14.9684C8.663 14.9684 8.49362 15.1701 8.32424 15.4531C8.1979 15.6199 8.11054 15.8119 8.06837 16.0156C9.65564 17.8886 11.7965 19.2312 14.1949 19.8577C14.1949 20.9898 14.1949 22.1184 14.2309 23.2505L9.88109 23.1196L6.80703 23.0347C5.94453 22.9981 5.10798 22.7341 4.38527 22.2705C3.67611 21.8216 3.10249 21.1943 2.72411 20.4538C2.34573 19.7134 2.17641 18.8869 2.23379 18.0605Z" fill="white"/>
</svg>
