<svg width="26" height="26" viewBox="0 0 26 26" fill="none" xmlns="http://www.w3.org/2000/svg">
<path fill-rule="evenodd" clip-rule="evenodd" d="M16.4142 12.2138L21.6627 19.1125C23.0972 20.9981 22.7316 23.6897 20.846 25.1242C20.0992 25.6924 19.1868 26 18.2484 26H7.75144C5.38213 26 3.46143 24.0793 3.46143 21.71C3.46143 20.7717 3.76908 19.8592 4.33721 19.1125L9.58571 12.2138C11.0203 10.3281 13.7118 9.96247 15.5975 11.397C15.9053 11.6312 16.18 11.9059 16.4142 12.2138ZM8.66667 0C10.2622 0 11.5556 1.2934 11.5556 2.88889V4.33333C11.5556 5.92882 10.2622 7.22222 8.66667 7.22222C7.07118 7.22222 5.77778 5.92882 5.77778 4.33333V2.88889C5.77778 1.2934 7.07118 0 8.66667 0ZM2.88889 7.22222C4.48438 7.22222 5.77778 8.51562 5.77778 10.1111V11.5556C5.77778 13.151 4.48438 14.4444 2.88889 14.4444C1.2934 14.4444 0 13.151 0 11.5556V10.1111C0 8.51562 1.2934 7.22222 2.88889 7.22222ZM17.3333 0C18.9288 0 20.2222 1.2934 20.2222 2.88889V4.33333C20.2222 5.92882 18.9288 7.22222 17.3333 7.22222C15.7378 7.22222 14.4444 5.92882 14.4444 4.33333V2.88889C14.4444 1.2934 15.7378 0 17.3333 0ZM23.1111 7.22222C24.7066 7.22222 26 8.51562 26 10.1111V11.5556C26 13.151 24.7066 14.4444 23.1111 14.4444C21.5156 14.4444 20.2222 13.151 20.2222 11.5556V10.1111C20.2222 8.51562 21.5156 7.22222 23.1111 7.22222Z" fill="white"/>
</svg>
