<svg width="23" height="34" viewBox="0 0 23 34" fill="none" xmlns="http://www.w3.org/2000/svg">
<path d="M17.7253 0H5.28617C3.88552 -1.37534e-06 2.54212 0.518991 1.55099 1.443C0.559862 2.36702 0.0020314 3.62051 0 4.92821V29.0718C0.0020314 30.3795 0.559862 31.633 1.55099 32.557C2.54212 33.481 3.88552 34 5.28617 34H17.7253C18.4183 34 19.1045 33.8725 19.7447 33.6248C20.3849 33.3771 20.9666 33.014 21.4564 32.5563C21.9463 32.0987 22.3347 31.5554 22.5996 30.9575C22.8644 30.3596 23.0005 29.7188 23 29.0718V4.92821C23.0005 4.2812 22.8644 3.64043 22.5996 3.04254C22.3347 2.44464 21.9463 1.90133 21.4564 1.44366C20.9666 0.985983 20.3849 0.622917 19.7447 0.375207C19.1045 0.127498 18.4183 -1.7086e-07 17.7253 0ZM11.5 32.0316C11.1209 32.0316 10.7503 31.9266 10.4352 31.73C10.12 31.5334 9.8743 31.2539 9.72923 30.9269C9.58416 30.5999 9.54621 30.2401 9.62016 29.893C9.69412 29.5459 9.87666 29.227 10.1447 28.9768C10.4128 28.7265 10.7543 28.5561 11.1261 28.487C11.4979 28.418 11.8833 28.4534 12.2335 28.5888C12.5837 28.7243 12.883 28.9536 13.0936 29.2479C13.3043 29.5422 13.4167 29.8882 13.4167 30.2421C13.4167 30.7167 13.2147 31.1719 12.8553 31.5075C12.4958 31.843 12.0083 32.0316 11.5 32.0316ZM21.0833 26.3053H1.91667V5.90526H21.0833V26.3053Z" fill="white"/>
</svg>
