<svg width="32" height="31" viewBox="0 0 32 31" fill="none" xmlns="http://www.w3.org/2000/svg">
<path d="M22.6667 27.7794C21.1911 27.7794 20 26.3328 20 24.5417C20 22.7678 21.1911 21.3211 22.6667 21.3211C24.1422 21.3211 25.3333 22.7678 25.3333 24.5417C25.3333 26.3328 24.1422 27.7794 22.6667 27.7794ZM16 14.2083C13.7956 14.2083 12 12.7617 12 10.9878C12 9.19667 13.7956 7.75 16 7.75C18.2045 7.75 20 9.19667 20 10.9878C20 12.7617 18.2045 14.2083 16 14.2083ZM9.33335 27.7794C7.85779 27.7794 6.66669 26.3328 6.66669 24.5417C6.66669 22.7678 7.85779 21.3211 9.33335 21.3211C10.8089 21.3211 12 22.7678 12 24.5417C12 26.3328 10.8089 27.7794 9.33335 27.7794ZM16 9.04167C16.7289 9.04167 17.3333 9.62722 17.3333 10.3333C17.3333 11.0394 16.7289 11.625 16 11.625C15.2711 11.625 14.6667 11.0394 14.6667 10.3333C14.6667 9.62722 15.2711 9.04167 16 9.04167ZM28 15.5C27.4311 15.5 26.88 15.6206 26.3822 15.8444C25.5289 14.7939 24.3733 13.8983 22.9867 13.2094C24 11.8317 24.6045 10.1611 24.6045 8.35278V8.24944C26.5422 7.85333 28 6.18278 28 4.16778C28 1.87722 26.0622 0 23.6978 0C22.4711 0 21.3333 0.499444 20.5867 1.29167C19.2153 0.448097 17.6245 0.000127289 16 0.000127289C14.3756 0.000127289 12.7847 0.448097 11.4133 1.29167C10.6667 0.499444 9.5289 0 8.30224 0C5.9378 0 4.00002 1.87722 4.00002 4.16778C4.00002 6.16556 5.4578 7.83611 7.3778 8.24944V8.35278C7.3778 10.1611 8.00002 11.8489 8.99557 13.2094C7.62668 13.8983 6.47113 14.7939 5.6178 15.8444C5.01027 15.5793 4.34378 15.4661 3.67938 15.5152C3.01499 15.5643 2.37393 15.7741 1.81493 16.1254C1.25593 16.4767 0.796865 16.9583 0.479784 17.526C0.162704 18.0938 -0.00225364 18.7295 2.32548e-05 19.375C2.32548e-05 21.5278 1.7778 23.25 4.00002 23.25H4.10669C4.03558 23.6633 4.00002 24.1111 4.00002 24.5417C4.00002 28.1067 6.38224 31 9.33335 31C11.1289 31 12.7111 29.915 13.6889 28.2617C14.4356 28.365 15.2 28.4167 16 28.4167C16.8 28.4167 17.5645 28.365 18.3111 28.2617C19.2889 29.915 20.8711 31 22.6667 31C25.6178 31 28 28.1067 28 24.5417C28 24.1111 27.9644 23.6633 27.8933 23.25H28C30.2222 23.25 32 21.5278 32 19.375C32 17.2222 30.2222 15.5 28 15.5Z" fill="white"/>
</svg>
