<svg width="27" height="26" viewBox="0 0 27 26" fill="none" xmlns="http://www.w3.org/2000/svg">
<path d="M13.5165 0C14.5257 0.0106667 15.5309 0.124 16.5167 0.337333C16.7265 0.382733 16.9164 0.490537 17.0598 0.645681C17.2033 0.800825 17.2932 0.995557 17.317 1.20267L17.5507 3.23867C17.5837 3.52571 17.6858 3.80124 17.8486 4.04307C18.0115 4.28491 18.2306 4.48631 18.4883 4.63105C18.7461 4.7758 19.0352 4.85986 19.3326 4.87647C19.63 4.89307 19.9272 4.84176 20.2004 4.72667L22.1254 3.90667C22.321 3.82313 22.5385 3.80059 22.7478 3.84215C22.9572 3.88371 23.1481 3.98733 23.2941 4.13867C24.686 5.58001 25.7226 7.30871 26.326 9.19467C26.3891 9.39298 26.387 9.60542 26.3199 9.80252C26.2529 9.99962 26.1243 10.1716 25.952 10.2947L24.2456 11.516C24.0052 11.6869 23.8097 11.9103 23.6749 12.1681C23.5402 12.426 23.4699 12.7109 23.4699 13C23.4699 13.2891 23.5402 13.574 23.6749 13.8319C23.8097 14.0897 24.0052 14.3131 24.2456 14.484L25.9547 15.704C26.1274 15.8271 26.2561 15.9994 26.3232 16.1967C26.3902 16.3941 26.3921 16.6068 26.3287 16.8053C25.7255 18.6911 24.6894 20.4197 23.2982 21.8613C23.1525 22.0126 22.9619 22.1163 22.7528 22.1581C22.5437 22.1999 22.3264 22.1777 22.1309 22.0947L20.1976 21.272C19.9248 21.156 19.6277 21.1039 19.3302 21.12C19.0328 21.136 18.7435 21.2197 18.4856 21.3644C18.2277 21.509 18.0086 21.7105 17.846 21.9525C17.6833 22.1945 17.5817 22.4702 17.5494 22.7573L17.3156 24.792C17.2923 24.9967 17.2043 25.1894 17.0638 25.3438C16.9233 25.4982 16.737 25.6068 16.5305 25.6547C14.5389 26.1141 12.4639 26.1141 10.4722 25.6547C10.2654 25.607 10.0789 25.4985 9.9381 25.3441C9.79731 25.1897 9.70917 24.9969 9.68574 24.792L9.45337 22.76C9.41961 22.4737 9.31711 22.1992 9.15408 21.9583C8.99105 21.7174 8.77204 21.517 8.51464 21.373C8.25725 21.2291 7.96863 21.1457 7.67198 21.1296C7.37532 21.1134 7.07889 21.1649 6.80649 21.28L4.87324 22.1013C4.67752 22.1847 4.45991 22.207 4.25053 22.1652C4.04115 22.1234 3.85033 22.0196 3.70449 21.868C2.31309 20.4247 1.2774 18.6942 0.675366 16.8067C0.611974 16.6082 0.613926 16.3954 0.680952 16.1981C0.747979 16.0007 0.876749 15.8285 1.04937 15.7053L2.75849 14.484C2.99891 14.3131 3.19442 14.0897 3.32919 13.8319C3.46395 13.574 3.53418 13.2891 3.53418 13C3.53418 12.7109 3.46395 12.426 3.32919 12.1681C3.19442 11.9103 2.99891 11.6869 2.75849 11.516L1.04937 10.2973C0.876749 10.1742 0.747979 10.002 0.680952 9.80459C0.613926 9.60722 0.611974 9.3945 0.675366 9.196C1.27874 7.31004 2.31537 5.58135 3.70724 4.14C3.85325 3.98866 4.04413 3.88505 4.25351 3.84348C4.46288 3.80192 4.6804 3.82447 4.87599 3.908L6.80099 4.728C7.07464 4.84303 7.3723 4.89422 7.67006 4.87745C7.96781 4.86068 8.25736 4.77643 8.51544 4.63146C8.77352 4.48649 8.99294 4.28484 9.15607 4.04272C9.31921 3.8006 9.4215 3.52475 9.45474 3.23733L9.68849 1.20267C9.71208 0.995139 9.80207 0.799978 9.94584 0.644552C10.0896 0.489126 10.2799 0.381232 10.4901 0.336C11.4842 0.12295 12.4984 0.0103492 13.5165 0ZM13.5 9C12.406 9 11.3568 9.42143 10.5832 10.1716C9.80959 10.9217 9.37499 11.9391 9.37499 13C9.37499 14.0609 9.80959 15.0783 10.5832 15.8284C11.3568 16.5786 12.406 17 13.5 17C14.594 17 15.6432 16.5786 16.4168 15.8284C17.1904 15.0783 17.625 14.0609 17.625 13C17.625 11.9391 17.1904 10.9217 16.4168 10.1716C15.6432 9.42143 14.594 9 13.5 9Z" fill="#137CF8"/>
</svg>
