<svg width="29" height="35" viewBox="0 0 29 35" fill="none" xmlns="http://www.w3.org/2000/svg">
<path d="M16.4344 19.5191L16.6225 19.7333L16.8103 19.5189L27.7728 7.00021L27.7728 7.00026L27.7767 6.99556C28.0118 6.71349 28.0578 6.33645 27.9182 6.01081C27.7686 5.66172 27.4251 5.47889 27.0659 5.47889H6.1439C5.78477 5.47889 5.44126 5.66171 5.29164 6.01081C5.15208 6.33646 5.19807 6.71349 5.43312 6.99556L5.43306 6.99561L5.43735 7.0005L16.4344 19.5191ZM26.1372 6.77427L16.6212 17.7291L7.00717 6.77427H26.1372Z" fill="white" stroke="white" stroke-width="0.5"/>
<path d="M15.9226 33.4636C15.9226 33.8437 16.2074 34.1285 16.5876 34.1285C16.9195 34.1285 17.2526 33.857 17.2526 33.4636V18.6279C17.2526 18.2478 16.9677 17.9629 16.5876 17.9629C16.2074 17.9629 15.9226 18.2478 15.9226 18.6279V33.4636Z" fill="white" stroke="white" stroke-width="0.5"/>
<path d="M9.98249 34.4398H23.1582C23.5383 34.4398 23.8232 34.1549 23.8232 33.7748C23.8232 33.3947 23.5383 33.1098 23.1582 33.1098H9.98249C9.60234 33.1098 9.3175 33.3947 9.3175 33.7748C9.3175 34.1549 9.60234 34.4398 9.98249 34.4398Z" fill="white" stroke="white" stroke-width="0.5"/>
<path d="M15.3773 13.7252C15.7254 13.7252 16.0077 13.443 16.0077 13.0948C16.0077 12.7467 15.7254 12.4644 15.3773 12.4644C15.0291 12.4644 14.7469 12.7467 14.7469 13.0948C14.7469 13.443 15.0291 13.7252 15.3773 13.7252Z" fill="white" stroke="white" stroke-width="0.5"/>
<path d="M19.3196 13.7252C19.6678 13.7252 19.95 13.443 19.95 13.0948C19.95 12.7467 19.6678 12.4644 19.3196 12.4644C18.9715 12.4644 18.6892 12.7467 18.6892 13.0948C18.6892 13.443 18.9715 13.7252 19.3196 13.7252Z" fill="white" stroke="white" stroke-width="0.5"/>
<path d="M17.5905 15.3506C17.9386 15.3506 18.2209 15.0683 18.2209 14.7202C18.2209 14.372 17.9386 14.0898 17.5905 14.0898C17.2423 14.0898 16.9601 14.372 16.9601 14.7202C16.9601 15.0683 17.2423 15.3506 17.5905 15.3506Z" fill="white" stroke="white" stroke-width="0.5"/>
<path d="M15.7577 15.731C16.1058 15.731 16.3881 15.4487 16.3881 15.1006C16.3881 14.7524 16.1058 14.4702 15.7577 14.4702C15.4095 14.4702 15.1273 14.7524 15.1273 15.1006C15.1273 15.4487 15.4095 15.731 15.7577 15.731Z" fill="white" stroke="white" stroke-width="0.5"/>
<path d="M8.56458 10.2325H24.2302C24.6103 10.2325 24.8952 9.94762 24.8952 9.56747C24.8952 9.18733 24.6103 8.90249 24.2302 8.90249H8.56458C8.18444 8.90249 7.8996 9.18733 7.8996 9.56747C7.8996 9.94762 8.18444 10.2325 8.56458 10.2325Z" fill="white" stroke="white" stroke-width="0.5"/>
<path d="M5.05333 8.94722L5.05327 8.94751L5.06534 8.94952L5.07438 8.95103C5.27589 8.98462 5.50063 9.02209 5.72891 9.02209C6.23845 9.02209 6.7742 8.91475 7.20912 8.60504C7.53524 8.42885 7.63088 8.04009 7.47412 7.72657C7.30316 7.38464 6.90515 7.28198 6.5854 7.44186L6.58535 7.44175L6.57868 7.44535C6.18201 7.65894 5.72394 7.71996 5.29715 7.62851L5.29717 7.62842L5.29084 7.62724C4.80507 7.53616 4.34578 7.23027 4.07179 6.80406C3.79804 6.37822 3.70297 5.85623 3.79596 5.32557C4.01185 4.25392 5.05271 3.58166 6.09198 3.79478C7.07806 4.01124 7.75057 4.90204 7.6586 5.91374L7.65757 5.92503V5.93637C7.65757 6.10527 7.70638 6.26874 7.81494 6.39901C7.92441 6.53037 8.07855 6.60856 8.25262 6.63342L8.27021 6.63594H8.28797C8.59898 6.63594 8.93005 6.42574 8.98503 6.04089L8.98535 6.04094L8.98651 6.02817C9.13629 4.38062 8.01419 2.84709 6.36735 2.51C4.57029 2.13586 2.84966 3.29707 2.47576 5.05438L2.47559 5.05434L2.47399 5.06357C2.32568 5.91635 2.47372 6.77656 2.96024 7.52506C3.44826 8.27585 4.19831 8.76134 5.05333 8.94722Z" fill="white" stroke="white" stroke-width="0.5"/>
<path d="M6.7477 0.850068L6.74684 0.849894C4.05354 0.303954 1.39627 2.05005 0.849894 4.74551C0.304107 7.43806 2.04908 10.0946 4.74325 10.642C5.07109 10.7147 5.39974 10.7512 5.72888 10.7512C6.78399 10.7512 7.80012 10.4237 8.66869 9.84465C8.99302 9.62843 9.05902 9.19056 8.83579 8.90124C8.6168 8.58346 8.18204 8.52135 7.89539 8.74528C7.08914 9.32381 6.02047 9.5511 5.01559 9.35661C3.00905 8.96825 1.71436 6.99302 2.1348 5.02019L2.13485 5.0202L2.13574 5.01559C2.52337 3.01283 4.46177 1.74689 6.47464 2.13533C8.16007 2.49286 9.38794 3.9503 9.42122 5.66233C9.42252 6.04117 9.70693 6.3247 10.0862 6.3247C10.4663 6.3247 10.7512 6.03986 10.7512 5.65972L10.7512 5.65581C10.7147 3.32384 9.03948 1.32298 6.7477 0.850068Z" fill="white" stroke="white" stroke-width="0.5"/>
<path d="M5.13312 8.3571C5.13312 8.73725 5.41796 9.02209 5.7981 9.02209C6.16375 9.02209 6.46308 8.75131 6.46308 8.39169V3.13524C6.46308 2.75509 6.17824 2.47026 5.7981 2.47026C5.41796 2.47026 5.13312 2.7551 5.13312 3.13524V8.3571Z" fill="white" stroke="white" stroke-width="0.5"/>
<path d="M5.77366 6.56599L5.78169 6.57078L5.79005 6.57496C5.79362 6.57675 5.7975 6.57871 5.80166 6.58082C5.86111 6.61092 5.97881 6.67052 6.10934 6.67052C6.32118 6.67052 6.54585 6.56687 6.66663 6.34793C6.88925 6.04264 6.7596 5.60875 6.43805 5.44092L3.96782 3.96564C3.66665 3.74022 3.23641 3.86249 3.06232 4.17589C2.83947 4.4812 2.9691 4.91525 3.29073 5.08313L5.77366 6.56599Z" fill="white" stroke="white" stroke-width="0.5"/>
<path d="M2.94619 7.36228L2.95627 7.38245L2.9698 7.40048C3.11472 7.59371 3.32363 7.70797 3.5502 7.70797C3.5932 7.70797 3.63058 7.69828 3.64518 7.69447C3.6571 7.69136 3.67348 7.68657 3.68414 7.68345C3.6876 7.68244 3.69046 7.68161 3.69236 7.68106C3.71608 7.67429 3.72379 7.67349 3.72378 7.6734C3.72378 7.67339 3.72376 7.67339 3.72371 7.67339H3.78577L3.84102 7.64384L8.29938 5.25913C8.63859 5.08723 8.74003 4.69081 8.58069 4.37213C8.40972 4.03019 8.01171 3.92754 7.69196 4.08741L7.69192 4.08733L7.68585 4.09057L3.2275 6.47528C2.88829 6.64717 2.78685 7.0436 2.94619 7.36228Z" fill="white" stroke="white" stroke-width="0.5"/>
</svg>
