<svg width="30" height="30" viewBox="0 0 30 30" fill="none" xmlns="http://www.w3.org/2000/svg">
<path d="M25.6111 4.38889C22.7778 1.55556 19 0 15 0C11 0 7.22222 1.55556 4.38889 4.38889C1.55556 7.22222 0 11 0 15C0 19 1.55556 22.7778 4.38889 25.6111C7.22222 28.4444 11 30 15 30C19 30 22.7778 28.4444 25.6111 25.6111C28.4444 22.7778 30 19 30 15C30 11 28.4444 7.22222 25.6111 4.38889ZM22.2222 14C22.3889 11.1667 23.3889 8.38889 25 6.11111C25.0556 6 25.1667 5.88889 25.2222 5.83333C27.3889 8.22222 28.6111 11.2778 28.7778 14.5H22.2222C22.2222 14.2778 22.2222 14.1111 22.2222 14ZM24.1111 5.27778C23.7222 5.77778 23.3889 6.33333 23.1111 6.88889C21.9444 9.05556 21.2222 11.4444 21.0556 13.8889C21.0556 14.0556 21 14.2222 21 14.3333H15.6111V1.22222C18.8889 1.38889 22 2.66667 24.3889 4.88889C24.2778 5 24.2222 5.16667 24.1111 5.27778ZM14.3889 1.22222V14.3889H9C9 14.2222 9 14.0556 8.94444 13.8889C8.72222 10.7778 7.66667 7.77778 5.88889 5.27778C5.77778 5.11111 5.72222 5 5.61111 4.83333C8 2.66667 11.1111 1.33333 14.3889 1.22222ZM4.77778 5.77778C4.83333 5.88889 4.94444 6 5 6.05556C6.66667 8.38889 7.61111 11.1111 7.77778 14C7.77778 14.1667 7.77778 14.2778 7.77778 14.4444H1.22222C1.33333 11.1667 2.61111 8.16667 4.77778 5.77778ZM7.77778 15.6111C7.77778 15.7778 7.77778 15.8889 7.77778 16.0556C7.61111 18.8889 6.61111 21.6667 5 24C4.94444 24.1111 4.83333 24.2222 4.77778 24.2778C2.61111 21.8889 1.38889 18.8333 1.22222 15.6111H7.77778ZM5.88889 24.6667C7.66667 22.1111 8.72222 19.1667 8.94444 16.0556C8.94444 15.8889 9 15.7222 9 15.5556H14.3889V28.7222C11.1111 28.5556 8 27.2778 5.61111 25.0556C5.72222 25 5.83333 24.8333 5.88889 24.6667ZM15.6111 28.7778V15.6111H21C21 15.7778 21 15.9444 21.0556 16.0556C21.2778 19.3333 22.4444 22.5 24.3889 25.1111C22 27.3333 18.8889 28.6667 15.6111 28.7778ZM25.2222 24.2222C25.1667 24.1111 25.0556 24 25 23.9444C23.3333 21.6111 22.3889 18.8889 22.2222 16.0556C22.2222 15.8889 22.2222 15.7778 22.2222 15.6111H28.7778C28.6667 18.8333 27.3889 21.8333 25.2222 24.2222Z" fill="white"/>
</svg>
