<svg width="31" height="31" viewBox="0 0 31 31" fill="none" xmlns="http://www.w3.org/2000/svg">
<path d="M29.7083 8.39583V6.13542C29.7083 5.23125 28.9979 4.52083 28.0938 4.52083H25.8333V2.58333C25.8333 1.1625 24.6708 0 23.25 0H7.75C6.32917 0 5.16667 1.1625 5.16667 2.58333V4.52083H2.90625C2.00208 4.52083 1.29167 5.23125 1.29167 6.13542V8.39583C0.58125 8.39583 0 8.97708 0 9.6875V12.9167C0 13.6271 0.58125 14.2083 1.29167 14.2083H2.58333C3.29375 14.2083 3.875 13.6271 3.875 12.9167V9.6875C3.875 8.97708 3.29375 8.39583 2.58333 8.39583V6.13542C2.58333 5.94167 2.7125 5.8125 2.90625 5.8125H5.16667V25.1875C5.16667 26.6083 6.32917 27.7708 7.75 27.7708H23.25C24.6708 27.7708 25.8333 26.6083 25.8333 25.1875V5.8125H28.0938C28.2875 5.8125 28.4167 5.94167 28.4167 6.13542V8.39583C27.7062 8.39583 27.125 8.97708 27.125 9.6875V12.9167C27.125 13.6271 27.7062 14.2083 28.4167 14.2083H29.7083C30.4187 14.2083 31 13.6271 31 12.9167V9.6875C31 8.97708 30.4187 8.39583 29.7083 8.39583ZM11.625 22.9271C11.625 23.4437 11.1729 23.8958 10.6562 23.8958H8.71875C8.20208 23.8958 7.75 23.4437 7.75 22.9271V20.9896C7.75 20.4729 8.20208 20.0208 8.71875 20.0208H10.6562C11.1729 20.0208 11.625 20.4729 11.625 20.9896V22.9271ZM17.4375 22.6042H13.5625C13.175 22.6042 12.9167 22.3458 12.9167 21.9583C12.9167 21.5708 13.175 21.3125 13.5625 21.3125H17.4375C17.825 21.3125 18.0833 21.5708 18.0833 21.9583C18.0833 22.3458 17.825 22.6042 17.4375 22.6042ZM23.25 22.9271C23.25 23.4437 22.7979 23.8958 22.2812 23.8958H20.3438C19.8271 23.8958 19.375 23.4437 19.375 22.9271V20.9896C19.375 20.4729 19.8271 20.0208 20.3438 20.0208H22.2812C22.7979 20.0208 23.25 20.4729 23.25 20.9896V22.9271ZM23.25 17.4375H7.75V7.10417C7.75 4.71458 11.9479 3.875 15.5 3.875C19.0521 3.875 23.25 4.71458 23.25 7.10417V17.4375Z" fill="white"/>
<path d="M19.375 29.0625V29.7083C19.375 30.4187 19.9562 31 20.6667 31H21.9583C22.6687 31 23.25 30.4187 23.25 29.7083V29.0625H19.375Z" fill="white"/>
<path d="M7.75 29.7083C7.75 30.4187 8.33125 31 9.04167 31H10.3333C11.0437 31 11.625 30.4187 11.625 29.7083V29.0625H7.75V29.7083Z" fill="white"/>
</svg>
