<svg width="31" height="32" viewBox="0 0 31 32" fill="none" xmlns="http://www.w3.org/2000/svg">
<path d="M3.43345 11.309L9.53555 14.6522C10.178 15.0085 10.8942 15.1898 11.6149 15.1898C12.1019 15.1898 12.5916 15.1072 13.0604 14.9391C14.2281 14.5211 15.1629 13.6199 15.6226 12.4702C15.9 11.7864 16.5393 11.3442 17.2518 11.3442C17.3323 11.3442 17.4073 11.351 17.5224 11.3698C19.1598 11.6004 20.7421 11.0455 21.8812 9.85097C23.0202 8.6574 23.5049 7.03947 23.2093 5.41287L23.0657 4.62218C25.5056 6.14692 27.4631 8.43586 28.5262 11.2245C28.7799 11.8878 29.5201 12.2176 30.1776 11.9654C30.8379 11.7114 31.1675 10.9687 30.9152 10.3064C28.5653 4.1421 22.5659 0 15.9855 0C7.1711 0 0 7.20392 0 16.0586C0 22.5884 3.87952 28.4151 9.8834 30.9022C10.0435 30.9689 10.2081 31 10.3704 31C10.8728 31 11.3494 30.7004 11.5531 30.2047C11.8227 29.5488 11.5112 28.7979 10.8587 28.5274C10.4027 28.3383 9.96661 28.1191 9.54101 27.8857L10.4636 25.7835C10.8046 25.0207 10.9851 24.1551 10.9851 23.2785C10.9851 22.2773 10.7623 21.3295 10.3231 20.462C9.18725 18.2119 6.74186 16.8621 4.24055 17.1047L2.61544 17.2591C2.58043 16.8621 2.5577 16.4624 2.5577 16.0582C2.5577 14.385 2.87644 12.789 3.43345 11.309ZM15.9855 2.56894C17.4483 2.56894 18.8742 2.8188 20.2206 3.27285L20.6926 5.87285C20.8394 6.67953 20.5989 7.48073 20.0346 8.07226C19.4708 8.66379 18.6801 8.93969 17.9102 8.83006C15.925 8.49844 14.0107 9.63217 13.2518 11.5068C13.0631 11.9787 12.6803 12.3473 12.2028 12.5181C11.724 12.6899 11.217 12.6488 10.766 12.3994L4.56339 9.00181C6.93056 5.15022 11.1584 2.56894 15.9855 2.56894ZM4.48336 19.6627C5.93886 19.5243 7.37754 20.3095 8.04186 21.625C8.29785 22.1297 8.42699 22.6866 8.42699 23.2785C8.42699 23.7943 8.32468 24.2967 8.12643 24.7389L7.38572 26.4262C5.32092 24.7033 3.8245 22.3942 3.08379 19.7956L4.4829 19.6627H4.48336Z" fill="white"/>
<path d="M27.4452 22.0896L29.2794 20.3862C30.5207 19.2392 31.1521 17.5817 30.9688 15.9533C30.8547 14.9369 30.0644 14.1471 29.0479 14.0327C27.4147 13.8441 25.7611 14.4803 24.6158 15.7199L22.9107 17.5558L19.0723 15.5573C18.1959 15.1006 17.1259 15.2791 16.4071 15.9973L15.7825 16.6214C15.4475 16.9561 15.266 17.4153 15.2837 17.8829C15.3014 18.3346 15.5069 18.7619 15.8484 19.0532L19.0211 21.7621L16.8939 24.0674L15.7844 23.6883C15.1877 23.4846 14.5111 23.6476 14.0582 24.1009L13.4999 24.6591C13.1644 24.9945 12.9822 25.4553 13.0014 25.9236C13.0194 26.3768 13.2269 26.804 13.5695 27.0939L15.2991 28.5616C15.708 28.9091 16.0913 29.2919 16.4388 29.7011L17.906 31.4305C18.1966 31.773 18.6235 31.9804 19.0772 31.9985C19.0994 31.9996 19.1216 32 19.1439 32C19.5889 32 20.0222 31.8201 20.3404 31.5012L20.901 30.9415C21.3539 30.4886 21.5158 29.8114 21.3125 29.2147L20.9341 28.1065L23.2397 25.9797L25.949 29.1523C26.2408 29.4929 26.6677 29.6988 27.1195 29.7162C27.5837 29.7346 28.0464 29.5517 28.3811 29.2174L29.0053 28.5929C29.7244 27.8739 29.9014 26.8025 29.4455 25.9285L27.4467 22.0899L27.4452 22.0896ZM27.5065 27.0954L27.2208 27.3811L24.1339 23.767C23.9472 23.5482 23.6791 23.415 23.3915 23.3977C23.1038 23.374 22.8222 23.4812 22.6106 23.6762L18.9899 27.0175C18.6819 27.3017 18.5705 27.7406 18.706 28.1378L19.2158 29.6303L19.183 29.6631L18.0517 28.3309C17.6304 27.834 17.165 27.3687 16.668 26.9475L15.3356 25.8163L15.3684 25.7835L16.8612 26.2932C17.2584 26.4291 17.6978 26.3177 17.9816 26.0094L21.3234 22.3892C21.5188 22.1776 21.6193 21.8957 21.602 21.6085C21.585 21.3209 21.4514 21.0528 21.2326 20.8661L17.6179 17.7797L17.9037 17.494C17.9745 17.4232 18.0577 17.4176 18.0931 17.4345L22.6483 19.8065C23.0711 20.0263 23.5887 19.9367 23.9133 19.5878L26.1692 17.1586C26.8616 16.4106 27.8518 16.0331 28.8642 16.1897C28.9722 17.1518 28.5901 18.1392 27.8405 18.8322L25.4125 21.0864C25.0631 21.4108 24.9735 21.9284 25.1937 22.3512L27.566 26.9061C27.5841 26.9403 27.5773 27.0239 27.5065 27.0947V27.0954Z" fill="white"/>
</svg>
