<svg width="30" height="27" viewBox="0 0 30 27" fill="none" xmlns="http://www.w3.org/2000/svg">
<path d="M29.2409 20.7068L18.342 2.23864C17.5027 0.81605 16.2844 0 15 0C13.7155 0 12.4972 0.81555 11.6575 2.23864L0.759557 20.7068C-0.100441 22.1639 -0.235163 23.5929 0.380984 24.7305C0.997131 25.8686 2.24488 26.4951 3.89389 26.4951H26.1061C27.7551 26.4951 29.0028 25.8686 29.619 24.731C30.2351 23.5934 30.1004 22.1639 29.2409 20.7068ZM27.9342 23.7524C27.6788 24.2245 27.0124 24.495 26.1061 24.495H3.89389C2.98754 24.495 2.32117 24.2245 2.06573 23.7524C1.81029 23.2809 1.93487 22.5509 2.4076 21.7498L13.3056 3.2812C13.7938 2.45515 14.3954 2.00012 15 2.00012C15.6045 2.00012 16.2062 2.45515 16.6939 3.2817L27.5928 21.7498C28.0656 22.5509 28.1897 23.2809 27.9342 23.7524Z" fill="#137CF8"/>
<path d="M14.9999 7.99393C14.4668 7.99393 14.0342 8.44195 14.0342 8.99399V16.9945C14.0342 17.5465 14.4668 17.9945 14.9999 17.9945C15.533 17.9945 15.9657 17.5465 15.9657 16.9945V8.99399C15.9657 8.44195 15.533 7.99393 14.9999 7.99393Z" fill="#137CF8"/>
<path d="M14.3142 19.7897C14.1356 19.9747 14.0342 20.2348 14.0342 20.4948C14.0342 20.7548 14.1356 21.0148 14.3142 21.1998C14.4977 21.3898 14.744 21.4948 14.9999 21.4948C15.251 21.4948 15.5021 21.3898 15.6856 21.1998C15.8643 21.0148 15.9657 20.7548 15.9657 20.4948C15.9657 20.2348 15.8643 19.9748 15.6808 19.7847C15.3235 19.4147 14.6764 19.4147 14.3142 19.7897Z" fill="#137CF8"/>
</svg>
