<svg width="33" height="33" viewBox="0 0 33 33" fill="none" xmlns="http://www.w3.org/2000/svg">
<path d="M12.5714 6.28571H18.8571V3.14286H12.5714V6.28571ZM25.1429 33C22.969 33 21.1163 32.2337 19.5847 30.701C18.0531 29.1683 17.2868 27.3156 17.2857 25.1429C17.2857 22.969 18.052 21.1163 19.5847 19.5847C21.1174 18.0531 22.9701 17.2868 25.1429 17.2857C27.3167 17.2857 29.1699 18.052 30.7026 19.5847C32.2352 21.1174 33.001 22.9701 33 25.1429C33 27.3167 32.2337 29.1699 30.701 30.7026C29.1683 32.2352 27.3156 33.001 25.1429 33ZM3.14286 29.8571C2.27857 29.8571 1.53895 29.5497 0.924 28.9347C0.309048 28.3198 0.00104762 27.5796 0 26.7143V9.42857C0 8.56429 0.308 7.82467 0.924 7.20971C1.54 6.59476 2.27962 6.28676 3.14286 6.28571H9.42857V3.14286C9.42857 2.27857 9.73657 1.53895 10.3526 0.924C10.9686 0.309048 11.7082 0.00104762 12.5714 0H18.8571C19.7214 0 20.4616 0.308 21.0776 0.924C21.6936 1.54 22.001 2.27962 22 3.14286V6.28571H28.2857C29.15 6.28571 29.8901 6.59371 30.5061 7.20971C31.1221 7.82571 31.4296 8.56533 31.4286 9.42857V13.9857C31.4286 14.4571 31.2259 14.8107 30.8204 15.0464C30.415 15.2821 29.9891 15.2952 29.5429 15.0857C28.8619 14.7714 28.1485 14.5357 27.4026 14.3786C26.6567 14.2214 25.9034 14.1429 25.1429 14.1429C22.1048 14.1429 19.5119 15.2167 17.3643 17.3643C15.2167 19.5119 14.1429 22.1048 14.1429 25.1429C14.1429 25.6143 14.1759 26.0925 14.2419 26.5776C14.3079 27.0626 14.4058 27.5403 14.5357 28.0107C14.6667 28.456 14.5949 28.875 14.3204 29.2679C14.046 29.6607 13.6856 29.8571 13.2393 29.8571H3.14286ZM25.9286 24.8286V21.2143C25.9286 21.0048 25.85 20.8214 25.6929 20.6643C25.5357 20.5071 25.3524 20.4286 25.1429 20.4286C24.9333 20.4286 24.75 20.5071 24.5929 20.6643C24.4357 20.8214 24.3571 21.0048 24.3571 21.2143V24.7893C24.3571 24.9988 24.3964 25.202 24.475 25.399C24.5536 25.596 24.6714 25.7725 24.8286 25.9286L27.1857 28.2857C27.3429 28.4429 27.5262 28.5214 27.7357 28.5214C27.9452 28.5214 28.1286 28.4429 28.2857 28.2857C28.4429 28.1286 28.5214 27.9452 28.5214 27.7357C28.5214 27.5262 28.4429 27.3429 28.2857 27.1857L25.9286 24.8286Z" fill="white"/>
</svg>
